<?xml version="1.0" encoding="utf-8"?>
<!-- Generator: Adobe Illustrator 26.0.3, SVG Export Plug-In . SVG Version: 6.00 Build 0)  -->
<svg version="1.1" id="Layer_1" xmlns="http://www.w3.org/2000/svg" xmlns:xlink="http://www.w3.org/1999/xlink" x="0px" y="0px"
	 viewBox="0 0 612 792" style="enable-background:new 0 0 612 792;" xml:space="preserve">
<g>
	<path d="M222.55,402.84c11.35,0.33,19.7-0.76,28.07-1.03c9.1-0.29,18.08-1.86,27.21-1.82c6.72,0.04,13.5-0.73,20.14-2.1
		c4.14-0.86,8.38-0.19,12.53-1.1c2.03-0.44,4.12-0.76,6.18-1.12c2.87-0.5,5.73-0.94,8.65-1.14c8.02-0.55,16-1.52,23.7-3.94
		c2.58-0.81,5.34-0.65,7.82-1.77c0.61-0.27,1.58-0.4,1.59-1.17c0.02-0.94-1.05-1.41-1.71-1.48c-3.18-0.34-5.65-1.83-7.94-3.97
		c-1.38-1.29-3.28-1.96-5.18-1.86c-2.25,0.11-4.41-0.38-6.61-0.54c-2.73-0.2-5.3-0.77-7.93-2.11c-4.38-2.22-9.36-2.59-14.32-1.95
		c-0.8,0.1-1.64,0.33-2.42,0.2c-5.07-0.81-10.2-0.93-15.29-1.58c-5.24-0.67-10.61-0.27-15.95,0.21c-5.85,0.52-11.74,0.75-17.62-0.76
		c-4.25-1.09-8.7-1.35-13.13-0.82c-0.69,0.08-1.41,0.2-2.09,0.13c-7.5-0.7-15.04,0.83-22.57-0.56c-3.6-0.66-7.4-0.26-11.1-0.32
		c-0.34-0.01-0.71,0.05-1.03,0.18c-5.59,2.35-11.22,0.91-16.85,0.22c-3.51-0.43-6.94,0.76-10.45,0.58
		c-3.16-0.16-6.25,0.64-9.39,0.88c-2.14,0.16-4.09-0.51-6.18-0.51c-4.06,0-8.1-0.24-12.17,0.25c-5.83,0.7-11.6-1.01-17.44-0.77
		c-0.23,0.01-0.47-0.11-0.69-0.09c-2.07,0.2-4.48,1.22-6.15,0.51c-7.91-3.4-16.75-4.32-24.1-9.09c-2.53-1.64-3.95-4.27-4.42-7.22
		c-0.37-2.32-0.91-4.58-1.69-6.78c-0.92-2.55-0.82-5.06,0.25-7.51c0.82-1.86,1.33-3.7,0.77-5.76c-0.52-1.95,0.76-3.58,1.19-5.36
		c2.2-9.14,8.11-14.93,16.44-18.66c3.8-1.7,7.52-3.55,11.31-5.27c2.98-1.35,6.23-1.91,9.34-2.79c2.81-0.79,5.44-2,8.23-2.82
		c1.7-0.5,3.33-0.82,5.08-0.96c5.43-0.45,10.78-1.47,16.15-2.41c5.25-0.93,10.52-1.73,15.9-1.27c7.6,0.65,15.14,0.1,22.59-1.55
		c1.29-0.29,2.57-0.35,3.81-0.03c7.38,1.89,14.99,1.76,22.5,2.54c3.11,0.32,6.25,0.97,9.17,1.85c5.09,1.53,10.3,2.62,15.46,2.54
		c7.15-0.12,13.65,2.51,20.48,3.62c5.46,0.88,10.89,1.96,16.4,2.49c3.01,0.29,5.88,1.18,8.7,2.06c7.46,2.31,14.96,4.44,22.53,6.33
		c2.61,0.65,5.1,1.54,7.56,2.66c4.58,2.08,9.43,3.3,14.51,3.36c0.94,0.01,2.09-0.21,2.49,0.81c1.22,3.12,4.16,3.02,6.64,3.66
		c5.3,1.36,10.8,1.26,16.19,2c2.67,0.36,5.32-0.43,8-0.54c8.06-0.33,16.11,0.31,24.15-0.05c6.37-0.28,12.83-0.19,18.92-2.71
		c2.17-0.9,4.2-2.02,6.11-3.34c2.17-1.51,2.25-1.81,1.45-4.39c-0.45-1.45-1.04-2.85-1.56-4.28c-0.28-0.77-0.89-1.58-0.78-2.29
		c0.44-2.85-1.53-3.89-3.46-4.95c-2.77-1.53-5.22-3.46-7.41-5.7c-0.59-0.6-1.11-1.18-2.02-1.23c-0.6-0.03-1.29-0.21-1.45-0.8
		c-0.68-2.46-2.99-3.14-4.74-4.4c-2.45-1.77-5.04-3.33-7.49-5.14c-5.01-3.69-10.81-5.88-16.59-8.11c-3.68-1.42-7.49-2.46-11.17-3.9
		c-3.56-1.39-7.41-2.01-11.11-3.07c-4.03-1.15-7.98-2.69-12.07-3.55c-5.6-1.17-10.95-3.14-16.46-4.56
		c-2.79-0.71-5.77-0.65-8.67-0.92c-6.83-0.64-13.65-1.36-20.49-1.87c-4.17-0.31-8.38-0.14-12.55-0.47
		c-4.1-0.32-8.28,0.23-12.24-1.83c-3.56-1.85-7.72-1.44-11.63-1.92c-3.56-0.44-7.16-0.15-10.75-0.56c-2.27-0.26-4.68,0.02-6.95,0.46
		c-3.37,0.65-6.74,0.4-10.11,0.57c-8.38,0.45-16.78,0.49-25.15,1.21c-2.78,0.24-5.59,0.23-8.38,0.14
		c-6.59-0.22-12.96,1.03-19.26,2.75c-7.99,2.18-16.18,3.39-24.28,5.03c-8.79,1.78-17.47,3.79-25.62,7.93
		c-5.39,2.74-10.7,5.65-16.06,8.43c-4.21,2.19-8.09,5.06-11.77,8.09c-3.64,3-7.89,4.98-11.9,7.3c-5.85,3.38-11.72,6.76-17.59,10.11
		c-3.72,2.12-7.89,3.44-11.17,6.35c-8.09,2.23-15.26,6.89-23.48,8.77c-2.15,0.49-4.31,0.91-6.43,1.6c-2.27,0.74-4.62,0.55-6.64-1.05
		c-1.52-1.2-3.18-1.82-5.2-1.49c-1.29,0.22-2.55-0.15-3.64-0.95c-0.47-0.35-0.99-0.93-1.46-0.91c-3.72,0.18-5-3-7.12-5.02
		c-0.33-0.31-0.62-0.71-0.78-1.12c-3.51-8.94-5.83-18.11-5.63-27.82c0.08-3.96-0.89-7.87-0.74-11.87c0.07-1.91,0.55-3.6,1.2-5.39
		c1.51-4.14,2.76-8.39,3.93-12.64c1.04-3.78,2.34-7.34,5.52-9.9c0.36-0.29,0.72-0.63,0.96-1.02c4.04-6.85,10.28-11.54,16.75-15.59
		c5.25-3.28,10.68-6.68,17-7.91c1.77-0.34,2.84-1.95,4.49-2.64c8.49-3.48,16.93-7.01,25.82-9.48c8.73-2.42,17.28-5.43,25.58-9.23
		c6.42-2.94,13.1-5.48,20.05-7.14c2.94-0.7,5.77-1.87,8.67-2.75c8.03-2.43,16.06-4.87,24.56-5.16c1.61-0.06,3.21-0.56,4.81-0.85
		c5.96-1.05,11.89-2.34,17.89-3.06c4.39-0.52,8.8-1.27,13.2-1.34c8.65-0.14,17.21-1.27,25.83-1.65c8.61-0.37,17.22-0.56,25.83-0.69
		c8.33-0.12,16.47,1.37,24.67,2.44c1.63,0.21,3.25,0.37,4.87,0.37c7.71,0.01,15.33,0.95,22.94,1.99c0.35,0.05,0.7,0.12,1.05,0.09
		c6.52-0.57,12.7,1.36,18.98,2.57c2.52,0.49,5.14,0.11,7.64,0.84c6.81,1.98,14.01,2.12,20.79,4.23c6.77,2.11,13.68,3.81,20.19,6.71
		c1.18,0.53,2.42,0.76,3.72,0.89c3.1,0.31,5.85,1.48,8.68,2.9c5.26,2.64,10.5,5.36,16.1,7.31c3.4,1.18,6.75,2.55,9.91,4.38
		c3.83,2.22,7.84,4.06,12.05,5.53c2.61,0.91,4.94,2.59,7.41,3.9c5.75,3.05,11.27,6.43,16.65,10.14c9.8,6.76,19.04,14.26,28.84,21
		c8.14,5.59,16.56,10.84,23.85,17.57c5.4,4.98,11.26,9.41,16.77,14.24c3.18,2.79,6.88,4.8,10.36,7.14c2.44,1.64,4.65,3.46,6.52,5.76
		c2.44,3,6.14,4.63,8.61,7.52c2.34,2.75,5.43,4.71,7.1,8.28c1.2,2.57,3.01,5.2,5.36,7.21c2.51,2.14,4.45,4.71,5.59,7.89
		c0.54,1.51,1.37,3.06,2.49,4.18c1.84,1.83,2.77,3.99,3.39,6.39c1.45,5.67,4.02,10.89,6.58,16.12c0.72,1.47,1.19,2.91,1.04,4.68
		c-0.15,1.69,0.52,3.43,0.72,5.17c0.61,5.32,2.68,10.44,2.64,15.81c-0.04,4.38,0.31,8.75-0.16,13.18
		c-0.41,3.93-1.32,7.78-1.55,11.72c-0.05,0.81-0.12,1.66-0.4,2.4c-1.72,4.57-3.21,9.24-5.74,13.47c-1.19,2-2.38,4-2.81,6.35
		c-0.24,1.33-1.12,2.3-2.12,3.13c-1,0.83-1.9,1.73-2.54,2.86c-1.39,2.45-3.78,4.59-2.54,7.89c-1.58,4.72-2.14,9.81-5.63,13.8
		c-3.34,3.81-5.58,8.77-10.25,11.18c-5.2,2.69-9.47,6.68-14.54,9.53c-2.89,1.62-5.12,4.33-7.9,6.28c-3.53,2.48-7.09,4.87-10.95,6.83
		c-1.03,0.52-1.91,1.33-2.85,2.02c-0.56,0.42-1.04,1.04-1.66,1.27c-5.45,1.99-9.77,6.09-15.28,8c-2.83,0.98-4.99,3.29-7.71,4.67
		c-9.46,4.79-18.78,9.86-28.19,14.75c-10.21,5.3-20.72,9.99-30.98,15.17c-2.78,1.4-5.44,3.08-8.24,4.49
		c-1.56,0.79-3.07,1.63-4.72,2.22c-4.38,1.56-8.28,4.2-12.7,5.72c-4.82,1.66-9.5,3.76-14.33,5.39c-9.6,3.23-19.15,6.65-28.92,9.28
		c-11.28,3.03-22.13,7.36-33.4,10.4c-2.19,0.59-4.59,1.02-6.16,3.06c-0.32,0.42-1.13,0.91-1.48,0.77c-2.41-0.93-3.69,1.01-5.49,1.82
		c-3.59,1.61-7.17,3.32-11.06,4.22c-2.61,0.6-5.17,1.43-7.76,2.12c-1.99,0.53-3.91,1.54-6.12,0.69c-0.55-0.21-1.37,0.14-2.02,0.36
		c-8.59,3-17.43,5.08-26.24,7.27c-0.68,0.17-1.42,0.26-2.01,0.6c-6.1,3.48-13,3.16-19.62,4.25c-4.02,0.66-8.01,1.48-12.09,1.69
		c-2.68,0.14-5.34,0.48-8.01-0.12c-1.96-0.43-4.05-0.53-5.92-0.07c-4.47,1.1-8.46,0.06-12.56-1.63c-4.74-1.95-9.75-3.15-14.73-4.39
		c-4.43-1.1-8.65-2.81-12.82-4.67c-4.88-2.17-6.51-6.69-8.36-11.12c-1.78-4.25-2.13-8.83-2.99-13.27c-0.45-2.34,0.28-4.91,1.18-7.17
		c1.55-3.89,3.21-7.73,5.72-11.18c2.88-3.95,6.85-6.24,11.22-7.93c2.38-0.92,4.75-1.81,7.07-2.92c2.38-1.14,4.98-1.88,7.53-2.63
		c4.92-1.44,9.79-2.9,14.44-5.18c4.18-2.05,8.71-3.21,13.24-4.38c5.62-1.45,11.16-3.34,16.57-5.45c2.96-1.15,6.05-1.63,9.01-2.69
		c13.38-4.79,26.98-8.94,40.37-13.71c12.15-4.33,24.38-8.42,36.63-12.47c6.74-2.23,13.66-3.93,20.35-6.28
		c9.23-3.23,18.63-5.93,27.74-9.58c9.09-3.65,17.94-7.87,27.07-11.35c9.16-3.5,17.96-7.87,27.27-10.91
		c5.55-1.81,11.07-3.63,16.42-5.93c2.78-1.19,5.53-2.51,8.13-4.05c4.46-2.65,5.07-7.32,1.66-11.22c-0.46-0.53-1.01-0.99-1.4-1.56
		c-1.54-2.24-3.56-2.68-6.11-2.01c-1.67,0.43-3.45,0.49-5.19,0.63c-3.11,0.24-5.68,1.96-8.51,3c-10.39,3.8-20.75,7.7-31.13,11.53
		c-1.09,0.4-1.99,1.22-3.21,1.33c-1.03,0.09-1.35,0.69-1.12,1.72c0.35,1.55-0.74,1.95-1.92,2.39c-8.07,3-16.08,6.17-24,9.55
		c-3.2,1.37-6.65,2.02-9.91,3.29c-4.12,1.6-8.1,3.57-12.4,4.77c-8.29,2.32-16.63,4.52-24.74,7.36c-7.5,2.63-15.13,4.79-22.9,6.09
		c-9.35,1.57-18.29,4.69-27.58,6.38c-2.98,0.54-5.96,1.03-8.96,1.48c-7.15,1.06-13.99,3.58-21.18,4.45
		c-2.36,0.29-4.34,1.65-6.59,2.3c-4.93,1.43-10.2,1.24-14.98,3.32c-0.21,0.09-0.46,0.09-0.69,0.1c-8.03,0.07-15.83,2.25-23.9,2.36
		c-4.95,0.07-9.87,1.57-14.82,2.31c-4.26,0.64-8.54,1.14-12.82,1.62c-1.38,0.15-2.78,0.09-4.18-0.22c-2.18-0.48-4.37-0.49-6.59-0.01
		c-1.35,0.29-2.8,0.39-4.18,0.24c-7.06-0.77-14.25-0.41-21.19-2.2c-2.3-0.59-4.64,0.2-6.9-0.61c-0.97-0.35-2.21-0.28-2.94-1.02
		c-3.44-3.51-8.08-4.53-12.44-6.1c-3.18-1.15-6.53-1.92-8.68-4.88c-4-1.03-6.12-4.25-8.65-7.1c-1.29-1.45-2.85-2.74-4.35-4.03
		c-2.43-2.09-4.33-4.45-5.57-7.46c-2.18-5.26-4.78-10.33-6.77-15.69c-2.23-5.99,0.15-11.5,4.34-14.61
		c3.86-2.86,8.02-5.13,12.55-6.82c3.27-1.22,6.46-2.65,9.77-3.78c1.92-0.65,3.16-2.36,4.86-3.39c5.34-3.22,11.27-4.97,17.09-6.97
		c8.05-2.76,16.21-5.19,24.32-7.79c7.8-2.5,15.88-3.7,23.88-5.25c6.28-1.22,12.61-2.25,18.94-3.21c3.68-0.55,7.37-1.17,11.12-1.08
		C210.12,403.92,217.77,402.44,222.55,402.84z"/>
</g>
</svg>
