<?xml version="1.0" encoding="utf-8"?>
<!-- Generator: Adobe Illustrator 26.0.3, SVG Export Plug-In . SVG Version: 6.00 Build 0)  -->
<svg version="1.1" id="Layer_1" xmlns="http://www.w3.org/2000/svg" xmlns:xlink="http://www.w3.org/1999/xlink" x="0px" y="0px"
	 viewBox="0 0 612 792" style="enable-background:new 0 0 612 792;" xml:space="preserve">
<g>
	<path d="M517.43,424.78c-0.44,7.69-0.18,14.76-3.23,21.32c-1.2,2.58-1.27,5.44-1.97,8.14c-0.55,2.14-1.5,3.79-3.46,5
		c-3.56,2.2-6.37,5.09-7.44,9.36c-0.58,2.33-2.54,3.64-4.4,4.8c-3.75,2.33-7.45,4.69-11.66,6.29c-5.2,1.98-10.08,1.38-14.97-0.62
		c-4.02-1.64-6.89-4.75-9.67-7.94c-0.92-1.06-1.73-2.23-2.75-3.19c-5.96-5.62-8.96-12.98-12.19-20.26
		c-2.6-5.87-2.06-12.12-2.8-18.22c-0.57-4.76-0.9-9.54-1.27-14.32c-0.45-5.73-0.24-11.48-0.16-17.22
		c0.08-5.51-0.67-10.97-0.81-16.48c-0.08-3.11-0.06-6.56-1.46-9.62c-0.37-0.81-0.06-1.6,0.05-2.41c0.43-3.28,0.22-6.49-0.66-9.72
		c-1.02-3.72-1.15-7.69-0.87-11.42c0.33-4.55-0.9-8.58-2.23-12.66c-1.3-3.99-2.92-7.88-4.46-11.79c-0.92-2.35-2.83-4.04-4.74-5.43
		c-2.75-2-5.81-0.96-6.97,2.29c-2.57,7.16-4.93,14.4-5.65,22.05c-0.9,9.53-2.28,19.02-2.37,28.63c-0.04,3.84-0.55,7.7-0.53,11.57
		c0.04,8.67,1.06,17.26,1.91,25.87c0.17,1.75,0.27,3.51,0.2,5.27c-0.25,6.82,0.68,13.56,1.22,20.32c0.33,4.08,0.47,8.18,0.68,12.26
		c0.68,12.98,2.21,25.93,1.68,38.95c-0.32,8.01,1.25,15.85,1.75,23.78c0.13,2.1,0.14,4.21,0.25,6.32c0.46,9.23,1.13,18.46,1.34,27.7
		c0.17,7.49,0.8,14.99,0.58,22.46c-0.15,5.1,0.67,9.99,1.22,14.97c0.4,3.58,0.53,7.27,0.16,10.85c-0.54,5.23-0.75,10.49-1.67,15.7
		c-0.42,2.38-0.33,4.94,0.04,7.35c0.53,3.52-0.61,6.59-2.39,9.3c-2.5,3.8-5.47,7.3-8.29,10.89c-2.51,3.2-5.84,5.27-9.42,7.15
		c-4.95,2.61-10.04,4.98-14.73,8.08c-6.32,4.18-12.64,3.2-18.95,0.04c-1.77-0.89-3.61-1.8-5.09-3.07
		c-4.45-3.82-8.17-8.23-10.79-13.58c-1.89-3.85-3.77-7.73-6.44-11.16c-1.41-1.82-2.58-3.87-2.11-6.41c0.1-0.53-0.1-1.16-0.27-1.7
		c-0.26-0.78-0.57-1.63-1.55-1.71c-1.02-0.09-1.26,0.78-1.68,1.5c-3.35,5.82-6.54,11.75-11.27,16.65c-1.56,1.62-3.15,3-5.47,3.59
		c-2.13,0.54-4.08,1.78-6.2,2.42c-4.57,1.39-9.16,2.88-13.94,0.67c-1.6-0.74-3.36-0.97-5.11-1.16c-7.05-0.76-12.08-4.52-15.5-10.6
		c-1.09-1.94-2.69-3.47-3.79-5.45c-4.45-8.01-7.43-16.64-10.77-25.11c-1.13-2.85-1.49-5.92-1.47-8.96
		c0.04-5.73,0.09-11.46,0.16-17.19c0.17-12.9,3.7-25.08,7.39-37.24c0.62-2.06,2.1-3.87,3.22-5.77c0.71-1.21,1.54-2.36,1.85-3.77
		c1.51-6.85,5.1-12.81,8.23-18.95c3.45-6.77,7.51-13.2,11.17-19.86c2.92-5.32,6.72-10.14,9.96-15.29
		c7.01-11.15,15.9-20.79,24.59-30.56c3.27-3.67,6.36-7.49,9.67-11.12c1.43-1.57,2.6-3.32,3.31-5.34c1.36-3.85,3.42-7.43,4.45-11.42
		c0.37-1.44,1.45-2.64,2.11-4.02c1.64-3.46,3.12-6.95,4.1-10.66c0.37-1.37,0.09-2.49-1.12-2.93c-1.8-0.66-3.71-1.74-5.59-0.05
		c-0.73,0.66-1.69,0.78-2.61,0.95c-2.47,0.44-4.69,1.34-6.32,3.38c-3.18,4.01-7.45,7-10.07,11.62c-1.3,2.31-3.41,4.41-5.01,6.6
		c-4.03,5.53-9.46,10.03-12.14,16.59c-0.81,1.98-2.57,3.6-4.01,5.29c-2.29,2.67-4.63,5.28-6.16,8.49c-0.15,0.31-0.36,0.61-0.61,0.85
		c-4.95,4.75-8.93,10.43-14.21,14.89c-1.58,1.34-2.77,3.16-4.07,4.81c-1.82,2.33-4.09,4.07-6.5,5.78c-2.94,2.08-5.61,4.58-8.28,7.03
		c-2.07,1.9-4.42,3.42-6.59,5.19c-2.36,1.93-4.62,3.92-6.61,6.27c-1.38,1.63-2.95,3.32-5.43,3.33c-0.9,0-1.67,0.5-2.05,1.19
		c-2.01,3.72-5.83,4.95-9.23,6.6c-3.89,1.89-7.14,4.37-9.62,7.89c-0.83,1.18-1.94,1.94-3.26,2.55c-2.77,1.29-5.39,2.82-7,5.62
		c-0.59,1.02-1.55,1.8-2.65,2.25c-4.57,1.91-8.16,5.11-10.86,9.09c-1.79,2.65-3.99,5.1-5.12,8.19c-0.65,1.8-2.42,2.98-2.98,4.73
		c-1.62,5.03-5.29,9.04-6.69,14.21c-0.75,2.77-2.73,5.18-3.71,7.91c-1.73,4.83-4.04,9.34-6.41,13.86c-1.43,2.72-3.22,5.17-4.94,7.67
		c-6.19,8.98-10.78,18.89-16.59,28.1c-2.61,4.14-5.43,8.15-7.33,12.76c-0.73,1.76-2.28,3.46-3.55,5.1
		c-3.86,4.99-7.76,9.95-11.97,14.65c-1.79,2-3.04,4.39-4.91,6.36c-3.91,4.11-7.06,9.01-12.56,11.4c-1.27,0.55-2.47,1.39-3.49,2.33
		c-2.1,1.94-4.71,2.86-7.34,2.95c-3.76,0.13-6.73,1.83-9.67,3.71c-1.63,1.04-3.12,1.29-4.95,0.67c-3.76-1.28-7.59-2.38-11.38-3.57
		c-1.84-0.57-3.59-1.49-4.6-3.09c-2.75-4.36-6.53-7.91-9.11-12.43c-3.21-5.61-5.61-11.63-5.83-17.87
		c-0.22-6.46-0.22-13.11,1.27-19.55c1.08-4.66,1.9-9.32,2.34-14.12c0.47-5.1,0.97-10.24,1.73-15.32c0.33-2.19-0.18-4.44,0.35-6.64
		c0.09-0.38-0.13-0.99-0.42-1.28c-1.7-1.71-1.55-3.91-2.07-6.05c-1.52-6.31-2.86-12.92-8.86-16.97c-1.36-0.92-2.71-1.9-4.38-2.12
		c-2.78-0.37-4.71-1.89-6.08-4.22c-0.72-1.23-1.46-2.45-2.61-3.28c-5.14-3.75-7.03-9.16-7.9-15.12c-0.24-1.62-0.46-3.23-1.17-4.75
		c-1.11-2.39-0.8-4.87,0.13-7.16c0.81-1.98,1.38-3.97,1.66-6.07c0.31-2.36,1.2-4.52,2.17-6.65c2.51-5.53,5.19-10.98,7.59-16.55
		c2.74-6.39,6.08-12.37,10.6-17.68c5.45-6.4,11.25-12.46,17.37-18.23c2.84-2.67,6.37-4.38,9.68-6.24
		c5.32-2.99,10.12-6.73,15.37-9.76c6.28-3.62,12.7-6.99,19.07-10.46c2.05-1.12,4.15-2.15,6.17-3.33c2.67-1.55,5.53-2.49,8.54-3.03
		c5.33-0.96,10.32-2.87,15.2-5.18c1.9-0.9,3.87-1.67,5.87-2.33c8.57-2.83,16.68-6.81,25.12-9.99c3.61-1.36,7.26-2.67,10.96-3.74
		c4.63-1.33,8.84-3.65,13.4-5.17c10.88-3.61,21.74-7.27,32.77-10.38c7.52-2.12,14.9-4.57,22.18-7.47
		c8.13-3.23,15.46-7.65,22.66-12.44c1-0.66,1.91-1.45,2.47-2.46c1.25-2.25,2.95-4.3,3.95-6.61c2.78-6.44,5.73-12.89,7.52-19.62
		c1.42-5.32,1.67-11.07-0.06-16.61c-0.96-3.08-1.21-3.24-4.34-3.47c-3.97-0.28-7.9,0.52-11.87,0.36c-1.02-0.04-2.1,0.27-3.08,0.63
		c-8.98,3.33-18.02,6.52-26.89,10.13c-5.05,2.05-10.03,4.32-14.95,6.71c-4.06,1.96-8.06,4.2-12.43,5.62
		c-3.99,1.29-7.75,3.24-11.46,5.24c-1.64,0.89-3.54,1.27-5.17,2.17c-5.53,3.06-11.44,5.29-17.09,8.09
		c-6.47,3.21-12.69,6.88-19.17,10.1c-7.2,3.58-14.35,7.36-21.67,10.63c-7.96,3.56-15.83,7.47-24.4,9.63
		c-4.15,1.05-8.42,1.71-12.46,2.95c-4.28,1.31-8.55,1.28-12.82,1.49c-3.04,0.15-6.03-0.08-8.76,1.56
		c-4.29-0.75-8.62,0.15-12.87-0.21c-3.41-0.29-6.71-1.68-9.76-3.6c-3.87-2.43-5.61-5.73-5.24-10.21c0.44-5.48,0.88-10.96,1.37-16.44
		c0.31-3.46-0.4-6.61-1.99-9.75c-1.11-2.19-2.45-4.2-3.59-6.34c-2.66-5-4.57-10.45-4.1-16.02c0.33-3.86,1.23-8.15,4.56-11.09
		c1.92-1.7,3.26-3.98,5.47-5.42c0.64-0.42,1.17-1.23,1.41-1.97c1.27-3.99,4.88-5.78,7.69-8.31c0.42-0.38,1.05-0.54,1.5-0.9
		c1.53-1.24,1.69-1.98,0.36-3.48c-3.36-3.79-6.08-7.97-8.53-12.4c-2.37-4.29-2.81-8.79-2.55-13.51c0.32-5.84,1.62-11.55,2.06-17.39
		c0.43-5.62,1.89-10.84,6.69-14.85c3.39-2.84,7.08-5.36,10.18-8.59c1.68-1.75,3.9-2.77,6.57-2.91c2.9-0.16,5.53-1.78,8.49-2.1
		c4.41-0.48,8.78-1.31,13.19-1.85c1.49-0.18,3.06-0.11,4.55,0.13c1.98,0.31,3.94,0.58,5.94,0.26c4.08-0.65,8.15-0.03,12.18,0.33
		c3.96,0.35,7.6,2.21,11.41,3.33c6.18,1.82,12.28,3.87,18.51,5.52c3.16,0.84,6.01,2.45,8.93,3.98c4.68,2.45,8.94,5.52,13.49,8.14
		c1.43,0.82,2.56,2.05,4.08,2.69c3.24,1.37,6.44,2.8,10.14,2.16c1.24-0.21,2.61-0.11,3.84,0.17c5.16,1.16,10.28,0.2,15.37-0.31
		c7.21-0.73,14.41-1.66,21.56-2.81c5.64-0.9,11.24-2.05,16.77-3.55c4.63-1.25,9.34-2.2,13.99-3.37c3.76-0.95,7.35-2.55,10.71-4.36
		c3.94-2.12,8.09-3.7,12.12-5.56c3.95-1.82,7.71-4.03,11.16-6.58c6.11-4.51,12.6-8.5,18.56-13.2c5.51-4.34,11.18-8.47,16.69-12.8
		c4.86-3.82,9.72-7.64,14.86-11.1c2.33-1.57,4.64-3.17,6.88-4.86c4.48-3.38,9.52-5.79,14.41-8.47c4.12-2.25,8.31-4.37,12.68-5.98
		c7.21-2.65,14.32-5.69,21.87-7.34c1.26-0.27,2.67-0.4,3.48-1.51c2.53-3.5,6.45-4.72,10.21-5.74c4.69-1.28,9.46-2.82,14.49-2.04
		c0.23,0.03,0.49,0.03,0.7-0.06c4.24-1.73,8,0.17,11.83,1.53c1.1,0.39,2.21,0.85,3.35,1c1.87,0.25,3.36,0.91,4.24,2.68
		c0.67,1.34,1.9,2.06,3.23,2.56c3.11,1.18,5.83,2.86,7.83,5.63c0.88,1.22,1.95,2.34,3.49,2.84c0.94,0.3,1.51,1.05,1.94,1.93
		c1.62,3.38,3.79,6.5,5.34,9.84c2.88,6.22,5.02,12.72,6.11,19.63c1.2,7.54,1.41,15.12,2.14,22.68c0.43,4.49,1.21,9.05,0.43,13.62
		c-0.17,1.02-0.19,2.16,0.1,3.13c0.41,1.39,0.58,2.67,0.24,4.1c-0.5,2.06,0.47,3.91,1.21,5.75c0.71,1.74,1.56,3.48,1.22,5.41
		c-0.63,3.51,0.93,6.4,2.54,9.25c1.16,2.04,2.33,4.06,3.33,6.18c0.64,1.36,1.49,2.6,2.59,3.71c2.48,2.52,3.64,5.96,5.84,8.72
		c2.39,3,4.6,6.14,6.92,9.19c4.76,6.26,10.48,11.61,15.74,17.37c4.16,4.56,8.52,8.98,12.89,13.36c2.86,2.86,5.62,5.9,8.13,9.14
		c3.51,4.51,7.03,9.02,10.57,13.5c2.93,3.72,4.62,8.05,6.78,12.16c2.66,5.06,5.43,10.07,7.85,15.24c1.73,3.69,3.11,7.52,3.09,11.79
		c-0.01,3.84,0.31,7.68,0.01,11.53c-0.04,0.58-0.17,1.28,0.07,1.74c2.24,4.23-0.31,7.51-2.06,10.97c-0.95,1.88-2.28,3.56-2.9,5.61
		c-0.24,0.78-0.68,1.57-0.66,2.35c0.13,4.85-3.27,7.33-6.7,9.48c-3.86,2.42-7.81,4.66-11.6,7.23c-4.16,2.84-8.73,4.35-14.23,3.36
		c-3.31-0.59-6.28-2.08-9.6-2.51c-2.39-0.31-4.49-1.87-6.43-3.46C521.65,427.65,519.69,426.39,517.43,424.78z"/>
</g>
</svg>
