<?xml version="1.0" encoding="utf-8"?>
<!-- Generator: Adobe Illustrator 26.0.3, SVG Export Plug-In . SVG Version: 6.00 Build 0)  -->
<svg version="1.1" id="Layer_1" xmlns="http://www.w3.org/2000/svg" xmlns:xlink="http://www.w3.org/1999/xlink" x="0px" y="0px"
	 viewBox="0 0 612 792" style="enable-background:new 0 0 612 792;" xml:space="preserve">
<g>
	<path d="M210.77,684.28c-6.43-0.17-14.58-0.5-22.6-1.84c-3.29-0.55-6.45-2.09-9.54-3.47c-1.35-0.6-2.63-1.08-4.08-1.25
		c-2.91-0.33-5.62-1.34-8.11-2.86c-2.47-1.5-4.91-2.92-7.75-3.77c-2.58-0.78-4.27-3.04-5.53-5.35c-2.07-3.81-4.65-7.23-7.31-10.63
		c-2.17-2.78-3.83-5.95-6.44-8.4c-0.35-0.33-0.45-0.93-0.62-1.43c-2.69-7.68-6.55-14.81-10.29-21.99
		c-2.7-5.19-5.96-10.17-7.46-15.85c-1.31-4.95-2.95-9.76-4.74-14.52c-3.7-9.83-7.74-19.51-12.58-28.85
		c-5.69-10.97-10.13-22.5-14.36-34.1c-2.34-6.42-4.34-12.98-7.04-19.24c-2.33-5.4-3.82-11.16-6.87-16.25
		c-0.48-0.8-1.01-1.72-0.57-2.6c1.47-2.94,0.25-5.68-0.6-8.38c-2.64-8.4-5.03-16.86-7.46-25.32c-1.41-4.94-2.18-10-3.46-14.97
		c-2.48-9.64-4.72-19.35-6.74-29.1c-1.35-6.54-2.79-13.07-3.95-19.66c-0.75-4.24-2.04-8.38-2.49-12.7
		c-0.59-5.6-1.83-11.13-2.01-16.78c-0.12-3.84-0.81-7.57-1.67-11.28c-0.55-2.35-0.61-4.65-0.23-7.03c0.65-4.04,0.55-8.05-0.02-12.15
		c-0.73-5.31-1.1-10.67,0.7-15.99c0.87-2.56,0.92-5.42,1.19-8.16c0.8-8.26,2.72-16.26,4.81-24.28c1.38-5.29,2.36-10.69,3.22-16.14
		c1.09-6.94,1.36-14.03,3.87-20.84c1.54-4.17,2.97-8.62,3.24-13.32c0.19-3.28,0.4-6.65,2.08-9.85c1.23-2.33,1.84-5.18,1.77-8.01
		c-0.03-1.04,0.07-2.15,0.44-3.11c3.05-7.86,4.82-16.06,6.65-24.24c0.75-3.35,2.86-6.2,3.55-9.59c0.98-4.87,2.53-9.59,3.8-14.38
		c2.16-8.1,4.6-16.08,8.47-23.54c2.05-3.96,2.88-8.43,5.35-12.23c0.78-1.2,1.46-2.45,2.32-3.62c2.08-2.84,4.54-5.36,6.18-8.58
		c1.55-3.04,4.25-5.29,7.03-7.32c2.42-1.77,4.91-3.41,6.81-5.84c3.31-4.24,7.92-7.09,12.57-9.31c8.44-4.03,16.76-8.54,26.55-9.04
		c5.06-0.26,10.07-1.65,15.08-2.67c2.07-0.42,3.76-0.13,5.57,1.04c3.08,1.99,6.25,3.81,9.65,5.29c3.9,1.69,6.79,4.9,9.65,7.96
		c5.69,6.08,8.44,13.77,11.57,21.28c4.43,10.63,4.5,21.46,2,32.47c-0.26,1.14-0.6,2.3-1.13,3.34c-2.57,5-4.14,10.44-7.22,15.25
		c-1.72,2.69-2.3,6.11-3.71,9.09c-6.87,14.49-14.76,28.31-24.5,41.16c-4.6,6.06-9.18,12.12-14.18,17.84
		c-3.27,3.74-6.86,7.22-9.84,11.22c-1.15,1.54-3.31,3.04-2.79,4.95c0.58,2.15,3.19,1.12,4.88,1.42c4.4,0.78,8.18,2.19,10.88,6.21
		c1.11,1.65,2.67,3.16,3.89,4.84c0.94,1.3,1.59,2.73,1.66,4.36c0.06,1.34,0.18,2.61,1.37,3.53c0.68,0.53,0.67,1.36,0.72,2.16
		c0.31,4.79-0.97,9.31-2.33,13.81c-0.2,0.66-0.81,0.99-1.38,1.34c-1.23,0.73-1.45,1.78-0.85,3.04c0.41,0.85,0.89,1.86,0.12,2.58
		c-2.11,1.98-1.89,4.79-2.6,7.2c-0.85,2.92-2.03,5.68-3.1,8.49c-3.16,8.33-6.34,16.65-9.59,24.95c-2,5.13-4.37,10.12-6.17,15.32
		c-2.4,6.92-5.05,13.78-5.97,21.15c-0.53,4.28-1.27,8.56-2.06,12.78c-1.19,6.28-1.19,12.54-1.28,18.83
		c-0.07,5.39,0.09,10.77,0.08,16.16c-0.01,4.74,0.06,9.44,1.18,14.1c0.45,1.88,0.38,3.92,0.32,5.89c-0.24,8.59,0.78,16.96,3,25.32
		c3.03,11.41,5.58,22.99,9.91,33.95c4.17,10.57,8.4,21.14,14.19,31.06c2.4,4.11,4.76,8.41,6.66,12.88c1.66,3.9,4.26,7.25,7.54,9.98
		c2.55,2.12,5.26,3.53,8.61,1.47c0.74-0.45,1.77-0.43,2.66-0.65c0.78-0.19,1.78-0.47,1.91-1.22c0.54-3.06,2.08-5.75,2.49-8.94
		c0.91-7.11-1.31-13.96-0.9-20.97c0.04-0.64-0.05-1.35-0.3-1.94c-1.69-3.92-1.22-7.97-0.84-12.02c0.05-0.52,0.21-1.06,0.13-1.57
		c-1.22-7.77-1.2-15.71-3.3-23.36c-0.8-2.91-1.3-5.84-1.52-8.87c-0.48-6.51-1.67-12.94-3.75-19.14c-1.3-3.87-1.6-7.94-2.4-11.9
		c-0.6-2.96-1.58-5.8-2.15-8.76c-1.43-7.46-2.26-15.02-3.59-22.5c-0.76-4.31-1.78-8.67-1.56-13.16c0.21-4.22-1.22-8.28-1.79-12.43
		c-0.47-3.39-0.68-6.81-0.88-10.19c-0.23-3.96-1.04-7.73-2.19-11.46c-0.3-0.97-0.02-1.8,0.1-2.7c0.44-3.43,0.48-6.89,1.64-10.25
		c1.33-3.86,1.16-7.98,1.28-12.02c0.11-3.53,0.99-6.68,2.59-9.96c2.02-4.15,3.92-8.62,3.38-13.55c-0.06-0.51-0.13-1.19,0.13-1.54
		c2.12-2.83,2.81-6.37,4.87-9.3c2.05-2.91,3.98-6.09,6.78-8.01c3.13-2.14,6.25-4.81,9.75-5.97c4.21-1.4,6.57-5.06,10.41-6.76
		c1.13-0.51,1.07-2.85,1.33-4.29c1.12-6.26,2.89-12.36,4.05-18.61c1.39-7.46,2.07-14.85,2.01-22.43
		c-0.05-6.27,0.74-12.56,1.33-18.83c0.24-2.51,0.47-4.94-0.15-7.43c-0.48-1.92-0.43-3.84,0.07-5.83c1.89-7.44,3.4-14.89,3.07-22.7
		c-0.16-3.99,1.01-8.05,1.7-12.05c0.47-2.72,1.11-5.41,1.18-8.19c0.09-3.75,1.73-7.14,2.74-10.63c2.18-7.54,4.9-14.92,7.52-22.32
		c1.2-3.37,3.59-6.18,5.84-8.77c2.86-3.29,5.28-6.89,7.54-10.48c2.82-4.48,6.63-7.75,10.5-11.05c2.81-2.39,5.63-4.65,7.47-7.97
		c1.73-3.11,4.8-4.87,7.85-6.37c2.43-1.2,4.94-2.29,7.61-3.09c2.86-0.87,5.65-2.26,8.28-3.89c2.4-1.5,4.85-3.06,8.06-2.26
		c2.03,0.5,4.08-0.55,6.22-0.54c3.94,0.02,7.86-0.11,11.71,0.96c0.75,0.21,1.89,0.57,2.28,0.22c2.4-2.13,4.93-0.85,7.44-0.56
		c1.31,0.15,2.65,0.18,3.89-0.35c2.35-0.99,4.22,0.04,5.63,1.67c1.73,2,3.47,4.08,5.58,5.52c2.83,1.94,5.06,4.07,6.41,7.27
		c0.4,0.95,1.56,1.71,2.29,2.65c5.09,6.5,8.41,13.88,10.23,21.85c1.37,6.01,3.61,11.82,4.2,18.01c0.5,5.23,0.86,10.47,1.46,15.69
		c0.73,6.31,0.64,12.54-0.69,18.79c-0.82,3.85-0.35,7.84-0.6,11.76c-0.33,5.18-1.75,10.08-2.83,15.04
		c-1.34,6.14-2.71,12.29-3.61,18.49c-0.56,3.83-1.65,7.48-3.1,10.92c-1.63,3.85-2.84,7.89-4.79,11.6c-1.04,1.98-1.75,4.1-2.55,6.18
		c-2.43,6.37-4.48,12.97-7.65,18.96c-2.4,4.54-3.67,9.48-6,13.93c-1.81,3.45-3.62,6.95-5.24,10.47c-2.64,5.73-7.23,10.34-9.46,16.09
		c-2.77,7.12-7.2,12.92-11.56,18.99c-5.29,7.36-10.78,14.46-17.19,20.87c-3.09,3.09-6.96,5.13-10.22,8
		c-2.64,2.32-5.38,4.44-7.73,7.14c-2.35,2.69-5.16,4.87-8.76,6.36c-3.19,1.31-6.87,2.63-9.07,5.88c-0.48,0.72-1.38,1.41-2.21,1.59
		c-3.23,0.73-3.15,3.05-2.87,5.51c0.62,5.38,2.41,10.5,4.02,15.61c1.85,5.86,3.49,11.79,5.41,17.62c2.05,6.22,3.48,12.64,6.3,18.63
		c1.42,3.01,3.22,5.72,5.14,8.37c1.73,2.39,4.79,3.06,7.13,4.7c0.7,0.49,1.75,0.68,2.53-0.2c0.47-0.53,1.12-0.87,1.76-0.62
		c3.13,1.19,5-0.7,6.86-2.69c0.27-0.29,0.52-0.73,0.85-0.8c5.27-1.13,6.04-7.01,10.04-9.46c0.9-4,4.51-6.27,6.25-9.71
		c2.41-4.78,6.05-8.54,9.93-12.03c1.43-1.28,2.1-2.94,3.3-4.3c4.78-5.39,9.92-10.35,15.4-15.04c4.44-3.8,9.13-7.42,12.44-12.46
		c1.18-1.8,3.21-3.07,4.94-4.47c2.16-1.74,3.7-4.22,5.75-5.82c3.95-3.09,6.71-7.28,10.71-10.3c3.64-2.74,7.4-5.45,10.37-9
		c1.04-1.24,2.46-1.93,3.7-2.88c6.37-4.87,13.34-8.81,20.43-12.4c5.94-3.01,11.97-5.98,18.27-8.29c1.42-0.52,2.84-0.41,4.26-0.65
		c3.62-0.62,6.86-2.42,10.44-3.28c2.79-0.67,5.61-1.26,8.42-1.74c5.25-0.9,10.64-1.07,15.82-2.24c3.33-0.75,6.72-1.03,10-1.82
		c4.55-1.1,9.1,0.22,13.66-0.51c9.07-1.46,17.95,0.53,26.83,2.01c2.16,0.36,4.23,1.37,6.28,2.23c2.55,1.08,5.12,1.98,7.84,2.58
		c2.77,0.61,4.77,2.69,6.96,4.32c4.42,3.31,9.01,6.26,14.27,8.13c3.18,1.14,6.38,2.39,7.61,6.21c0.35,1.09,1.67,2.12,2.79,2.66
		c2.94,1.4,4.65,4.22,7.31,5.93c0.5,0.32,0.88,1,1.09,1.59c1.44,4.25,4.48,7.28,7.58,10.3c1.41,1.37,2.83,2.82,3.62,4.64
		c3.08,7.11,6.98,13.84,9.68,21.13c0.32,0.86,0.58,1.81,1.14,2.49c2.76,3.32,2.68,7.31,2.67,11.22c-0.01,6.93-0.91,13.86-0.22,20.78
		c0.34,3.38-1.8,5.94-2.54,8.96c-0.64,2.64-2.34,4.96-3.07,7.63c-0.14,0.49-0.34,1.1-0.71,1.38c-4.09,3-6.18,7.73-9.73,11.2
		c-1.8,1.76-3.8,3.15-6.13,4.18c-3.82,1.68-7.77,3.07-11.76,4.18c-2.56,0.71-5.28,0.99-8.1,0.75c-7.23-0.63-13.59-3.59-19.93-6.74
		c-0.35-0.17-0.66-0.47-1.03-0.57c-3.75-0.96-6.26-3.27-8.31-6.57c-1.83-2.96-5.53-3.85-8.25-5.87c-5.35-3.98-11.4-6.93-16.48-11.32
		c-0.69-0.6-1.45-1.22-2.28-1.52c-6.08-2.22-11.33-6.07-17.21-8.68c-7-3.1-14.38-4.91-21.91-6.13c-1.44-0.23-2.83,0.12-4.24,0.59
		c-3.34,1.11-6.77,1.82-10.28,2.35c-3.3,0.49-6.5,1.77-9.69,2.87c-3.59,1.23-6.52,3.88-10.25,4.85c-0.12,0.03-0.29,0.08-0.35,0.18
		c-2.51,4.3-8.44,5.04-10.24,10.37c-0.95,2.8-3.47,5.11-5.42,7.53c-1.03,1.28-1.57,2.67-1.99,4.22c-0.62,2.28-1.29,4.58-3.43,6.03
		c-0.69,0.46-0.82,1.3-1.15,2.01c-1.08,2.32-1.28,5.19-3.97,6.54c-0.1,0.05-0.18,0.2-0.23,0.31c-3.49,8.85-11.47,13.55-18.04,19.56
		c-3.08,2.82-6.04,5.77-9.63,7.98c-1.34,0.83-2.66,1.69-4,2.5c-6.39,3.87-13.35,6.54-20.1,9.66c-7.18,3.32-14.44,6.53-21.26,10.69
		c-2.99,1.82-5.58,4.17-8.65,5.82c-0.34,0.18-0.8,0.48-0.85,0.78c-0.72,4.16-5.43,5.6-6.53,9.54c-0.2,0.72-1.37,1.14-2.04,1.77
		c-2.55,2.39-3.35,5.99-2.11,9.27c0.37,0.98,0.66,1.99,1.02,2.98c0.27,0.73,0.43,1.54,1.19,1.97c4.64,2.63,9.46,4.59,14.92,3.25
		c4.19-1.03,8.34-2.2,12.48-3.41c3.06-0.89,5.71-2.74,8.33-4.4c5.65-3.58,11.7-5.89,18.17-7.28c4.36-0.93,8.54-2.5,12.91-3.45
		c5.42-1.19,10.85-1.75,16.38-2.08c13.6-0.81,26.64,2.03,39.4,6.08c9.17,2.91,17.55,7.66,25.09,13.74c2.14,1.72,4.55,2.98,7,4.27
		c4.31,2.28,7.76,5.81,11.09,9.34c4.79,5.08,8.43,10.99,12.13,16.89c5.04,8.03,9.28,16.4,12.08,25.44c2.94,9.5,5.24,19.16,6.5,29.07
		c0.89,6.94,0.66,13.8,0.13,20.74c-0.38,4.97-0.95,9.83-2.56,14.56c-0.43,1.25-0.32,2.67,0.1,3.9c0.84,2.46,0.04,4.67-0.74,6.89
		c-1.09,3.09-2.23,6.16-2.43,9.46c-0.07,1.1-0.52,2-1.03,2.93c-2.74,5.07-6.05,9.82-8.03,15.3c-0.92,2.55-2.65,4.49-5.08,5.81
		c-3.15,1.71-5.33,4.66-8.28,6.65c-0.86,0.58-1.54,1.59-2.59,1.73c-4,0.56-7.21,3.01-10.87,4.34c-2.19,0.8-4.39,1.37-6.88,0.64
		c-2.09-0.61-4.5,0.36-6.59-0.58c-5.36-2.43-10.85-4.55-16.35-6.64c-0.83-0.31-1.53-1-2.25-1.56c-0.41-0.32-0.68-0.84-1.12-1.1
		c-7.25-4.29-11.09-11.66-16.23-17.86c-1.45-1.76-2.55-3.58-3.5-5.62c-1.58-3.38-2.16-6.88-2.67-10.57
		c-0.66-4.78-1.96-9.5-2.38-14.33c-0.42-4.76-1.59-9.47-0.13-14.39c0.73-2.44,0.16-5.33,0.23-8.02c0.07-2.57-1.51-4.55-4.33-5.41
		c-3.13-0.96-6.22-2.07-9.32-3.1c-5.72-1.9-9.48-6.02-12.78-10.58c-3.91-5.4-7.38-11.12-10.51-17.03
		c-2.05-3.86-6.45-5.18-11.38-3.34c-3.17,1.19-6.26,2.53-9.13,4.51c-7.36,5.09-14.35,10.56-20.3,17.29
		c-2.43,2.75-4.65,5.69-6.83,8.61c-4.9,6.55-11.34,11.64-16.43,17.98c-1.4,1.74-3.14,3.13-5.03,4.38c-2.49,1.65-5.17,3.17-6.61,6.03
		c-0.22,0.44-0.69,0.86-1.15,1.04c-3.46,1.38-5.84,4.59-9.53,5.6c-0.72,0.2-1.44,0.7-1.97,1.25c-4.09,4.27-9.77,5.45-14.99,7.03
		c-7.35,2.22-15.11,3.07-22.55,5.03C226.29,683.23,219.45,684.07,210.77,684.28z"/>
</g>
</svg>
