<?xml version="1.0" encoding="utf-8"?>
<!-- Generator: Adobe Illustrator 26.0.3, SVG Export Plug-In . SVG Version: 6.00 Build 0)  -->
<svg version="1.1" id="Layer_1" xmlns="http://www.w3.org/2000/svg" xmlns:xlink="http://www.w3.org/1999/xlink" x="0px" y="0px"
	 viewBox="0 0 612 792" style="enable-background:new 0 0 612 792;" xml:space="preserve">
<g>
	<path d="M375.2,317.9c-2.23-4.08-1.53-8.93-3.5-13.05c-2.69-5.63-2.2-11.9-3.52-17.8c-0.85-3.83-1.85-7.64-2.68-11.47
		c-0.86-3.97-1.06-8.09-2.32-11.97c-1.77-5.47-2.38-11.18-3.78-16.72c-0.71-2.8-0.68-5.71-0.97-8.55
		c-0.45-4.28-1.58-8.44-2.01-12.74c-0.33-3.36-1.22-6.78-1.35-10.22c-0.21-5.45-0.56-10.9-0.62-16.37
		c-0.09-7.24,2.25-14.22,1.59-21.48c-0.16-1.71,0.64-3.5,0.99-5.25c1.17-5.97,2.27-11.95,3.53-17.9c0.54-2.57,1.33-5.09,2.63-7.42
		c1.34-2.4,2.35-4.95,3.01-7.64c0.2-0.8,0.37-1.75,0.9-2.31c2.88-3.08,4.76-6.82,7.09-10.27c1.57-2.32,3.38-4.34,5.63-6
		c0.87-0.64,1.85-1.21,2.52-2.02c3.23-3.85,7.24-4.83,12.14-4.24c4,0.48,7.51,1.63,10.9,3.8c2.4,1.54,4.96,2.79,7.13,4.7
		c4.86,4.29,8.03,9.79,10.81,15.48c1.98,4.07,3.91,8.24,4.66,12.8c0.23,1.41,0.66,2.83,1.27,4.12c2.15,4.53,2.88,9.39,3.27,14.28
		c0.37,4.59,1.93,8.89,2.71,13.37c1.33,7.66,2.87,15.29,3.25,23.08c0.06,1.31,0.36,2.61,0.52,3.91c0.95,7.72,1.44,15.48,2.18,23.21
		c0.59,6.21,0.82,12.42,1.3,18.63c0.28,3.59,0.55,7.18,0.18,10.78c-0.35,3.4,0.98,6.63,0.95,9.99c-0.02,2.97-0.26,6.06,0.26,8.87
		c0.79,4.29,0.42,8.51,0.61,12.75c0.01,0.2,0.24,0.38,0.55,0.83c1.44-1.38,1.55-3.2,1.61-4.83c0.36-9.29,2.73-18.25,4.71-27.22
		c1.66-7.57,2.84-15.28,5.07-22.69c2.14-7.08,4.28-14.19,6.92-21.14c2.08-5.48,4.4-10.87,7.67-15.67c2.71-3.98,5.13-8.21,8.87-11.53
		c4.47-3.97,8.29-8.69,13.55-11.72c2.57-1.49,5.29-2.74,7.97-4.03c4.76-2.28,9.64-0.98,14.5-0.44c2.97,0.33,5.24,1.85,7.69,3.43
		c6.84,4.41,9.9,11.44,13.47,18.19c1.22,2.31,3.1,4.3,4.18,6.67c2.45,5.39,5.53,10.73,3.54,17.09c-0.21,0.67-0.41,1.45-0.28,2.12
		c1.1,5.46,0.7,11.02,0.84,16.5c0.15,6.03,0.09,12.1-1.28,18.17c-1.87,8.29-3.46,16.67-5.98,24.78c-2.54,8.2-4.62,16.58-8.85,24.21
		c-1.97,3.55-3.17,7.5-4.74,11.26c-3.23,7.77-7.45,15.03-11.15,22.55c-4.82,9.78-10.32,19.18-15.85,28.56
		c-2.07,3.5-4.55,6.77-6.51,10.33c-3.69,6.71-7.05,13.61-10.71,20.35c-5.33,9.8-11.76,18.89-18.33,27.9
		c-5.85,8.02-11.82,15.98-15.96,25.11c-1.23,2.72-2.98,5.15-4.96,7.44c-3.91,4.52-7.45,9.29-10.67,14.37
		c-1.82,2.87-3.76,5.8-6.25,8.36c-1.99,2.04-3.72,4.69-5.12,7.19c-2.71,4.82-6.37,8.94-9.15,13.72c-2.18,3.74-4.43,7.63-7.59,10.77
		c-0.87,0.86-1.3,1.98-1.92,3c-2.68,4.39-4.8,9.12-8.52,12.87c-1.45,1.47-2.66,3.32-3.91,5.04c-3.75,5.12-6.82,10.64-10.32,15.89
		c-1.85,2.77-3.96,5.4-5.56,8.34c-4.44,8.12-10.59,15.03-15.77,22.63c-5.6,8.2-11.78,16-17.25,24.3c-1.64,2.49-3.69,4.72-5.5,7.1
		c-6.15,8.09-12.51,16.01-18.22,24.45c-3.04,4.5-6.14,9.18-10.57,12.63c-0.83,0.65-1.42,1.62-2.13,2.42
		c-6.98,7.89-13.73,15.99-21.43,23.22c-0.62,0.58-1.11,1.23-1.53,1.97c-1.29,2.3-3.52,2.91-5.07,0.96
		c-1.62-2.04-3.49-2.59-5.83-2.76c-1.15-0.09-2.37-0.49-3.15-1.54c-3.01-4.01-6.9-7.14-10.37-10.69c-4.68-4.79-9.9-9.07-13.95-14.47
		c-1.34-1.78-3.03-3.04-4.94-4.07c-2.91-1.57-5.26-3.7-7.1-6.47c-1.67-2.53-4.43-3.95-6.54-6.05c-0.51-0.5-1.22-0.83-1.65-1.38
		c-3.92-5.05-8.61-9.27-13.6-13.22c-4.35-3.45-7.31-8.24-11.21-12.12c-3.13-3.11-6.27-6.27-9.74-8.99c-3.84-3-6.66-6.82-9.75-10.45
		c-0.62-0.72-0.97-1.82-1.73-2.25c-3.02-1.74-4.66-4.74-6.96-7.12c-3.89-4.03-7.54-8.31-12.17-11.61c-1.69-1.21-2.75-3.29-4.21-4.87
		c-5.27-5.71-10.72-11.26-15.83-17.11c-3.7-4.23-7.14-8.7-11.3-12.5c-4.06-3.71-7.17-8.28-11.07-12.08
		c-3.37-3.28-6.48-6.66-8.77-10.77c-0.17-0.31-0.41-0.64-0.71-0.8c-3.4-1.87-4.23-5.66-6.41-8.42c-3.46-4.39-4.58-10.01-8.05-14.34
		c-0.44-0.55-0.8-1.24-0.98-1.91c-1.32-4.97-2.37-10.01-4.69-14.67c-0.48-0.96-0.07-2.36-0.09-3.56c-0.04-2.36,0.07-4.63-0.86-7.02
		c-1.14-2.91-0.23-5.91,1.74-8.45c0.5-0.65,1.19-1.13,1.43-2.02c1.82-6.67,6.59-11.22,11.28-15.9c3.36-3.35,7.51-4.36,11.84-5.23
		c1.76-0.35,3.58-0.55,5.26-1.13c3.37-1.16,6.85-0.42,10.26-0.65c1.6-0.11,3.51,0.96,4.9,2c3.09,2.32,6.42,4.17,9.84,5.9
		c4.43,2.24,7.34,6.18,10.51,9.7c8.58,9.54,16.47,19.68,23.42,30.47c2.84,4.42,5.78,8.81,8.31,13.46c1.12,2.06,2.92,3.78,4.57,5.5
		c4.41,4.6,8.26,9.62,11.44,15.14c1.16,2.02,3.01,3.4,4.41,5.2c3.17,4.06,6.51,7.99,9.87,11.9c2.44,2.84,5.6,4.87,8.74,6.79
		c1.85,1.13,3.74,2.29,5.25,3.72c2.38,2.23,5.45,2.93,8.1,4.51c2.16,1.28,3.26,0.41,3.23-2.24c-0.02-1.67,0.09-3.37-0.67-4.95
		c-1.9-3.98-3.19-8.26-6.13-11.73c-2.17-2.55-3.23-5.92-5.64-8.31c-4.01-3.97-6.56-9.13-10.75-12.94c-0.52-0.48-0.97-1.08-1.31-1.7
		c-3.49-6.41-8.57-11.45-13.71-16.51c-5.45-5.36-11.43-10.19-16.02-16.42c-1.53-2.08-3.64-3.79-5.66-5.45
		c-1.59-1.31-2.98-2.84-4.16-4.43c-4.07-5.49-9.06-10.2-13.19-15.63c-1.81-2.39-3.53-4.83-5.15-7.36c-1.42-2.22-2.78-4.48-4.76-6.28
		c-0.52-0.48-1.04-1.05-1.33-1.68c-2.01-4.37-5.1-8.09-7.42-12.27c-1.75-3.17-3.82-6.13-6.16-8.83c-3.67-4.25-5.98-9.25-8.23-14.26
		c-1.43-3.18-3.33-6.11-4.71-9.3c-3.64-8.41-7.93-16.6-8.85-25.93c-0.16-1.61-0.89-2.97-1.33-4.46c-1.48-5.03-2.61-10.18-4.79-14.99
		c-0.91-2.02-1.38-4.2-0.86-6.31c0.9-3.67-0.07-7.21-0.8-10.64c-0.68-3.18-1.48-6.24-1.01-9.49c0.61-4.22-0.88-8.33-0.68-12.5
		c0.17-3.56,0.73-7.13,1.74-10.56c0.73-2.47,2.9-4.16,4.55-5.92c2.8-3,6.05-5.84,10.48-6.38c4.38-0.54,8.82-1.18,13.11,0.35
		c2.66,0.95,4.24-0.01,6.36-1.65c3.26-2.53,4.99-6.05,7.23-9.19c2.4-3.37,5.51-4.74,9.32-5.06c2.85-0.24,5.67-0.83,8.47-1.12
		c2.81-0.29,5.65,0.18,8.3,2.29c7.95,6.32,13.08,14.52,17.07,23.61c0.73,1.67,1.63,3.22,2.64,4.68c4.2,6.03,6.61,12.92,9.58,19.54
		c1.81,4.02,3.05,8.33,5.84,11.88c1.65,2.1,2.07,4.8,3.15,7.17c2.23,4.86,4.32,9.85,5.79,15.04c0.71,2.52,1.65,4.98,2.6,7.42
		c0.92,2.37,1.48,4.76,1.73,7.31c0.36,3.72,1.96,7.18,3.31,10.58c0.99,2.49,1.56,5.01,2.13,7.54c1.17,5.13,2.54,10.19,4.05,15.25
		c1.36,4.56,2.29,9.29,3.31,13.97c0.9,4.13,2.48,7.98,3.85,11.93c1.3,3.73,2.88,7.35,4.08,11.11c2.1,6.55,4.89,12.74,8.69,18.48
		c1.85,2.8,2.37,6.24,4.23,9.08c1.57,2.4,2.45,5.2,3.79,7.71c1.74,3.26,4.15,6.16,6.81,8.74c2.11,2.05,5.9,0.7,6.35-2.31
		c0.66-4.34,1.3-8.75-0.72-12.98c-1.31-2.73-1.38-5.79-2.22-8.62c-0.89-2.98-1.95-5.91-2.65-8.94c-0.81-3.51-1.63-6.96-3.9-9.95
		c-1.15-1.52-1.28-3.58-1.28-5.53c0-1.33-0.05-2.63-0.99-3.73c-1.46-1.69-2.08-3.75-2.42-5.91c-0.49-3.08-1.46-5.88-3.01-8.68
		c-3.31-5.95-5.76-12.33-8.32-18.64c-3.05-7.51-5.04-15.37-8.16-22.86c-2.2-5.27-4.13-10.65-6.88-15.69
		c-0.34-0.63-0.62-1.36-1.14-1.81c-2.46-2.15-3.2-5.09-3.79-8.08c-0.24-1.21-0.75-2.24-1.38-3.28c-1.68-2.76-3.02-5.63-3.71-8.87
		c-0.64-3.02-1.64-6.05-2.99-8.83c-2.09-4.32-2.43-9.29-5.24-13.3c-0.66-0.94-0.46-2.09-0.69-3.13c-1.14-5.14-2.87-10.12-4.52-15.11
		c-2.82-8.52-5.41-17.08-7.54-25.81c-1.36-5.57-2.74-11.17-4.96-16.48c-0.91-2.18-0.82-4.48-1.04-6.71
		c-0.3-3.03-1.13-5.88-2.02-8.73c-1.25-4-2.51-7.96-2.72-12.21c-0.08-1.5-0.69-3.05-1.35-4.44c-0.98-2.04-1.15-4.21-0.92-6.31
		c0.44-4,0.15-8.04,0.99-12.01c0.28-1.35,0.14-2.76,0.02-4.19c-0.35-4.28,0.68-8.1,4.45-11.03c3.17-2.47,5.97-5.44,8.97-8.15
		c3.34-3.02,7.4-3.68,11.37-3.28c5.83,0.6,10.75,3.04,14.4,8.3c3.45,4.96,6.47,10.07,8.65,15.63c1.43,3.65,2.41,7.51,3.29,11.34
		c1.51,6.54,3.73,12.88,5.37,19.38c2.65,10.56,5.92,20.96,8.16,31.63c0.71,3.36,1.72,6.66,3.5,9.73c2.09,3.6,3.19,7.69,4.76,11.55
		c1.44,3.54,3.43,6.84,4.53,10.5c2.43,8.09,7.31,15.26,9.05,23.56c1.27,6.1,3.88,11.78,5.03,17.92c0.58,3.09,2.47,5.94,3.8,8.88
		c0.74,1.64,1.19,3.35,1.69,5.07c0.9,3.18,2.12,6.29,3.21,9.43c2.66,7.68,6.35,14.95,9.44,22.46c1.94,4.73,3.75,9.54,6.35,13.94
		c2.55,4.32,5.34,8.5,8.07,12.72c2.37,3.66,5.1,7.12,6.87,11.13c1.81,4.1,5.41,6.61,8.31,9.71c0.97,1.03,1.77,2.23,2.83,3.17
		c1.17,1.04,2.3,0.9,2.8-0.58c0.57-1.68,1.08-3.48,1.11-5.24c0.08-4.65-0.57-9.24-2.09-13.65c-1.17-3.39-2.61-6.7-2.79-10.36
		c-0.05-1.11-0.35-2.21-1.08-3c-1.52-1.63-2.26-3.69-3.11-5.63c-2.51-5.69-5.19-11.29-8.61-16.47c-2.64-3.99-4.93-8.18-7.38-12.27
		c-0.43-0.72-1.01-1.44-1.15-2.22c-1.42-7.61-5.09-14.36-8.12-21.35c-0.28-0.65-0.53-1.4-1.01-1.88c-3.54-3.5-4.7-8.29-6.88-12.52
		c-0.65-1.26-0.78-2.79-2-3.76c-0.26-0.21-0.49-0.6-0.51-0.92c-0.36-6.02-3.62-11.06-5.6-16.52c-1.26-3.49-2.25-7.1-3.66-10.47
		c-2.56-6.13-2.82-12.79-5.17-19c-1.53-4.04-3.37-8.19-3.72-12.68c-0.57-7.46-3.71-14.33-5.01-21.62c-0.34-1.88-0.28-3.83-0.63-5.7
		c-1.13-6.11-2.38-12.2-3.56-18.3c-0.59-3.07-0.58-6.18-0.63-9.29c-0.04-3.2-0.22-6.4-0.37-9.59c-0.18-3.84-0.21-7.66-0.05-11.49
		c0.18-4.04,0.43-8.07,0.48-12.11c0.02-1.38,0.44-2.61,0.82-3.84c1.38-4.46,1.85-9.12,3-13.64c0.75-2.92,1.32-5.74,3.22-8.13
		c0.07-0.09,0.1-0.22,0.12-0.34c0.81-6.97,6.02-12.16,7.62-18.82c0.08-0.33,0.27-0.71,0.53-0.93c2.72-2.36,4.84-5.24,7.11-8
		c1.21-1.47,2.56-2.85,3.7-4.38c1.22-1.63,2.62-2.73,4.75-2.83c1.46-0.07,2.78-0.67,3.99-1.51c2.85-1.99,5.86-3.69,8.98-5.25
		c6.34-3.18,13.06-5.29,19.79-7.26c6.56-1.92,11.81,1.07,15.71,6.14c2.95,3.83,4.52,8.29,4.73,13.33c0.3,7.33-0.06,14.59-0.77,21.86
		c-0.32,3.27-1.43,6.3-2.33,9.4c-1.66,5.75-2.66,11.66-4.68,17.34c-2.61,7.35-5.54,14.54-8.95,21.54c-0.21,0.43-0.58,0.82-0.67,1.27
		c-1.22,6.55-4.17,12.79-3.59,19.65c0.22,2.59-0.86,4.91-1.35,7.34c-0.19,0.94-0.82,1.89-0.7,2.76c0.84,5.99,0.35,12.21,3.04,17.9
		c1.25,2.64,1.01,5.64,1.85,8.4c1.3,4.21,2.56,8.46,3.57,12.73c1.08,4.58,3.15,8.74,4.48,13.18c0.1,0.34,0.11,0.76,0.3,1.03
		c2.76,3.81,4.27,8.25,6.4,12.38c2.14,4.14,5.03,7.83,7.05,12.02c0.8,1.65,2.09,2.93,3.2,4.33c2.45,3.1,4.56,6.41,6.81,9.65
		c2.58,3.72,5.61,7.11,8.61,10.53C370.85,312.72,373.12,315.19,375.2,317.9z"/>
</g>
</svg>
