<?xml version="1.0" encoding="utf-8"?>
<!-- Generator: Adobe Illustrator 26.0.3, SVG Export Plug-In . SVG Version: 6.00 Build 0)  -->
<svg version="1.1" id="Layer_1" xmlns="http://www.w3.org/2000/svg" xmlns:xlink="http://www.w3.org/1999/xlink" x="0px" y="0px"
	 viewBox="0 0 612 792" style="enable-background:new 0 0 612 792;" xml:space="preserve">
<g>
	<path d="M462.83,465.15c-1.89,0-4.39,0.16-6.85-0.06c-1.74-0.15-2.24,0.42-2.5,2.04c-0.41,2.58-0.65,5.18-0.54,7.76
		c0.27,6.57-2.02,12.53-4.2,18.51c-0.85,2.33-1.86,4.58-2.2,7.07c-0.35,2.63-2.44,4.25-3.85,6.23c-2.52,3.54-5.66,6.62-7.93,10.37
		c-0.85,1.39-2.18,2.12-3.64,2.67c-2.86,1.08-5.68,2.27-8.74,2.76c-3.14,0.5-6.08,1.92-9.17,2.51c-6.07,1.17-12.26,0.36-17.57-2.39
		c-6.09-3.15-11.54-7.23-14.32-14.39c-2.61-6.7-5.62-13.25-6.86-20.35c-1.1-6.29-2.92-12.39-4.24-18.62
		c-1.42-6.68-2.33-13.43-2.7-20.25c-0.21-3.88-1.28-7.65-1.47-11.57c-0.18-3.75-0.04-7.5-0.29-11.26c-0.25-3.79-0.77-7.48-1.6-11.18
		c-2.27-10.1-4.19-20.28-6.56-30.35c-2.49-10.58-3.41-21.41-5.62-32.03c-0.53-2.56-1.22-4.99-2.98-7.05
		c-3.29-3.86-6.6-7.7-10.24-11.24c-0.5-0.49-1-0.99-1.46-1.53c-1.92-2.28-4.8-3.13-7.57-2.24c-6.73,2.17-12.63,9.3-13.62,16.58
		c-0.21,1.55-0.96,2.91-1.29,4.41c-1.58,7.29-2.41,14.57-1.58,22.08c0.54,4.9,0.53,9.87,1.53,14.74c1,4.85,1.98,9.71,2.8,14.59
		c0.53,3.19,2.08,6.01,3.12,8.99c2.29,6.57,2.93,13.64,6.13,19.92c1.02,2,1.1,4.29,1.89,6.41c2.25,6,5.83,11.3,8.53,17.05
		c1.8,3.83,3.41,7.75,5.07,11.63c2.23,5.2,4.88,10.19,7.47,15.21c1.52,2.95,2.56,6.1,3.73,9.16c2.7,7.03,5.35,14.09,7.61,21.29
		c1.2,3.8,3.14,7.38,4.85,11.01c3.83,8.11,7.65,16.19,9.13,25.16c0.44,2.66,1.34,5.26,2.22,7.82c2.36,6.88,2.73,14.06,3.37,21.21
		c0.3,3.37,1.76,6.59,1.43,10.07c-0.53,5.68,0.57,11.29,0.74,16.94c0.22,7.14-1.82,14-2.47,21.02c-0.07,0.77-0.47,1.69-1.03,2.21
		c-2.11,1.93-3.36,4.58-5.47,6.45c-2.65,2.34-5.28,4.6-7.29,7.62c-1.43,2.15-4.21,3.02-6.64,3.76c-1.45,0.44-2.9,0.82-4.3,1.45
		c-4.1,1.85-8.39,3.05-12.88,3.5c-0.69,0.07-1.42-0.02-2.1-0.17c-4.26-0.96-8.61-1.66-12.72-3.06c-2.58-0.88-5-2.58-7.14-4.35
		c-8.59-7.08-13.93-16.05-15.71-27.18c-0.87-5.46-2.23-10.87-3.73-16.2c-1.48-5.25-2.05-10.65-3.18-15.95
		c-1.08-5.05-1.43-10.25-3.15-15.18c-0.49-1.4-0.3-3.03-0.42-4.56c-0.04-0.59,0.08-1.23-0.11-1.76c-1.67-4.77-1.08-9.74-1.35-14.63
		c-0.42-7.53,0-15.06,0.07-22.59c0.02-2.35,0.19-4.7,0.56-7.05c0.54-3.52-0.43-5.17-3.67-6.81c-2.2-1.12-4.42-2.27-6.97-2.33
		c-4.74-0.11-7.7,2.73-9.81,6.44c-1.55,2.73-2.11,5.92-3.05,8.93c-2.71,8.69-4.08,17.7-6.85,26.36c-3.24,10.1-6.35,20.24-9.38,30.4
		c-0.84,2.81-1.22,5.77-1.78,8.66c-1.6,8.34-4.29,16.41-6.31,24.65c-1.12,4.58-2.34,9.13-3.44,13.71c-0.37,1.54-1.14,2.84-1.96,4.13
		c-2.64,4.19-5.7,8.11-7.95,12.55c-0.42,0.83-1.03,1.6-1.68,2.26c-5.55,5.61-11.06,11.28-17.09,16.39
		c-2.62,2.21-5.97,3.31-8.75,5.34c-2.47,1.8-5.17,3.26-7.59,5.16c-1.74,1.37-3.85,2.24-6.12,2.64c-1.38,0.24-2.88,0.57-3.99,1.35
		c-4.19,2.95-9.18,2.68-13.85,3.5c-3.66,0.64-7.5,0.2-11.25,0.47c-3.61,0.26-6.6-1.5-9.71-2.74c-5.61-2.24-10.15-6.01-13.32-11.13
		c-2.11-3.41-3.14-7.37-4.01-11.3c-0.87-3.98-1.01-7.93,0.31-11.88c0.33-0.98,0.28-2.09,0.34-3.15c0.7-11.62,3.31-22.54,10.54-32.08
		c4.47-5.9,8.76-11.98,12.03-18.69c0.87-1.78,2.17-3.38,3.41-4.95c1.24-1.57,1.84-3.26,1.73-5.24c-0.11-2.01-0.01-3.99,0.47-5.97
		c0.81-3.38-0.09-6.53-1.52-9.59c-0.62-1.31-1.56-2.05-3.04-1.97c-1.18,0.06-2.37,0.05-3.52,0.24c-6.17,1.02-12.26,2.32-18.11,4.66
		c-4.69,1.88-9.38,3.89-14.63,3.64c-0.53-0.03-1.25,0.23-1.6,0.61c-1.62,1.76-3.59,1.53-5.6,1.16c-6.54-1.22-12.54-3.52-18.39-6.93
		c-4.55-2.65-6.38-7.1-9.63-10.56c-4.61-4.89-6.09-10.99-6.05-17.61c0.04-7.82,0.76-15.49,2.99-23.06
		c1.47-4.98,2.73-9.98,4.98-14.69c3.06-6.39,7.53-11.71,12.75-16.31c9.16-8.08,19.44-14.27,30.8-19.02
		c11.62-4.85,23.81-6.26,35.97-8.44c7.5-1.34,15.06-0.51,22.48-1.88c4.52-0.83,9.24-1.02,13.55-2.47
		c7.49-2.51,14.62-5.73,19.42-12.73c2.95-4.3,5.94-8.54,7.77-13.4c2.26-6.03,1.64-8.91-2.67-12.7c-1.15-1.01-2.32-2.08-3.66-2.77
		c-6.03-3.09-7.89-8.59-7.29-14.55c0.84-8.3,1.17-16.72,3.44-24.84c0.38-1.36,0.65-2.78,1.19-4.08c3.51-8.34,3.1-17,2.39-25.75
		c-0.32-3.88-0.29-7.76-1.41-11.55c-0.62-2.07-1.37-3.97-2.87-5.58c-1.37-1.47-1.74-1.57-2.71,0.27c-2.14,4.08-4.16,8.22-6.19,12.35
		c-1.63,3.31-2.43,6.84-2.97,10.5c-0.74,5.01-2.04,9.93-3.23,14.86c-0.93,3.89-0.95,7.95-2.21,11.8
		c-1.69,5.16-4.03,10.05-6.32,14.96c-0.64,1.36-1.08,2.83-2,4.11c-3.92,5.46-12.62,10.09-20.64,7.1c-2.85-1.06-5.95-1.47-8.96-2.06
		c-5.14-1.02-9.22-3.36-11.42-8.41c-1.08-2.49-2.78-4.65-4.21-6.95c-3-4.83-2.88-10.33-3.1-15.75c-0.29-7.16,1.64-13.99,3.08-20.89
		c0.65-3.11,1.32-6.22,1.95-9.34c0.58-2.91,1.48-5.71,2.98-8.29c0.84-1.45,1.24-3.05,1.67-4.65c1.81-6.85,4.31-13.45,7.23-19.9
		c0.87-1.93,1.67-3.9,2.35-5.9c1.64-4.81,4.06-9.25,6.18-13.84c1.83-3.96,3.57-7.94,5.71-11.75c0.76-1.35,1.51-2.71,2.61-3.77
		c1.72-1.67,3.08-3.54,4.02-5.75c0.27-0.64,0.66-1.32,1.18-1.74c3.78-3.05,6.55-7.05,10.01-10.4c1.17-1.13,2.53-1.73,3.97-2.21
		c2.69-0.89,5.38-1.78,7.91-3.09c1.18-0.61,2.47-0.85,3.75-0.99c5.86-0.64,11.73-1.24,17.64-1.06c0.93,0.03,1.93,0.09,2.77,0.44
		c5.87,2.45,12.31,2.02,18.33,3.69c1.42,0.4,2.16-0.35,2.36-1.84c0.59-4.37-0.16-8.71-0.26-13.06c-0.05-2.23-0.45-4.45-0.77-6.66
		c-0.94-6.55-3.29-12.74-5.01-19.09c-2.12-7.84-4.25-15.69-5.44-23.75c-0.6-4.06-1.58-8.06-2.42-12.08
		c-0.35-1.66-0.34-3.27,0.35-4.86c0.86-1.96,1.26-4.02,1.53-6.15c0.51-4.1,1.88-8.02,2.69-12.07c0.6-2.97,2.93-5.34,4.5-7.96
		c0.79-1.31,1.66-2.53,2.1-4.02c0.73-2.46,2.29-4.45,4.33-5.85c3.23-2.22,6.08-4.82,8.94-7.47c2.56-2.36,5.89-3.48,9.15-4.47
		c3.57-1.08,6.92-2.48,9.4-5.34c1.3-1.5,3-1.3,4.55-1.49c5.95-0.71,11.79-2.02,17.88-1.86c6.83,0.18,13.3,1.49,19.62,3.91
		c5.87,2.25,11.91,3.49,18.26,3.3c4.59-0.14,9.21-0.32,13.79,0.37c0.46,0.07,0.95,0.03,1.41-0.04c5.7-0.87,11.23,0.61,16.84,1.15
		c8.42,0.82,16.78,2.4,25.3,1.93c4.24-0.24,8.48-0.48,12.7-0.95c6.47-0.73,12.96-0.23,19.44-0.48c7.96-0.31,15.74,1.03,23.38,3.06
		c4.54,1.2,9.16,2.45,13.35,4.49c2.9,1.41,5.55,3.52,8.54,4.87c6.64,2.98,11.16,8.42,16.27,13.28c4.15,3.95,6.24,8.82,7.9,13.98
		c1.6,4.96,4.05,9.54,6.29,14.17c2.32,4.78,2.73,9.72,3.05,14.75c0.17,2.68-0.72,5.28-1.25,7.91c-1.06,5.29-3.78,9.57-6.32,14.08
		c-2.82,5.01-6.45,9.37-10.86,12.89c-2.25,1.8-5.15,3.26-8.35,3.27c-2.69,0-5.35,0.41-8.09-0.07c-1.93-0.34-3.53-1.26-5.31-1.81
		c-4.73-1.46-9.37-3.14-14.04-4.75c-5.23-1.8-10.44-3.7-15.71-5.39c-1.02-0.33-1.97-0.74-2.91-1.25c-2.39-1.29-4.83-1.91-7.31-0.17
		c-0.91,0.64-2.06,0.47-3.05,0.84c-2.26,0.86-2.73,1.92-1.84,4.1c3.3,8.09,8.76,13.83,17.38,16.29c2.95,0.84,5.73,2.19,8.6,3.25
		c3.74,1.39,7.61,2.51,11.51,3.35c4.53,0.97,8.82,2.57,13,4.41c2.19,0.97,4.41,1.61,6.7,2.06c4.4,0.86,8.83,1.57,12.69,4.08
		c0.19,0.13,0.43,0.2,0.66,0.25c7.9,2.03,11.61,8.48,15.17,14.85c1.91,3.41,0.98,7.35,0.36,11.06c-0.16,0.97-1.05,1.56-1.78,2.14
		c-1.58,1.24-3.18,2.45-4.82,3.6c-2.58,1.8-2.72,1.85-1.13,4.3c3.18,4.94,3.08,10.59,3.22,16.04c0.07,2.69-1.21,5.5-1.45,8.31
		c-0.28,3.23-1.27,6.16-2.55,9.13c-1.89,4.4-5.5,6.61-9.56,8.31c-1.94,0.81-4.01,1.33-5.98,2.14c-1.06,0.44-2.32,0.66-3.46,0.59
		c-2.02-0.14-4.01,0.13-6.01,0.19c-6.51,0.2-12.54-1.25-18.03-4.89c-5.49-3.64-11.16-7.01-16.57-10.74c-2.89-2-5.53-4.41-7.85-7.09
		c-3.86-4.45-8.03-8.6-12.25-12.7c-6.69-6.49-12.57-13.73-18.83-20.61c-5.87-6.44-11.84-12.77-18.34-18.62
		c-4.31-3.88-8.89-7.33-13.61-10.62c-2.83-1.97-6.12-3.35-9.44-3.78c-3.43-0.45-7.05-0.31-10.49,0.68
		c-0.55,0.16-1.29,0.37-1.53,0.79c-1.54,2.74-3.35,5.33-3.25,8.77c0.21,7.65,2.98,14.43,6.35,21.14c3.6,7.18,8.78,13.09,14.22,18.79
		c2.25,2.36,5.25,3.98,7.7,6.17c6.34,5.64,13.74,9.78,20.67,14.57c2.77,1.91,6.04,3.09,9.07,4.63c4.18,2.13,8.47,4.02,12.66,6.13
		c4.93,2.48,10.15,4.44,15.45,6.07c4.29,1.31,8.48,2.82,12.32,5.24c1.28,0.81,2.79,1.26,4.22,1.82c5.37,2.1,10.52,4.74,15.65,7.32
		c3.41,1.71,6.75,3.77,10.06,5.79c5.46,3.35,10.25,7.47,14.82,11.9c2.56,2.48,5.75,4.12,8.62,6.16c3.38,2.4,6,5.39,7.92,8.87
		c2.61,4.72,5.61,9.25,7.21,14.53c0.76,2.51,1.14,5.06,1.7,7.58c0.44,1.95,0.59,3.95,1.42,5.81c0.55,1.23,0.35,2.59,0.08,3.84
		c-0.54,2.47-0.52,4.92-0.1,7.39c0.37,2.19,0.02,4.2-1.26,6.07c-1.46,2.14-2.75,4.41-4.24,6.52c-1.24,1.76-2.16,3.62-2.87,5.65
		c-2.52,7.2-6.96,13.07-12.83,17.87c-4.5,3.67-9.59,6.4-14.75,9C476.6,464.89,470.18,466.14,462.83,465.15z"/>
</g>
</svg>
