<?xml version="1.0" encoding="utf-8"?>
<!-- Generator: Adobe Illustrator 26.0.3, SVG Export Plug-In . SVG Version: 6.00 Build 0)  -->
<svg version="1.1" id="Layer_1" xmlns="http://www.w3.org/2000/svg" xmlns:xlink="http://www.w3.org/1999/xlink" x="0px" y="0px"
	 viewBox="0 0 612 792" style="enable-background:new 0 0 612 792;" xml:space="preserve">
<g>
	<path d="M498.03,326.23c-0.67,6.77-0.82,13.23-2.38,19.52c-0.1,0.39-0.21,0.81-0.18,1.19c0.42,4.41-1.8,7.97-3.84,11.53
		c-0.91,1.6-1.63,3.32-2.04,5c-0.68,2.82-2.1,5.23-3.38,7.72c-1.35,2.62-2.44,5.31-3.12,8.17c-0.16,0.69-0.34,1.36-0.77,1.95
		c-2.23,3.08-3.72,6.64-6.49,9.41c-1.1,1.1-2.33,1.87-3.5,2.79c-5.01,3.89-9.38,8.37-12.97,13.61c-0.3,0.44-0.69,0.71-1.14,0.95
		c-6.39,3.38-12.67,6.93-19.29,9.9c-3.79,1.7-7.76,3.18-11.32,5.5c-3.31,2.16-7.35,1.9-11.12,2.44c-1.6,0.23-3.18,0.38-4.68,1.08
		c-4.29,2.02-8.97,1.87-13.54,2.29c-2.59,0.24-5.21,0.25-7.8,0.52c-1.51,0.15-3.08,0.6-3.96,1.95c-2.02,3.1-5.06,3.9-8.44,3.92
		c-0.95,0.01-1.62,0.3-2.45,0.75c-4.18,2.26-8.01,4.99-11.63,8.04c-0.84,0.71-1.79,1.35-2.78,1.8c-2.65,1.22-4.45,3.46-6.56,5.31
		c-1.05,0.92-1.14,2.33-1.15,3.66c-0.05,5.74,0.8,11.35,4.39,15.98c2.82,3.64,6.1,7.02,10.49,8.81c1.62,0.66,3.59,0.81,5.35,0.67
		c2.47-0.21,4.98-0.45,7.31-1.63c3.84-1.95,8.17-2.77,11.95-4.91c0.26-0.15,0.57-0.23,0.81-0.4c6.15-4.18,13.16-6.94,18.95-11.7
		c1.94-1.59,4.35-2.11,6.59-2.92c4.11-1.49,7.9-3.57,11.5-5.92c3.76-2.46,7.81-4.1,11.97-5.59c4.16-1.49,8.34-2.77,11.95-5.59
		c2.68-2.09,5.99-3.03,9.54-2.61c1.08,0.13,2.23,0.16,3.29-0.06c4.76-0.96,9.6-1.11,14.4-1.59c0.64-0.06,1.11-0.37,1.62-0.72
		c3.3-2.21,6.79-2.29,9.79,0.18c3.62,2.98,7.6,5.16,11.91,6.95c2.12,0.88,3.47,3.09,4.58,5.05c1.94,3.42,4.27,6.59,6.26,9.97
		c2.46,4.18,4.6,8.46,6.06,13.1c0.53,1.69,0.36,3.39,0.68,5.07c0.81,4.24,2.38,8.3,2.57,12.7c0.08,1.73-0.3,3.38-0.18,5.09
		c0.34,5.01-0.76,9.82-2.2,14.56c-0.88,2.91-0.85,5.98-1.87,8.87c-0.73,2.08-2.08,3.63-3.43,5.26c-1.52,1.82-3.42,3.25-4.98,5.02
		c-1.61,1.82-2.8,3.96-4.29,5.83c-2.37,2.98-4.44,6.55-9.08,6.81c-1.38,0.08-2.89,1.07-3.99,2.04c-2.89,2.53-6.32,4.24-9.36,6.53
		c-2.62,1.97-5.81,2.87-8.85,3.73c-4.06,1.14-8.08,2.49-12.21,3.41c-1.38,0.31-2.78,0.47-4.14,0.79c-2.91,0.69-5.92,0.87-8.73,2.18
		c-2.07,0.97-4.47,1.18-6.8,1.32c-4.02,0.24-8.03,0.56-11.8,2.18c-1.59,0.69-3.35,0.67-5,1.02c-2.44,0.52-4.45,1.78-6.65,2.69
		c-1.92,0.79-3.97,1.27-5.98,1.8c-4.79,1.24-9.53,2.55-13.42,5.86c-1.94,1.65-4.45,2.37-6.68,3.47c-5.67,2.8-10.76,6.5-16.19,9.66
		c-0.67,0.39-1.29,1.01-1.72,1.67c-1.65,2.51-4.18,4.02-6.52,5.71c-1.8,1.3-3.63,2.52-5.07,4.24c-1.94,2.31-4.8,3.65-6.54,6.22
		c-0.6,0.88-1.5,1.59-2.13,2.52c-1.77,2.58-3.88,4.9-6.55,6.54c-2.19,1.34-4.01,3.04-5.74,4.88c-1.47,1.55-3.23,2.71-4.96,3.94
		c-4.5,3.19-8.84,6.63-13.36,9.8c-6.98,4.89-13.48,10.54-21.38,14.06c-0.99,0.44-1.85,1.21-2.71,1.9c-2.11,1.68-4.71,2.15-7.2,2.76
		c-6.29,1.57-12.38,3.64-18.08,6.76c-0.72,0.4-1.49,0.74-2.3,0.66c-4.42-0.46-8.62,0.58-12.82,1.73c-2.25,0.62-4.52,1.07-6.85,1.18
		c-1.01,0.05-1.99,0.28-2.95,0.63c-2.08,0.76-4.19,1.25-6.44,1.43c-2.67,0.21-5.16,1.65-7.95,1.46c-0.39-0.03-0.82,0.21-1.2,0.14
		c-5.68-1.03-11.08,1.41-16.68,1.38c-1.81-0.01-3.64,0.37-5.44,0.24c-3.3-0.25-6.43,0.33-9.53,1.33c-1.08,0.35-2.14,0.42-3.28,0.26
		c-3.09-0.42-6.19-0.74-9.28-1.11c-0.4-0.05-0.86-0.03-1.18-0.23c-3.56-2.11-7.49-1.94-11.39-1.94c-0.2,0-0.45,0.06-0.6-0.03
		c-3.22-2.05-7.46-0.8-10.56-3.25c-0.36-0.28-0.94-0.36-1.43-0.4c-3.59-0.27-6.07-2.4-8.39-4.87c-2-2.13-4.11-4.14-6.14-6.24
		c-1.96-2.01-3.44-4.46-5.92-6.01c-1.13-0.7-1.48-2.11-2-3.33c-1.65-3.91-3.53-7.7-6-11.17c-0.41-0.57-0.79-1.19-1.3-1.66
		c-4.51-4.15-6.7-9.4-7.64-15.36c-0.58-3.66-1.47-7.28-2.35-10.89c-0.38-1.55-0.27-3.08,0.17-4.48c1.39-4.35,1.29-8.95,2.47-13.35
		c0.89-3.31,1.46-6.65,3.61-9.47c0.67-0.88,1.33-1.83,1.7-2.86c1.53-4.28,5.02-6.6,8.54-8.96c2.92-1.96,5.89-3.91,8.37-6.43
		c1.43-1.45,3.13-2.25,5.02-2.61c5.72-1.08,10.93-3.43,15.93-6.28c2.59-1.48,5.42-1.28,8.14-1.18c1.85,0.07,3.67,0.78,5.59,0.33
		c0.56-0.13,1.2-0.03,1.79,0.05c3.5,0.48,6.99,0.14,10.49-0.1c4.51-0.32,9.03-0.7,13.54,0.11c0.79,0.14,1.6,0.26,2.4,0.27
		c6.76,0.08,13.51-0.02,20.25-0.45c4.32-0.27,8.63-0.13,12.95,0.35c2.18,0.25,4.44,0.41,6.57-0.53c0.66-0.29,1.32-0.37,2.06-0.23
		c1.7,0.33,3.38,0.31,4.98-0.56c0.5-0.27,1.17-0.32,1.76-0.31c5.1,0.12,9.98-0.92,14.85-2.36c3.34-0.99,6.82-1.53,10.22-2.38
		c2.75-0.69,4.85-2.34,7.17-3.69c0.34-0.2,0.59-0.59,0.94-0.76c3.93-1.96,4.58-5.5,4.64-9.38c0.02-1.71,0.18-3.36-0.63-5.02
		c-0.92-1.89-2.09-3.06-4.14-3.98c-3.09-1.39-6.04-2.37-9.42-1.75c-0.63,0.11-1.18-0.17-1.73-0.44c-1.98-0.94-3.98-1.4-6.13-0.51
		c-1.16,0.48-2.18-0.14-3.12-0.73c-2.39-1.48-4.87-2.13-7.76-1.75c-1.58,0.21-3.39,0.21-4.91-0.91c-1.3-0.96-2.93-0.59-4.41-0.83
		c-5.94-0.98-11.83-0.67-17.64,0.94c-1.82,0.5-3.57-0.3-5.38-0.17c-0.79,0.06-1.58-0.18-2.4-0.05c-7.04,1.07-14.11,1.94-21.24,2.22
		c-5.6,0.21-11.08,1.25-16.58,2.2c-8.45,1.46-17.01,2.09-25.54,2.91c-1.64,0.16-3.12,0.81-4.69,1.16c-2.67,0.59-5.37,0.75-8.1,0.52
		c-4.44-0.37-8.83-0.18-13.11,1.26c-1.58,0.53-3.3,0.6-4.73-0.23c-3.61-2.12-7.25-0.78-10.88-0.32c-1.09,0.14-2.16,0.49-3.21,0.85
		c-1.57,0.53-2.91,0.15-4.32-0.63c-4.64-2.54-9.66-3.95-14.84-4.91c-0.3-0.05-0.62-0.11-0.9-0.04c-3.96,0.95-7.16-0.11-10.11-3.01
		c-1.6-1.57-3.89-2.31-6.21-2.93c-3.02-0.81-5.05-3.25-6.41-6c-0.77-1.55-1.61-2.9-2.78-4.21c-2.41-2.7-4.21-5.81-5.63-9.19
		c-2.83-6.77-5.01-13.79-7.96-20.52c-1.68-3.82-2.24-7.97-2.47-12.1c-0.2-3.51-0.53-7-0.99-10.48c-0.26-1.94,0.63-3.73,0.47-5.68
		c-0.3-3.63,0.77-7.13,1.4-10.66c0.26-1.47,0.74-2.98,1.47-4.28c1.93-3.42,3.38-7.07,5.39-10.47c2.32-3.92,5.4-7.01,8.94-9.72
		c1.6-1.22,3.29-2.34,4.76-3.72c0.29-0.28,0.56-0.68,0.91-0.78c3.02-0.85,5.37-3,8.36-4.04c4.7-1.63,9.5-2.51,14.33-3.51
		c2.84-0.59,5.62-1.51,8.53-1.83c2.58-0.28,5.18-0.44,7.76-0.6c3.66-0.22,7.44,0.43,11.05-1.02c1.95-0.78,4.09-0.53,6.24,0.05
		c4.27,1.16,8.62,2.05,12.96,2.97c1.18,0.25,2.41,0.12,3.58-0.31c1.22-0.45,2.35-0.29,3.41,0.54c3.52,2.75,7.82,3.57,11.96,4.76
		c2.4,0.69,4.79,1.51,7.39,1.44c1.06-0.03,2.12,0.47,3.01,1.25c4.01,3.48,8.73,5.72,13.59,7.71c0.56,0.23,1.13,0.49,1.72,0.56
		c3.66,0.46,6.58,2.56,9.4,4.58c3.38,2.43,7.14,4.16,10.64,6.33c1.11,0.69,2.42,0.98,3.75,1.06c1.8,0.11,3.4,0.77,4.57,2.08
		c3.64,4.08,8.8,5.93,13.06,9.08c0.51,0.38,1.14,0.5,1.73,0.43c1.86-0.21,3.18,0.68,4.63,1.74c5.53,4.06,11.53,7.4,17.5,10.75
		c1.75,0.98,3.64,1.23,5.54,1.14c2.85-0.14,5.35,0.46,7.4,2.56c0.78,0.8,1.76,1.43,2.96,1.32c3.5-0.32,6.98,0.65,10.5,0.02
		c3.66-0.66,7.33-1.1,10.41-3.56c1.83-1.46,2.93-2.97,2.18-5.42c-0.31-1.03-0.18-2.19-0.41-3.25c-0.51-2.36-1.13-4.61-3.1-6.37
		c-1.79-1.59-2.89-3.77-3.86-6c-1.14-2.59-2.58-4.92-5.28-6.35c-2.02-1.06-3.89-2.46-5.68-3.9c-2.34-1.89-5.34-2.3-7.86-3.81
		c-3.44-2.07-6.93-4.08-10.62-5.72c-1.02-0.46-1.96-0.95-3.1-1.06c-2.2-0.21-3.74-1.88-5.66-2.75c-1.75-0.79-3.5-1.54-5.3-2.2
		c-4.9-1.79-9.86-3.4-14.58-5.69c-2.52-1.23-5.23-2.09-7.89-3c-4.38-1.49-8.76-2.97-13.2-4.28c-1.19-0.35-2.58-0.17-3.86-0.02
		c-1.79,0.2-3.56-0.1-4.95-1.04c-2.67-1.79-5.74-2.53-8.67-3.49c-5.25-1.72-10.58-3.24-15.85-4.93c-2.1-0.68-4.33-0.98-6.44-1.62
		c-5.87-1.77-11.6-3.99-17.59-5.35c-4.81-1.1-9.49-2.67-14.27-3.89c-3.68-0.94-7.04-3.04-10.78-3.8c-4.81-0.97-8.87-3.7-13.42-5.29
		c-5.29-1.85-10.44-4.24-15.21-7.33c-2.95-1.92-6.33-3.03-9.61-4.26c-1.34-0.5-2.67-0.96-3.74-1.9c-3.05-2.68-6.36-4.93-10.13-6.52
		c-1.08-0.45-2.04-1.32-2.89-2.17c-2.55-2.57-4.92-5.28-6.65-8.5c-0.76-1.41-1.69-2.73-2.52-4.1c-1.87-3.13-2.69-6.68-4-10.04
		c-1.44-3.68-1.12-7.29,0.21-10.91c0.42-1.13,0.78-2.31,0.95-3.5c0.76-5.22,2.52-10.12,4.5-14.97c0.34-0.84,0.59-1.73,0.75-2.62
		c0.72-4.04,3.33-6.73,6.31-9.25c2.53-2.14,4.85-4.51,7.12-6.94c2.06-2.2,4.43-4.11,6.52-6.28c1.96-2.04,4.25-3.68,6.5-5.34
		c3.67-2.69,7.65-4.49,12.31-5.28c3.22-0.55,6.62-0.42,9.74-1.85c1.6-0.74,3.51-0.06,4.99,0.59c2.23,1,4.56,1.6,6.85,2.35
		c3.54,1.15,6.72,3.16,10.3,4.27c2.37,0.73,3.84,2.94,5.41,4.74c3.2,3.67,6.91,6.77,10.5,10.02c2.16,1.96,4.21,4.04,6.71,5.63
		c2.32,1.47,3.23,4.19,4.28,6.49c2.21,4.85,5.53,8.89,8.49,13.21c3.01,4.4,5.96,8.84,8.89,13.28c0.62,0.93,1.21,1.86,2.05,2.61
		c4.04,3.64,8.03,7.34,12.15,10.88c1.36,1.17,3.18,1.77,4.58,2.9c4.18,3.35,8.83,5.98,13.19,9.05c1.57,1.11,3.49,1.41,4.97,2.8
		c4.04,3.82,9.1,6.11,14.05,8.44c2.53,1.2,5.36,2.24,8.28,1.4c1.3-0.38,1.88,0.89,3.08,0.77c2.64-0.26,4.9-1.72,7.55-2.01
		c1.6-0.18,2.75-4.4,1.67-5.73c-1.77-2.16-3.68-4.37-6.1-5.7c-2.41-1.33-3.98-3.37-5.51-5.35c-1.73-2.24-3.35-4.4-5.83-5.91
		c-1.97-1.19-3.71-2.75-5.55-4.16c-0.16-0.12-0.36-0.29-0.38-0.45c-0.44-3.84-4.33-4.83-6.2-7.49c-0.45-0.64-1.35-1-1.58-1.79
		c-1.1-3.75-4.53-5.82-6.4-8.93c-2.9-4.83-6.61-9.05-9.63-13.77c-5.52-8.62-9.75-17.82-12.92-27.53c-0.34-1.05-0.62-2.16-1.35-3.03
		c-1.11-1.32-1.58-2.78-1.2-4.49c0.08-0.37,0.04-0.82-0.09-1.18c-1.79-5.19-2.52-10.56-2.88-16c-0.4-6.03-2.05-11.93-1.66-18.05
		c0.34-5.43,0.02-10.95,0.84-16.3c0.92-6.07,2.66-12,7.15-16.73c1.92-2.02,3.48-4.41,5.23-6.61c4.57-5.74,10.48-9.58,16.59-13.39
		c3.41-2.13,6.94-2.48,10.62-2.8c2.03-0.18,4.02,0.34,5.61,1.78c0.99,0.9,2.09,1.5,3.4,1.88c3.5,1.01,6.11,3.52,8.84,5.73
		c3.68,2.99,6.89,6.47,9.54,10.45c1.33,2,3.46,3.29,4.71,5.46c3.15,5.49,7.19,10.46,9.76,16.28c1.99,4.5,4.48,8.76,5.81,13.58
		c1.04,3.76,2.73,7.34,3.54,11.2c0.18,0.87,0.49,1.69,0.54,2.62c0.18,3.84,1.28,7.54,1.8,11.33c0.3,2.16,1.93,3.74,2.37,5.87
		c0.77,3.64,2.01,7.16,2.34,10.93c0.34,3.88,2.46,7.21,4.14,10.64c1.67,3.42,3.56,6.75,4.93,10.28c0.99,2.54,3.05,3.87,4.79,5.6
		c0.53,0.53,1.34,0.38,2.04,0.29c2.82-0.37,5.21-3.1,5.45-6c0.23-2.9,0.81-5.74,1.48-8.59c0.71-3.01,1.32-6.16,0.73-9.29
		c-0.32-1.71-0.32-3.4-0.37-5.12c-0.15-5.64-0.79-11.25-1.34-16.86c-0.3-3.11-0.79-6.21-0.11-9.33c0.38-1.73-0.39-3.38-0.37-5.11
		c0.06-6.24-0.04-12.49,0.05-18.73c0.03-2.31,0.38-4.62,0.69-6.92c0.49-3.69,0.95-7.39,1.64-11.04c0.93-4.93,1.77-9.88,2.93-14.77
		c2-8.48,5.27-16.48,9.51-24.03c2.55-4.55,5.69-8.8,8.97-12.91c0.56-0.71,1.17-1.41,1.59-2.2c0.89-1.65,2.27-2.71,3.72-3.86
		c3.07-2.43,6.13-4.9,8.93-7.68c3.37-3.33,6.83-6.56,9.87-10.21c1.32-1.59,3.38-2.3,5.35-2.66c2.29-0.42,4.16-1.56,5.97-2.79
		c2.68-1.82,5.52-3.35,8.24-5.07c1.5-0.95,3.38-0.39,4.9-1.31c0.41-0.25,1.09-0.09,1.44-0.38c2.49-2.01,5.46-1.76,8.36-1.89
		c0.5-0.02,1.04,0.02,1.49-0.15c4.58-1.75,8.97-0.69,13.57,0.29c4.98,1.05,9.12,3.74,13.56,5.76c3.64,1.65,6.79,4.18,9.26,7.84
		c2.31,3.43,4.19,7.34,7.53,10.1c0.79,0.65,1.26,1.84,1.6,2.88c1.99,6.12,3.3,12.44,5.14,18.59c1.74,5.84,2.55,11.82,3.86,17.71
		c0.25,1.11,0.23,2.19,0.09,3.3c-0.57,4.49-1.36,8.95-1.64,13.48c-0.07,1.09-0.47,2.16-0.77,3.23c-0.94,3.3-2.1,6.53-2.76,9.91
		c-0.89,4.62-3.34,8.61-5.58,12.61c-1.69,3.02-2.84,6.23-4.15,9.38c-0.97,2.33-1.91,4.61-3.45,6.64c-1.22,1.61-1.95,3.46-2.56,5.43
		c-1.04,3.37-2.88,6.36-4.99,9.23c-2.67,3.64-5.05,7.47-7.34,11.37c-1.67,2.85-2.84,5.99-4.92,8.61c-0.62,0.78-1.27,1.67-1.5,2.61
		c-0.97,3.85-3.94,6.48-5.76,9.81c-4.01,7.34-9.78,13.48-14.22,20.54c-0.11,0.17-0.31,0.29-0.38,0.47
		c-1.85,5.05-6.35,8.16-9.18,12.53c-4.6,7.09-10.56,13.19-15.47,20.09c-2.83,3.98-4.46,8.56-6.67,12.85
		c-0.92,1.78-1.37,3.75-2.67,5.39c-0.7,0.88-0.98,2.23-1.1,3.41c-0.51,4.88-1.47,9.71-1.37,14.65c0.03,1.39,0.24,2.71,1.3,3.56
		c1.31,1.04,1.71,2.8,3.6,3.47c2.08,0.73,3.6,0.75,5.82,0.01c5.66-1.86,10.34-4.89,14.26-9.23c3.03-3.35,6.19-6.61,8.82-10.26
		c2.41-3.34,3.83-7.29,4.84-11.34c0.81-3.24,2.42-6.17,3.88-9.15c2.73-5.57,6.57-10.32,10.55-15.03c2.12-2.5,3.82-5.43,5.58-8.26
		c2.45-3.93,5.59-7.38,9.04-10.52c3.14-2.86,6.43-5.63,10.56-6.67c4.55-1.14,8.64-3.85,13.5-3.87c1.02,0,2.04-0.02,3,0.3
		c1.93,0.63,3.8,1.19,5.91,0.66c1.4-0.35,2.63,0.81,4.05,1c5.05,0.67,9.61,2.82,13.92,5.4c5.31,3.17,9.61,7.48,13.33,12.45
		c3.48,4.65,6.29,9.64,8.17,15.09C497.21,317.91,497.76,322.24,498.03,326.23z"/>
</g>
</svg>
