<?xml version="1.0" encoding="utf-8"?>
<!-- Generator: Adobe Illustrator 26.0.3, SVG Export Plug-In . SVG Version: 6.00 Build 0)  -->
<svg version="1.1" id="Layer_1" xmlns="http://www.w3.org/2000/svg" xmlns:xlink="http://www.w3.org/1999/xlink" x="0px" y="0px"
	 viewBox="0 0 612 792" style="enable-background:new 0 0 612 792;" xml:space="preserve">
<g>
	<path d="M557.99,303.98c-0.52,8.93-1.36,17.83-2.55,26.7c-0.71,5.32-2.3,10.69-1.97,15.94c0.37,5.87-0.79,11.54-0.74,17.3
		c0.05,6.29-2.17,12.41-1.59,18.67c0.64,6.8-1.55,13.08-3.15,19.4c-1.18,4.68-2.01,9.4-2.78,14.12c-1.44,8.8-4.21,17.1-7.53,25.33
		c-1.99,4.93-4.77,9.51-5.69,14.96c-0.93,5.54-4.73,10.03-6.99,15.11c-2.67,6-5.69,11.85-8.47,17.81c-1.7,3.65-3.52,7.3-6.22,10.24
		c-3.02,3.29-3.56,7.63-5.49,11.36c-1.01,1.95-2.92,2.63-3.99,4.55c-1.82,3.26-2.23,7.27-4.43,9.94c-2.66,3.22-5.31,6.62-8.52,9.41
		c-4.49,3.89-8.52,8.17-11.83,13.14c-4.77,7.18-10.5,13.61-16.09,20.15c-1.65,1.93-4.11,2.02-5.92,3.59
		c-4.98,4.32-10.89,7.33-16.52,10.69c-1.49,0.89-2.42,2.28-3.84,3.18c-6.55,4.19-13.41,7.87-20.02,11.97
		c-4.47,2.77-9.16,5.1-13.74,7.63c-3.73,2.06-7.39,4.33-11.25,6.05c-6.12,2.73-11.62,6.54-17.65,9.42
		c-6.44,3.08-12.9,6.04-19.58,8.59c-4.08,1.56-8,3.86-12,5.65c-7.1,3.17-14.08,6.75-21.69,8.78c-5.29,1.41-10.34,3.54-14.16,7.85
		c-1.73,1.95-4.12,3.06-6.63,3.77c-9.63,2.73-19.33,5.23-28.88,8.21c-9.18,2.86-18.9,3.06-28.04,6.06
		c-1.46,0.48-3.06,0.91-4.29,1.61c-6.81,3.88-13.68,0.88-20.49,0.42c-1.88-0.13-3.76-0.04-5.65-0.21
		c-6.77-0.61-12.32-4.28-18.41-6.62c-3.94-1.52-7.89-2.87-11.55-5.09c-6.67-4.02-11.98-8.8-12.9-17.2
		c-0.29-2.61-1.73-5.26-3.79-6.95c-4.73-3.85-7.45-9.19-10.52-14.14c-3.76-6.06-8.68-11.08-13.16-16.46
		c-4.31-5.17-7.68-10.95-11.79-16.17c-4.46-5.64-6.9-12.12-10.04-18.36c-2.95-5.85-6.68-11.3-9.16-17.42
		c-1.76-4.33-3.27-8.74-4.83-13.15c-2.17-6.11-3.56-12.4-5.33-18.6c-1.52-5.33-2.93-10.64-3.78-16.16
		c-1.22-7.91-0.28-15.77-0.57-23.65c-0.11-2.89-0.71-5.78-0.19-8.69c0.06-0.32,0.04-0.69-0.06-1c-3.11-9.17-4.23-18.63-4.74-28.28
		c-0.23-4.33-2.15-8.6-3.48-12.84c-1.81-5.75-1.48-11.74-1.97-17.61c-0.5-5.99-0.5-12.04-0.42-18.06c0.07-5.6-0.6-11.19-0.47-16.72
		c0.14-5.96,0.38-11.95,0.72-17.93c0.39-6.79,0.05-13.62,0.02-20.43c-0.03-6.04,0.83-11.95,2.46-17.75
		c0.42-1.51,1.28-2.99,1.29-4.49c0.03-3.15,1.18-5.81,2.69-8.44c0.37-0.65,0.6-1.47,0.62-2.22c0.27-10.47,2.91-20.49,5.64-30.51
		c1.23-4.52,1.49-9.3,3.17-13.7c2.1-5.51,3.29-11.29,5.11-16.85c0.95-2.9,3.12-5.72,5.11-8.1c3.08-3.69,5.62-7.76,8.77-11.35
		c4.76-5.44,10.45-9.69,17.3-12.26c1.61-0.6,3.19-0.85,4.92-0.38c1.79,0.49,3.43,0.07,5.13-0.85c4.68-2.54,9.9-4.41,15.06-3.94
		c7.32,0.67,14.7,1.83,19.87,8.5c3.44,4.44,7.91,8.04,12.6,11.25c1.54,1.05,2.65,2.69,3.21,4.21c2.72,7.37,6.81,14.28,7.6,22.34
		c0.49,4.98-1.15,9.71-1.27,14.61c-0.03,1.15-0.35,2.31-0.16,3.55c0.86,5.8-0.32,11.13-4.2,15.63c-1.68,1.95-1.85,4.51-2.66,6.67
		c-0.86,2.29-2.06,4.79-2.24,7.25c-0.37,5.13-3.14,9.31-5.15,13.65c-4.68,10.12-8.11,20.44-10.06,31.44
		c-2.36,13.29-5.44,26.46-8.25,39.67c-1.7,7.97-4.37,15.78-5.21,23.9c-0.86,8.4-0.54,16.84,0.03,25.33c0.39,5.9,0.46,12,0.21,18
		c-0.05,1.25,0.09,2.42,0.4,3.64c1.88,7.35,2.34,14.96,3.79,22.4c0.8,4.14,1.59,8.25,2.79,12.3c0.46,1.54,1.04,2.05,2.85,1.75
		c2.48-0.41,4.94-1.3,7.59-0.77c1.58,0.31,2.3-0.95,2.79-2.34c1.98-5.6,3.51-11.38,3.82-17.27c0.41-7.56,3.44-14.61,3.87-22.01
		c0.25-4.35,3.78-7.97,2.2-12.5c3.06-4.29,2.08-9.63,3.69-14.39c1.86-5.48,2.1-11.52,2.92-17.33c1.93-13.73,3.03-27.58,6.12-41.13
		c1.79-7.81,3.26-15.68,4.81-23.53c0.96-4.85,2.76-9.63,3.6-14.57c1.36-7.96,2.98-15.85,3.36-23.99c0.29-6.18,2.04-12.28,2.53-18.46
		c0.79-9.88,1.04-19.8,1.6-29.69c0.2-3.56,0.47-7.14,1.05-10.65c0.5-3.08-0.21-6.01-0.44-9.01c-0.73-9.28-3.61-18.13-5.53-27.17
		c-1.92-9.07-4.14-18.08-5.17-27.33c-0.88-7.9-3.51-15.52-4.4-23.38c-1.54-13.56-5.31-27.22-1.35-40.83
		c1.88-6.46,5.86-12.52,10.84-16.89c3.33-2.92,8.23-5.05,13.37-5.14c1.84-0.03,3.71-0.82,5.5-1.44c2.28-0.78,4.81-0.57,6.45,0.58
		c5.83,4.09,12.62,6.09,18.86,9.24c4.55,2.29,8.3,5.47,12.38,8.32c5.99,4.18,11,9.36,16.52,13.98c6.64,5.56,11.07,12.54,14.33,20.59
		c2.49,6.17,4.62,12.49,7.27,18.59c2.17,4.99,2.43,10.45,2.99,15.71c0.97,9.2,1.09,18.5,1.71,27.73c0.39,5.78,0.83,11.69,2.18,17.41
		c0.13,0.54,0.37,1.14,0.24,1.63c-1.8,6.46,0.68,12.8,0.6,19.22c-0.04,2.98-0.01,6.04,0.31,9.04c0.63,5.94,0.54,11.88,0.1,17.81
		c-0.25,3.32-0.85,6.63-1.42,9.92c-0.7,3.99,0.45,8.03-0.49,12c-1.71,7.23-2.27,14.74-5.07,21.69c-3.98,9.89-7.61,19.9-10.22,30.24
		c-0.91,3.61-2.5,6.95-3.81,10.39c-2.73,7.18-6.06,14.2-7.45,21.78c-0.76,4.19-1.3,8.5-3.93,11.76c-2.75,3.41-5.19,6.94-6.98,10.85
		c-5.68,12.39-11.62,24.66-17.21,37.1c-2.55,5.68-3.32,12.08-6.7,17.24c-5.65,8.62-8.32,18.15-10.18,28.04
		c-1.08,5.72,3.3,9.43,9.03,8.65c4.23-0.57,7.15-2.22,9.38-5.7c1.31-2.04,4.09-2.13,5.77-3.86c2.36-2.44,3.96-5.46,5.55-8.28
		c2.17-3.87,4.99-7.32,6.77-11.48c3.95-9.2,8.89-18,12.46-27.33c1.73-4.51,3.14-9.28,4.63-13.94c2.35-7.34,6.28-14.02,9.93-20.74
		c4.31-7.96,7.68-16.24,10.94-24.64c3.12-8.02,5.96-16.12,8.74-24.25c0.33-0.96,0.69-1.91,0.55-2.94
		c-0.78-5.63,1.24-10.77,2.51-16.1c1.77-7.43,2.41-15.15,4.4-22.51c1.53-5.64,0.36-11.35,1.71-16.89
		c1.74-7.13,0.86-14.37,0.83-21.57c-0.02-4.02-0.16-8.4,0.94-11.93c1.53-4.92,1.25-10.05,2.99-14.83c1.45-3.98,1.33-8.28,2.36-12.41
		c1.54-6.17,4.02-12.1,4.78-18.48c0.53-4.46,3.91-7.73,5.22-11.9c0.33-1.06,1.24-2.13,0.94-3.16c-1.58-5.49,2.25-8.94,4.65-12.95
		c2.74-4.59,6.43-8.15,10.91-11.1c2.19-1.44,4.19-2.33,6.8-1.96c3.87,0.55,7.75,1.08,11.49,2.22c8,2.43,12.71,8.53,16.41,15.45
		c5.42,10.14,7.76,21.13,8.17,32.58c0.43,11.92-2.11,23.33-6.02,34.44c-2.4,6.82-3.17,13.75-2.6,20.84c0.17,2.15-0.61,3.94-0.9,5.89
		c-0.79,5.23-0.91,10.48-0.66,15.74c0.45,9.29-0.96,18.5-1.04,27.76c-0.04,4.43,1.41,8.82,0.79,13.32c-0.1,0.76,0.12,1.59-0.05,2.33
		c-1.7,7.01-2.28,14.21-3.1,21.32c-1.34,11.64-5.81,22.18-9.9,32.93c-3.32,8.71-7.86,16.79-12.37,24.89
		c-1.73,3.1-2.45,6.42-3.1,9.85c-1.22,6.5-0.17,13.05-0.76,19.54c-0.24,2.61-1.37,5.15-2.2,7.69
		c-4.13,12.63-11.04,23.15-21.62,31.58c-6.61,5.26-13.58,10.44-19.04,16.86c-4.28,5.02-9.46,9.24-12.89,15.21
		c-2.58,4.5-5.38,8.72-6.95,13.74c-0.58,1.84-2.12,3.55-3.33,5.03c-3.29,4.01-4.09,9.05-6.55,13.35c-0.73,1.28-0.68,2.89,0.43,3.7
		c1.28,0.93,2.63-0.19,3.47-1.18c3.12-3.7,7.78-5.49,10.98-9.08c3.26-3.66,6.28-7.63,9.96-10.82c6.28-5.44,11.19-12.24,17.76-17.34
		c0.89-0.69,1.68-1.5,2.09-2.58c1.51-3.94,4.63-6.37,8.05-8.47c3.96-2.44,6.14-6.43,8.7-10.02c7.86-11,15.6-22.09,23.15-33.31
		c6.75-10.03,12.42-20.68,17.25-31.77c2.21-5.08,4.22-10.25,6.62-15.23c1.03-2.14,1.09-4.52,1.43-6.6
		c1.03-6.19,4.37-11.77,3.89-18.5c-0.23-3.19-0.83-7.22,1.25-10.5c0.15-0.24,0.25-0.7,0.13-0.91c-2.27-3.74,0.65-6.93,1.04-10.39
		c0.43-3.77,0.67-7.56,1.03-11.33c0.94-9.79,1.58-19.6,1.96-29.43c0.42-10.93,3.27-21.42,5.6-32.01c0.63-2.84,0.97-5.49,0.23-8.52
		c-1.8-7.33-3.75-14.76-4.22-22.24c-0.55-8.81,1.55-17.51,4.58-25.87c0.07-0.2,0.22-0.47,0.39-0.53c5.38-1.9,6.37-7.95,10.46-11.04
		c1.42-1.07,1.34-2.96,2.66-4.18c2.38-2.2,5.13-3.63,8.08-4.66c4.76-1.67,9.1-4.28,14.14-5.44c5-1.15,9.59-0.57,14.12,1.1
		c4.38,1.62,8.76,2.01,13.4,1.94c4.56-0.07,8.7,1.33,12.76,4.08c5.98,4.05,10.94,9.48,17.34,12.79c3.17,1.64,6.22,3.17,8.96,5.51
		c1.63,1.39,2.37,3.21,3.51,4.81c7.12,9.98,14.88,19.63,18.58,31.6C556.39,289.1,558.21,296.37,557.99,303.98z"/>
</g>
</svg>
