<?xml version="1.0" encoding="utf-8"?>
<!-- Generator: Adobe Illustrator 26.0.3, SVG Export Plug-In . SVG Version: 6.00 Build 0)  -->
<svg version="1.1" id="Layer_1" xmlns="http://www.w3.org/2000/svg" xmlns:xlink="http://www.w3.org/1999/xlink" x="0px" y="0px"
	 viewBox="0 0 612 792" style="enable-background:new 0 0 612 792;" xml:space="preserve">
<g>
	<path d="M201.51,285.45c7.93,0.05,15.72,1.24,23.54,2.34c5.33,0.75,10.72,0.9,16.1-0.13c2.61-0.5,5.3-0.37,7.94-0.71
		c4.02-0.51,8.02-1.13,11.91-2.49c3.39-1.19,6.88-2.05,10.24-3.36c4.17-1.63,7.87-4.11,10.45-8.35c0.7-1.15,0.8-2.09,0.05-3.06
		c-0.79-1.02-1.58-2.16-2.6-2.84c-4.97-3.33-10.02-6.53-15.03-9.78c-1.67-1.08-3.34-2.18-5-3.29c-4.2-2.82-8.7-4.81-13.29-6.72
		c-8.56-3.56-17.44-5.61-26.28-7.94c-1.98-0.52-3.91-1.32-5.85-2.03c-4.95-1.8-10.07-3.17-14.79-5.55
		c-6.66-3.36-13.23-7.08-18.82-12.54c-0.53-0.52-1.2-0.87-1.81-1.27c-4.74-3.07-9.46-6.18-14.24-9.17c-2.1-1.31-3.94-2.82-5.05-5.26
		c-0.83-1.81-2.91-2.4-3.41-4.66c-0.48-2.18-1.4-4.22-2.9-5.89c-0.55-0.61-0.8-1.57-1.11-2.41c-0.96-2.63-1.96-5.24-2.77-7.93
		c-0.57-1.91-0.89-3.91-1.25-5.89c-0.67-3.68-1.22-7.38-1.96-11.04c-0.62-3.04-0.9-5.97-0.06-9.08c0.7-2.6,1.03-5.35,1.28-8.07
		c0.3-3.3,1.49-6.05,3.23-8.67c1.82-2.73,3.38-5.67,5.12-8.47c0.63-1.01,1.41-1.93,2.21-2.79c3.07-3.33,6.24-6.55,10.16-8.63
		c1.07-0.57,2.3-0.74,3.47-1.07c1.55-0.45,3.2-0.64,4.65-1.35c6.06-2.97,12.3-4.28,18.75-2.19c6.06,1.96,12.24,3.15,18.43,4.43
		c6.31,1.31,12.45,3.49,17.93,7.4c5.33,3.8,10.46,7.95,15.85,11.61c4.93,3.35,8.66,8.14,12.81,12.41c4.11,4.23,8.02,8.7,11.95,13.14
		c2.43,2.75,4.69,5.69,7.1,8.47c4.04,4.65,8.16,9.2,12.2,13.85c1.06,1.22,1.92,2.66,2.9,3.98c1.34,1.8,1.29,1.73,2.66,0.08
		c5.77-6.95,8.93-15.25,10.28-24.49c0.16-1.12,0.28-2.28,0.19-3.4c-0.33-4.16,0.55-8.37-0.59-12.5c-0.89-3.24-1.53-6.57-2.32-9.85
		c-1.6-6.65-3.15-13.27-4.03-20.16c-1.08-8.5-2.46-17.03-5.2-25.15c-1.62-4.78-3.16-9.59-4.81-14.36c-2.41-6.98-8.4-16.88-5.66-24.4
		c1.11-3.04,3.98-3.66,6.6-5c3.21-1.65,6.27-3.28,9.01,0.37c0.86,1.14,2.04,1.32,3.05,1.95c4.26,2.68,8.43,5.56,12.46,8.64
		c2.17,1.65,4.11,3.73,5.97,5.83c4.3,4.87,8.48,9.87,12.73,14.81c0.78,0.9,1.55,1.83,2.44,2.58c4.81,4.04,9.67,7.99,14.47,12.05
		c1.37,1.16,2.48,2.71,3.87,3.83c3.88,3.13,7.83,6.17,11.8,9.16c0.9,0.68,1.99,1.08,3.03,1.5c3.87,1.55,4.86,5.19,2.4,8.91
		c-0.12,0.18-0.24,0.37-0.37,0.54c-2.18,2.87-3.24,5.34-3.77,8.81c-0.02,0.11,0,0.25-0.06,0.33c-2.3,3.79-1.57,8.38-2.65,12.49
		c-0.92,3.48-1.97,6.94-2.64,10.49c-0.83,4.44-1.53,8.93-1.91,13.44c-0.45,5.32-0.47,10.69-0.71,16.03
		c-0.31,7.15-1.02,14.31-0.87,21.44c0.14,6.74-0.48,13.37-0.81,20.05c-0.09,1.9,0.13,3.92,0.64,5.73c1.9,6.71,3.84,13.41,6.05,20.01
		c0.84,2.51,2.42,4.72,3.67,7.06c0.37,0.69,0.97,1.32,1.09,2.04c0.78,5,4.6,7.28,7.43,10.4c2.68,2.95,5.61,5.62,8.48,8.36
		c4.03,3.85,8.03,7.74,12.16,11.46c6.91,6.21,13.87,12.34,20.88,18.4c2.89,2.51,5.99,4.72,8.95,7.14
		c6.32,5.18,12.63,10.39,18.9,15.64c4.31,3.6,8.63,7.2,12.8,10.98c3.23,2.93,6.21,6.21,9.39,9.22c2.57,2.43,5.37,4.56,7.89,7.05
		c5.24,5.2,10.36,10.55,15.53,15.83c2.4,2.46,4.82,4.9,7.22,7.36c0.52,0.54,1.06,1.08,1.48,1.71c2.61,3.88,5.22,7.77,7.77,11.7
		c4.65,7.18,9.33,14.33,13.85,21.61c2.2,3.55,4.32,7.22,5.99,11.09c2.91,6.74,5.97,13.48,6.73,21.07c0.3,3.03,0.24,6.09,0.39,9.14
		c0.09,1.7,0.36,3.39,0.41,5.1c0.06,2.04,0.05,4.08-0.05,6.11c-0.23,4.66-0.45,9.32-0.82,13.97c-0.16,2-0.67,3.96-1.04,5.94
		c-0.11,0.55-0.35,1.07-0.46,1.63c-1.32,6.82-5.79,10.67-10.68,14.16c-1.8,1.29-3.53,2.71-5.35,3.96c-0.95,0.65-2,1.12-3.04,1.57
		c-1.89,0.81-4.2,1.05-5.64,2.42c-3.01,2.86-6.79,3.47-10.18,5.15c-1.65,0.82-3.77,0.71-5.66,0.6c-5.6-0.33-11.24-0.72-16.57-2.74
		c-3.84-1.46-7.51-3.51-11.21-5.39c-1.2-0.61-2.23-1.6-3.41-2.26c-5.66-3.16-10.06-8.06-14.29-13.09
		c-5.16-6.13-10.14-12.45-14.96-18.92c-4.03-5.41-7.63-11.2-11.56-16.7c-1.11-1.55-2.67-2.69-4.06-3.98
		c-0.46-0.43-1.02-0.75-1.53-1.12c0.12,0.64,0.13,1.33,0.37,1.91c3.8,9.31,7.7,18.58,12.7,27.2c2.21,3.8,4.65,7.42,6.97,11.14
		c3.43,5.5,6.75,11.08,10.31,16.48c1.92,2.91,4.17,5.58,6.41,8.21c2.31,2.72,4.85,5.19,7.17,7.9c1.61,1.88,3,3.99,4.51,5.98
		c1.96,2.61,4,5.15,5.9,7.81c2.2,3.09,4.41,6.18,6.41,9.43c2.77,4.5,5.35,9.14,7.99,13.74c0.38,0.67,0.77,1.38,0.96,2.13
		c1.11,4.31,3.67,7.48,6.43,10.53c0.55,0.61,0.8,1.55,1.16,2.36c1.86,4.16,3.4,8.54,5.65,12.42c2.17,3.74,3.56,7.73,4.89,11.85
		c1.19,3.71,2.28,7.45,3.82,11.05c1.55,3.64,2.45,7.71,3.15,11.69c1.2,6.9,2.24,13.85,2.95,20.83c0.79,7.77,1.25,15.59,1.59,23.4
		c0.11,2.44-0.58,4.94-1.04,7.38c-0.6,3.22-1.62,6.38-1.91,9.62c-0.2,2.21-1.03,3.76-2.05,5.49c-2.58,4.35-4.65,9.13-7.53,13.2
		c-3.5,4.94-6.96,9.86-11.91,13.52c-4.72,3.49-9.67,6.19-14.77,8.7c-1.44,0.71-3.14,0.77-4.73,1.1c-1.6,0.33-3.35,0.28-4.78,1
		c-3.06,1.53-6.28,1.03-9.37,1.08c-3.08,0.05-6.23-0.84-9.25-1.75c-4.62-1.39-9.32-2.6-13.55-5.27
		c-5.62-3.54-11.11-7.35-14.92-13.28c-1.8-2.8-2.99-6.16-4.11-9.41c-1.5-4.34-2.77-8.79-3.97-13.25
		c-2.56-9.58-4.91-19.22-6.35-29.12c-0.88-6.05-2.21-12.02-3.28-18.04c-0.55-3.11-1.09-6.24-1.39-9.4
		c-0.45-4.75-0.72-9.51-0.99-14.28c-0.34-5.99-0.57-11.99-0.89-17.98c-0.32-5.98-0.67-11.97-1.07-17.94
		c-0.52-7.8-0.99-15.61-1.69-23.4c-0.57-6.31-1.04-12.67-3-18.73c-1.57-4.84-3.91-9.18-6.71-13.21c-0.72-1.04-1.8-1.7-3.22-1.61
		c-2.83,0.18-5.38,0.82-7.22,3.51c-2.59,3.78-5.26,7.49-6.26,12.29c-0.27,1.32-0.95,2.53-1.27,3.84c-0.53,2.17-1.08,4.36-1.33,6.58
		c-0.71,6.3-1.4,12.61-1.85,18.94c-0.28,3.96-0.15,7.96-0.17,11.94c-0.04,7.27,0.06,14.54-0.13,21.81
		c-0.08,2.93-0.77,5.85-1.17,8.77c-0.78,5.84-1.46,11.7-2.36,17.51c-0.66,4.24-1.48,8.46-2.52,12.6c-0.42,1.67-1.44,3.28-2.51,4.58
		c-2.65,3.21-4.62,6.91-6.75,10.52c-2.41,4.06-4.89,8.12-7.75,11.79c-3.26,4.19-7.14,7.69-11.46,10.53
		c-1.05,0.69-2.07,1.47-3.07,2.26c-2.08,1.66-4.18,3.02-6.85,3.52c-4.08,0.77-8.04,2.33-12.11,3.21c-2.26,0.49-4.68,0.6-6.96,0.31
		c-3.43-0.43-6.8-1.4-10.21-2.07c-2.99-0.58-6.05-0.84-8.99-1.65c-2.67-0.73-5.19-2-7.16-4.34c-0.83-0.99-1.77-1.97-2.82-2.62
		c-5.06-3.16-7.41-8.35-8.49-14.31c-0.87-4.76-1.56-9.54-1.64-14.5c-0.12-8.23,1.42-16.02,3.48-23.79
		c2.61-9.87,6.15-19.31,10.64-28.29c1.93-3.86,4.4-7.38,6.57-11.1c5.02-8.59,9.93-17.25,15.04-25.77c2.09-3.49,4.34-6.93,6.92-9.98
		c4.8-5.68,8.64-12.13,12.58-18.5c3.81-6.17,7.81-12.24,11.1-18.74c3.19-6.3,7.03-12.35,8.75-19.43c1.16-4.76,2.54-9.54,2.02-14.68
		c-0.21-2.08-0.21-4.12-0.57-6.25c-0.73-4.3-3.12-5.73-6.41-5.82c-2.3-0.06-4.63,0.59-6.93,1.05c-0.98,0.19-1.92,0.67-2.86,1.06
		c-0.95,0.4-2.25,0.56-2.75,1.34c-1.84,2.84-4.67,3.36-7.3,4.48c-1.71,0.73-3.24,1.9-4.04,3.95c-0.27,0.68-0.9,1.2-1.38,1.77
		c-0.84,0.98-1.84,1.84-2.54,2.94c-4.44,6.95-8.83,13.95-13.21,20.95c-2.62,4.19-5.34,8.33-7.74,12.67
		c-1.97,3.58-3.54,7.43-5.28,11.16c-0.05,0.1-0.08,0.21-0.13,0.31c-2.79,5-5.58,9.99-8.36,15c-0.69,1.25-1.25,2.6-1.98,3.82
		c-3.14,5.3-6.44,10.49-9.47,15.86c-3.88,6.89-9.26,12.38-13.7,18.73c-1.76,2.51-3.62,4.96-5.19,7.61
		c-5.42,9.1-13.2,14.67-22.06,18.72c-4.73,2.16-9.44,4.22-14.51,5.36c-8.23,1.85-16.06,0.55-23.72-2.87c-0.83-0.37-1.64-1-2.23-1.74
		c-2.81-3.51-6.08-6.38-9.53-9.04c-3.69-2.84-5.77-6.84-7.13-11.54c-1.96-6.77-1.36-13.61-1.04-20.49c0.18-3.97,2.1-7.33,2.73-11.13
		c0.24-1.44,0.57-2.87,0.9-4.29c0.15-0.64,0.3-1.34,0.63-1.87c2.55-4.21,5.12-8.42,7.73-12.58c1.17-1.86,2.47-3.61,3.7-5.41
		c3.41-4.97,6.01-10.47,8.65-15.95c1.2-2.48,2.47-4.93,3.64-7.43c2.09-4.47,2.81-9.19,1.94-14.18c-0.44-2.53-0.92-2.97-3.11-1.9
		c-3.44,1.68-6.83,3.49-10.17,5.4c-3.9,2.23-7.81,4.46-11.56,6.98c-4.29,2.89-7.93,6.7-11.38,10.74c-1.18,1.38-2.7,2.39-3.94,3.71
		c-2.27,2.4-4.86,4.44-6.48,7.58c-0.6,1.16-1.45,2.26-2.4,3.07c-4.28,3.65-8.42,7.5-12.76,11.08c-4.25,3.51-9.3,5.58-13.16,9.73
		c-0.96,1.03-2.79,1.26-4.26,1.47c-2.22,0.31-4.48,0.47-6.71,0.34c-1.7-0.09-3.51-0.4-5.03-1.19c-2.83-1.46-5.7-3.04-8.17-5.13
		c-3.06-2.57-5.76-5.67-8.56-8.61c-3.16-3.33-3.98-7.7-4.15-12.28c-0.22-5.85,0.37-11.55,2.34-17.07c0.71-1.97,0.61-4.29,1.25-6.3
		c2.99-9.47,7.86-17.72,13.66-25.32c3.04-3.98,6.05-8.01,9.25-11.84c4.65-5.55,10.45-9.51,16.17-13.47
		c6.92-4.8,14.06-9.23,21.23-13.56c8.11-4.89,16.75-8.36,25.62-11.13c2.36-0.74,4.65-1.74,7.03-2.38c4.74-1.27,9.53-2.33,14.28-3.57
		c2.98-0.78,5.92-1.71,8.88-2.58c2.76-0.8,5.57-1.47,8.28-2.45c2.01-0.73,3.97-1.72,5.83-2.83c3.49-2.08,6.99-4.17,10.31-6.56
		c2.19-1.57,4.46-3.35,6.02-5.61c3.03-4.41,1.85-8.43-2.97-11.64c-4.1-2.73-8.62-3.74-13.41-3.85c-3.75-0.08-7.49-0.83-11.24-1.11
		c-1.5-0.11-3.03,0.26-4.55,0.4c-2.44,0.22-4.88,0.59-7.31,0.6c-5.2,0-10.29,1.25-15.52,1.42c-6.26,0.2-12.46-0.2-18.65-0.64
		c-5.96-0.42-11.93-1.26-17.59-3.93c-3.83-1.81-7.94-2.85-11.85-4.48c-5.77-2.4-10.54-6.46-14.16-11.97
		c-1.16-1.77-1.81-4.08-2.31-6.25c-1.4-6.11-2.45-12.21,0.54-18.24c1.77-3.57,3.01-7.47,4.77-11.05
		c3.79-7.73,9.72-13.36,15.49-19.14c4-4.01,8.81-6.55,13.57-9.18c4.12-2.27,8.24-4.52,12.36-6.77c5.53-3.02,11.38-4.97,17.37-6.46
		c3.08-0.76,6.17-1.66,9.29-2.01C187.26,286.54,194.39,286.05,201.51,285.45z"/>
</g>
</svg>
