<?xml version="1.0" encoding="utf-8"?>
<!-- Generator: Adobe Illustrator 26.0.3, SVG Export Plug-In . SVG Version: 6.00 Build 0)  -->
<svg version="1.1" id="Layer_1" xmlns="http://www.w3.org/2000/svg" xmlns:xlink="http://www.w3.org/1999/xlink" x="0px" y="0px"
	 viewBox="0 0 612 792" style="enable-background:new 0 0 612 792;" xml:space="preserve">
<g>
	<path d="M279.13,409.62c-1.42-4.29-3.2-7.82-5.82-10.87c-3.49-4.06-7.52-7.5-12.1-10.28c-3.29-2-6.19-4.55-9.46-6.59
		c-4.81-2.99-9.95-5.32-14.99-7.84c-2.85-1.43-5.66-2.94-8.53-4.32c-7.61-3.64-15.07-7.49-21.92-12.48
		c-3.37-2.46-6.93-4.67-10.52-6.8c-1.77-1.05-3.33-2.38-5.03-3.51c-2.85-1.9-5.89-3.5-8.55-5.73c-1.45-1.21-2.57-2.72-4.14-3.8
		c-3.22-2.22-5.99-5-9.12-7.35c-2.26-1.7-3.85-4.19-5.69-6.37c-2.7-3.19-4.67-6.91-7.27-10.13c-2.96-3.66-4.72-7.8-6.34-12.07
		c-1.23-3.23-3.37-5.97-4.73-9.14c-0.58-1.36-1.09-2.73-1.43-4.17c-1.14-4.84-2.27-9.68-3.4-14.52c-0.62-2.64-0.41-5.37-0.83-8.02
		c-0.26-1.66,0.06-3.38-0.61-4.99c-0.03-0.07-0.06-0.16-0.04-0.24c0.5-3.8-0.26-7.71,0.91-11.43c0.87-2.76,1.21-5.58,1.44-8.44
		c0.11-1.38,0.3-2.76,0.48-4.14c0.05-0.4,0.1-0.86,0.32-1.18c1.13-1.67,2.21-3.38,3.49-4.92c2.29-2.73,5.59-2.69,8.62-2.3
		c5.33,0.7,10.58,1.94,15.82,3.26c5.37,1.35,10.35,3.57,15.32,5.83c2.27,1.03,4.37,2.52,6.51,3.88c2.14,1.36,4.26,2.72,6.37,4.12
		c2.68,1.77,4.79,4.15,7.17,6.23c4.18,3.65,7.62,8.04,11.5,12.01c1.39,1.42,2.47,3.05,3.55,4.69c0.9,1.36,1.77,2.76,3.01,3.85
		c0.51,0.45,0.83,1.01,1.09,1.61c0.79,1.81,1.94,3.39,3.06,5.01c3.39,4.91,6.49,10.02,9.98,14.85c2.99,4.14,4.64,9.01,7.61,13.14
		c1.81,2.52,3.35,5.23,5.13,7.78c2.2,3.16,4.02,6.53,5.99,9.82c1.74,2.89,3.79,5.58,6.09,8c2.93,3.09,5.57,6.41,8.45,9.54
		c3.69,4.02,7.81,7.42,12.7,9.83c2.72,1.34,5.68,2.08,8.7,1.88c1.69-0.11,3.08-1.32,3.99-2.83c1.68-2.8,2.16-5.94,2.52-9.12
		c0.32-2.8,0.05-5.47-0.84-8.18c-0.73-2.22-0.91-4.59-1.63-6.87c-1.12-3.55-2.69-6.86-4.6-10c-1.44-2.36-3.06-4.64-4.88-6.71
		c-1.57-1.79-2.85-3.78-4.29-5.64c-2.11-2.72-4.6-5.07-6.83-7.67c-0.69-0.81-1.41-1.56-1.92-2.52c-0.85-1.59-1.95-2.98-3.24-4.28
		c-1.84-1.86-3.35-4.04-4.86-6.13c-3.76-5.21-8.3-9.7-12.49-14.51c-1.9-2.18-4.25-3.93-5.63-6.65c-0.65-1.28-1.94-2.59-3.61-3.07
		c-0.67-0.19-1.14-0.68-1.44-1.27c-0.47-0.94-0.73-2-1.91-2.39c-0.22-0.07-0.42-0.53-0.43-0.81c-0.01-0.71-0.01-1.28-1.02-1.02
		c-0.17,0.04-0.55-0.36-0.69-0.63c-1.18-2.37-3.53-3.99-4.49-6.41c-0.92-2.31-2.7-4.21-3.06-6.76c-0.15-1.06-0.62-2.02-1.09-2.99
		c-3.27-6.71-5.93-13.63-7.36-20.99c-0.47-2.41-1.24-4.74-1.66-7.17c-0.23-1.35,0.36-2.66-0.04-3.88
		c-1.33-3.98-0.85-8.09-1.02-12.14c-0.13-3.16,0.22-6.35,0.41-9.53c0.03-0.48,0.11-0.95,0.05-1.45c-0.37-3.27,0.16-6.42,0.79-9.64
		c0.43-2.18,0.6-4.5,0.65-6.78c0.04-1.5-0.27-3.1,1-4.39c0.43-0.43,0.25-1.08-0.16-1.58c-0.56-0.68-0.83-1.49-0.51-2.3
		c1.84-4.55,1.48-9.61,3.32-14.16c0.54-1.34,0.58-2.85,0.96-4.27c1.08-4.05,3.42-7.61,4.31-11.71c0.36-1.67,1.82-2.72,2.89-3.91
		c2.94-3.26,6.25-6.05,10.85-6.63c3.01-0.38,5.83,0.27,8.28,2.01c2.59,1.84,4.91,4.01,7.06,6.39c1.34,1.49,2.43,3.14,3.26,4.85
		c1.11,2.29,2.81,4,4.42,5.82c4.78,5.4,9.01,11.17,12.57,17.48c2.44,4.34,4.69,8.8,7.58,12.89c0.75,1.06,1.36,2.22,1.7,3.51
		c1.08,4.12,2.93,7.96,4.41,11.94c2.21,5.97,4.81,11.8,6.83,17.85c0.98,2.95,2.25,5.8,3.22,8.75c1.73,5.28,3.34,10.6,5.21,15.83
		c0.3,0.83,0.32,1.77,0.47,2.65c0.1,0.56,0.14,1.15,0.93,1.44c1.6-1.84,2.46-4.15,3.61-6.27c2.07-3.8,3.98-7.7,6.14-11.43
		c2.03-3.51,4.19-6.98,6.73-10.21c3.43-4.37,6.5-9.02,9.78-13.51c2.17-2.97,4.3-5.98,6.96-8.54c2.54-2.44,4.61-5.29,7.14-7.76
		c1.96-1.92,4.26-3.33,6.43-4.91c1.6-1.17,3.05-2.45,4.44-3.83c0.89-0.89,1.86-1.54,3.13-1.81c2.1-0.45,3.98-1.42,5.75-2.64
		c0.6-0.41,1.27-0.8,1.97-0.98c3.78-1.02,7.58-1.98,11.38-2.96c0.23-0.06,0.5-0.09,0.73-0.05c4.02,0.79,8.18,0.13,12.18,1.18
		c0.24,0.06,0.48,0.18,0.71,0.17c4.4-0.27,7.67,2.34,11.22,4.3c2.94,1.62,5.1,4.07,7.34,6.42c1.7,1.79,2.76,4.04,3.85,6.23
		c1.3,2.62,2.5,5.29,3.69,7.96c0.23,0.51,0.31,1.11,0.33,1.67c0.23,6.55,0.26,13.09-0.77,19.6c-0.17,1.06-0.42,2.09-0.72,3.1
		c-0.92,3.13-1.84,6.25-2.9,9.33c-2.87,8.34-6.9,16.05-12.52,22.91c-2.74,3.35-5.26,6.88-7.94,10.28c-2.02,2.56-4.03,5.14-6.24,7.54
		c-2.39,2.6-4.09,5.75-6.61,8.21c-3.51,3.42-6.61,7.23-9.64,11.02c-3.27,4.08-7.21,7.53-10.1,11.99c-2.33,3.6-5.15,6.96-7.89,10.31
		c-1.58,1.92-2.5,4.22-3.71,6.34c-0.92,1.62-1.86,3.22-2.81,4.83c-2.46,4.14-4.54,8.51-7.13,12.56c-2.13,3.34-2.89,7.27-5.11,10.56
		c-1.05,1.55-0.84,3.61-1.35,5.75c1.99-0.76,3.46-1.86,5.04-2.74c5.29-2.96,10.1-6.68,15.28-9.78c5.54-3.33,11.53-5.77,17.79-7.57
		c4.06-1.16,8.21-1.4,12.35-1.81c2.84-0.28,5.68-0.57,8.56-0.61c4.89-0.08,9.27,1.8,13.77,3.22c3.42,1.08,5.87,3.52,8.03,6.21
		c1.08,1.34,2.2,2.64,3.37,3.89c4.04,4.3,5.27,9.44,4.82,15.15c-0.07,0.88,0.09,1.78,0.08,2.67c-0.03,2.59-1.31,4.83-2.09,7.19
		c-1.35,4.08-4.03,7.19-7.54,9.62c-0.87,0.6-1.61,1.39-2.4,2.11c-3.88,3.53-8.22,6.5-12.54,9.41c-4.98,3.36-9.88,6.91-15.23,9.71
		c-1.22,0.64-2.29,1.56-3.44,2.34c-0.61,0.41-1.18,0.93-1.85,1.19c-3.77,1.44-6.99,3.85-10.46,5.81c-2.26,1.28-4.69,2.31-6.88,3.74
		c-3.01,1.96-6.3,3.43-9.2,5.6c-3.25,2.45-6.69,4.64-10.02,6.98c-6.27,4.42-12.37,9.05-17.96,14.34c-2.21,2.09-4.38,4.19-6.08,6.69
		c-2.49,3.65-4.59,7.48-4.68,12.12c-0.03,1.53,0.67,2.84,0.73,4.31c0.03,0.78,0.77,0.94,1.46,1.05c1.72,0.27,3.47,0.28,5.12-0.13
		c7.05-1.75,13.04-5.49,18.52-10.15c0.56-0.48,1.08-1.01,1.69-1.42c4.15-2.79,7.88-6.1,11.82-9.15c4.2-3.26,8.65-6.16,13.19-8.94
		c3.41-2.1,7.14-3.52,10.54-5.61c3.27-2.01,7.09-2.6,10.77-3.19c3.99-0.64,8.03-1.43,12.15-0.76c3.16,0.51,6.17,1.59,9.29,2.24
		c0.58,0.12,1.05,0.75,1.6,1.09c3.14,1.92,6.22,3.94,9.01,6.34c2.66,2.28,4.6,5.09,6.11,8.28c1.17,2.48,1.77,4.93,1.82,7.69
		c0.03,1.76,0.4,3.56,0.44,5.36c0.04,2.18-0.48,4.13-1.47,6.11c-1.08,2.17-1.56,4.62-2.58,6.86c-0.64,1.41-1.14,2.89-1.7,4.34
		c-0.3,0.78-0.71,1.51-1.34,2.03c-3.12,2.62-5.25,6-7.44,9.37c-2.62,4.04-5.46,7.89-8.87,11.36c-3.31,3.38-6.31,7.07-9.35,10.72
		c-2.79,3.33-5.36,6.82-7.74,10.41c-2.66,4.01-5.27,8.1-7.22,12.54c-0.23,0.52-0.42,1.1-0.77,1.53c-1.41,1.67-1.97,3.71-2.82,5.66
		c-3.24,7.51-4.13,15.41-4.38,23.47c-0.21,6.64,0.22,13.25,0.85,19.85c0.13,1.38-0.05,2.78,0.02,4.17
		c0.3,5.72,0.71,11.42,1.81,17.08c0.7,3.6,1.06,7.28,1.7,10.91c0.53,2.99,1.3,5.91,1.93,8.87c0.24,1.12,0.56,2.22,0.77,3.35
		c0.37,2,0.79,4.01,1.16,6c0.61,3.35,0.38,6.81-2.75,9.13c-2.62,1.94-5.66,2.35-8.83,1.91c-0.81-0.11-1.6-0.35-2.4-0.47
		c-3.44-0.52-6.5-1.94-9.5-3.68c-3.65-2.11-7.05-4.77-11.4-5.51c-3.31-0.56-6.27-2.21-9.26-3.6c-2.91-1.35-3.87-4.61-2.6-7.49
		c0.6-1.36,0.64-2.79,0.42-4.1c-0.56-3.45,0.13-6.86,0.02-10.28c-0.17-5.48-0.32-10.95-1.48-16.34c-0.71-3.27-1.29-6.58-1.7-9.9
		c-0.48-3.93-1.81-7.64-2.69-11.46c-1.09-4.78-1.67-9.67-3.02-14.4c-0.94-3.3-1.95-6.54-3.25-9.74c-2.32-5.7-4.95-11.25-8.02-16.55
		c-2.78-4.8-5.94-9.42-10.35-12.98c-0.26-0.21-0.59-0.37-0.75-0.63c-2.12-3.64-5.69-5.77-8.68-8.5c-1.39-1.27-2.81-2.48-4.27-3.66
		c-2.59-2.08-5.82-2.96-8.51-4.85c-4.6-3.22-9.88-4.95-15.1-6.89c-6.37-2.37-12.88-4.27-19.39-6.03c-4.73-1.28-9.26-3.18-14.03-4.23
		c-3.35-0.74-6.63-1.75-10-2.43c-3.51-0.71-7.1-1.22-10.49-2.52c-0.46-0.17-0.92-0.38-1.4-0.43c-3.93-0.45-7.57-1.92-11.31-3.08
		c-4.99-1.56-9.85-3.42-14.65-5.51c-3.26-1.42-6.96-1.84-10.23-3.25c-4.12-1.78-8.26-3.65-11.07-7.55
		c-1.57-2.18-3.34-4.21-4.75-6.53c-1.07-1.76-1.7-3.69-2.57-5.49c-1.57-3.24-1.41-6.53-1.22-9.85c0.26-4.53,1.46-8.94,3.57-12.92
		c2.37-4.47,5.53-8.48,9.3-11.9c2.44-2.21,5.37-3.75,8.38-5.06c5.12-2.22,10.35-4.16,15.84-5.16c3.88-0.71,7.87-0.53,11.72,0.32
		c3.52,0.77,7.12,0.91,10.63,1.81c4.04,1.04,8.09,2.1,11.95,3.63c1.7,0.68,3.27,1.79,5.06,2.36c3.44,1.09,6.5,3,9.77,4.46
		c1.29,0.58,2.37,1.43,3.59,2.09c4.66,2.55,9.57,4.58,14.31,6.95c3.5,1.75,6.96,3.58,10.5,5.25
		C274.75,408.08,276.75,408.71,279.13,409.62z"/>
</g>
</svg>
