<?xml version="1.0" encoding="utf-8"?>
<!-- Generator: Adobe Illustrator 26.0.3, SVG Export Plug-In . SVG Version: 6.00 Build 0)  -->
<svg version="1.1" id="Layer_1" xmlns="http://www.w3.org/2000/svg" xmlns:xlink="http://www.w3.org/1999/xlink" x="0px" y="0px"
	 viewBox="0 0 612 792" style="enable-background:new 0 0 612 792;" xml:space="preserve">
<g>
	<path d="M433.39,108.37c0.71,3.41,0.08,6.69-0.54,9.98c-0.35,1.88-0.84,3.79-0.6,5.71c1.13,8.99-1.11,17.41-4.11,25.73
		c-0.99,2.75-1.73,5.59-2.26,8.48c-0.94,5.19-2.98,10.01-5.12,14.79c-0.99,2.21-2.14,4.38-2.83,6.68
		c-2.12,7.1-6.67,12.84-10.28,19.13c-2.63,4.59-6.01,8.6-9.06,12.85c-5.64,7.84-11.53,15.5-17.29,23.26
		c-4.44,5.98-9.33,11.64-14.13,17.35c-1.41,1.68-2.14,3.68-2.78,5.6c-1,3.01,0.62,5.73,2.3,8.15c0.78,1.13,2.26,0.95,3.38,0.53
		c5.06-1.94,10.07-4.03,14.67-6.95c0.51-0.32,1.19-0.6,1.44-1.08c1.4-2.76,4.11-3.84,6.63-4.96c3.43-1.52,6.06-4.05,8.59-6.6
		c2.29-2.3,4.6-4.46,7.25-6.37c4.76-3.42,9.01-7.45,13.02-11.75c2.4-2.58,5.34-4.57,8.17-6.69c5.49-4.11,10.87-8.43,14.77-14.21
		c1.75-2.6,4.58-2.61,7.15-3.27c0.45-0.12,1.04,0.28,1.49,0.15c5.08-1.49,8.58,1.92,12.55,3.93c4,2.03,5.24,5.66,5.8,9.66
		c0.28,2.02,0.73,4.04,1.46,5.86c1.11,2.79,0.89,5.52,0.58,8.32c-0.17,1.52-0.25,3.03,0.02,4.53c0.46,2.62,0.52,5.22,0.07,7.84
		c-0.1,0.59-0.22,1.25-0.07,1.8c0.76,2.88,0.07,5.67-0.65,8.37c-1.17,4.39-1.47,8.93-2.53,13.31c-0.64,2.62-1.83,5.1-2.86,7.61
		c-0.81,1.96-1.54,3.92-2.05,6.01c-1.08,4.45-3.44,8.4-5.6,12.36c-3.04,5.57-6.62,10.84-9.88,16.29c-1.45,2.42-2.68,4.96-4.01,7.45
		c-1.29,2.42-3,4.58-4.79,6.61c-4.99,5.69-9.65,11.73-15.45,16.63c-4.23,3.58-7.72,7.91-12.28,11.18c-3.4,2.44-6.43,5.48-9.67,8.21
		c-3.43,2.89-7.56,4.51-11.28,6.85c-4.86,3.05-9.33,6.65-14.18,9.71c-1.49,0.94-2.61,2.52-3.79,3.89
		c-3.78,4.37-6.91,9.11-8.51,14.78c-0.67,2.37-0.61,4.56,0.49,6.73c1.51,3.01,3.39,5.77,6.13,7.76c4.44,3.21,9.2,2.65,14.14,1.18
		c4.29-1.27,6.36-4.75,8.8-7.9c5.67-7.35,11.34-14.71,17.43-21.7c3.36-3.86,6.54-7.92,10.43-11.31c2.52-2.2,5.02-4.42,8.41-5.19
		c1.82-0.42,3.25-1.68,4.73-2.6c2.49-1.53,5.19-2.06,7.85-2.9c0.67-0.21,1.37-0.46,2.05-0.47c3.15-0.03,6.18,0.79,9.23,1.43
		c0.84,0.18,1.74,0.72,2.32,1.36c3.03,3.34,6.44,6.38,8.94,10.16c1.35,2.04,1.62,4.54,1.68,6.97c0.02,0.92-0.07,1.8,0.37,2.65
		c1.13,2.19,0.79,4.52,0.65,6.84c-0.21,3.39-0.43,6.78-0.49,10.18c-0.02,1.23-0.08,2.36-0.65,3.5c-0.72,1.44-1.2,3-1.83,4.49
		c-0.35,0.83-0.66,1.76-1.24,2.41c-4.46,4.96-6.86,11.15-10.17,16.8c-0.25,0.43-0.38,0.96-0.7,1.34
		c-4.84,5.82-8.4,12.61-13.66,18.11c-3.55,3.71-6.94,7.59-10.76,10.99c-2,1.78-4.06,3.53-6.13,5.24c-2.18,1.8-4.67,3.18-7.68,3.92
		c-4.27,1.06-8.18,3.4-12.43,4.74c-1.48,0.47-2.94,0.73-4.45,0.72c-2.9-0.03-5.8,0.08-8.61,0.74c-1.93,0.45-3.79,1.09-5.82,1.21
		c-1.08,0.07-2.14,0.25-3.26,0.25c-1.81-0.01-3.67,0.12-5.41,0.58c-3.91,1.03-7.79,0.9-11.69,0.12c-4.7-0.94-9.4-0.53-14.13-0.23
		c-4.23,0.27-5.84,3.03-7.1,6.35c-0.47,1.24-0.46,2.57-0.62,3.87c-0.63,5.14,0.18,10.27,0.03,15.4c-0.16,5.49,0.83,10.85,1.43,16.27
		c0.77,7.03,0.2,14.14,0.4,21.21c0.07,2.69,0.85,5.19,1.82,7.61c1.24,3.1,3.03,3.63,5.62,1.66c1.39-1.06,3.02-1.59,4.42-2.61
		c5.91-4.31,10.72-9.76,15.68-15.05c5.11-5.45,10.03-11.06,15.2-16.46c2.5-2.62,4.97-5.3,7.41-7.98
		c5.32-5.84,11.18-11.01,17.71-15.53c7.22-5,14.4-10.07,22.07-14.31c3.71-2.05,7.71-3.91,11.96-4.93c0.48-0.12,0.91-0.42,1.38-0.62
		c3.74-1.62,8.94-0.62,11.7,2.27c0.27,0.28,0.51,0.66,0.59,1.03c0.34,1.52-0.1,3.5,2.36,3.69c0.17,0.01,0.41,0.48,0.44,0.76
		c0.46,4.6,3.25,8.34,4.68,12.59c1.62,4.82,2.63,9.73,3.09,14.77c0.09,1.01,0.06,2.04,0.27,3.02c1.14,5.4-0.09,10.64-0.91,15.92
		c-0.8,5.2-1.9,10.35-3.7,15.26c-1.1,3-1.8,6.47-4.98,8.32c-4.17,5.7-10.02,9.64-15.21,14.26c-4.47,3.98-9.72,6.77-15.02,9.52
		c-4.55,2.36-9.29,4.31-13.81,6.75c-3.61,1.95-7.6,3.32-11.54,4.52c-3.49,1.05-6.67,2.98-10.26,3.64c-2.85,0.52-5.39,2.21-8.38,2.15
		c-0.94-0.02-1.79,0.32-2.45,1.02c-5.99,6.31-11.62,12.9-15.41,20.83c-0.83,1.74-2.03,3.22-2.97,4.9
		c-3.47,6.23-5.28,13.08-7.8,19.66c-1.48,3.86-3.23,7.69-3.67,11.81c-0.36,3.42-1.85,6.51-2.27,9.88c-0.42,3.4-0.83,6.81-1.4,10.19
		c-0.43,2.57-1.1,5.09-1.42,7.71c-0.97,8-2.25,15.97-3.29,23.97c-0.27,2.09-0.2,4.24-0.15,6.36c0.15,7.56-0.22,15.11-1.39,22.56
		c-0.38,2.44-0.8,4.66-0.02,7.04c0.4,1.21-0.05,2.36-0.8,3.42c-0.91,1.28-2.12,2.18-3.44,2.92c-3.62,2.03-7,4.34-10.24,6.97
		c-2.28,1.85-5.33,2.39-8.31,2.22c-1.84-0.11-3.62-0.08-5.42,0.25c-2.02,0.37-4.11,0.4-6.01-0.32c-4.07-1.56-8.34-2.35-12.52-3.48
		c-3.89-1.05-7.85-1.89-11.82-2.56c-2.58-0.43-4.76-1.62-6.95-2.84c-1.32-0.73-6-7.93-6.27-9.39c-0.49-2.61-0.42-5.23-0.01-7.85
		c0.82-5.29,1.85-10.55,2.41-15.87c0.83-7.93,1.22-15.91,0.77-23.89c-0.06-1-0.15-2.04-0.45-2.99c-0.88-2.71-1.32-5.48-1.45-8.32
		c-0.15-3.27-1.09-6.3-2.45-9.29c-1.5-3.3-2.45-6.85-3.8-10.2c-1.54-3.79-3.31-7.55-5.67-10.97c-0.34-0.5-0.88-0.95-1-1.5
		c-1.18-5.37-5.13-8.57-9.13-11.67c-8.74-6.79-18.43-11.96-28.51-16.45c-0.45-0.2-0.95-0.32-1.45-0.42
		c-3.66-0.72-7.3-1.48-10.86-2.71c-2.15-0.74-4.57-0.72-6.87-1.03c-2.52-0.34-5.02-0.83-7.33-1.86c-4.13-1.86-8.63-1.97-12.95-2.89
		c-3.27-0.7-6.49-1.53-9.7-2.42c-4.86-1.34-9.79-2.45-14.63-3.84c-5.71-1.64-11.46-3.17-16.34-6.95c-3.5-2.72-7.42-4.88-11.1-7.36
		c-5.19-3.5-9.3-8-12.26-13.55c-0.56-1.06-1.35-2.02-2.13-2.95c-4.15-4.97-7.41-10.57-11.26-15.74c-3.95-5.31-6.06-11.36-8.47-17.34
		c-0.23-0.56-0.35-1.18-0.64-1.7c-1.99-3.58-2.06-7.41-2.07-11.4c-0.01-3.6-0.51-7.23-0.62-10.86c-0.08-2.66,0.24-5.21,0.94-7.77
		c0.82-3,1-6.13,2.31-9.04c1.53-3.38,2.5-7.02,4.56-10.16c1.28-1.96,1.2-4.24,1.55-6.4c0.72-4.49,2.08-8.62,5.55-11.79
		c0.37-0.34,0.68-0.76,0.92-1.19c3.19-5.72,8.6-6.84,14.46-6.85c1.47,0,3.01,0.73,4.24,1.36c3.98,2.03,8.41,2.81,12.35,4.93
		c1.73,0.93,3.25,2.04,4.62,3.37c3.7,3.59,7.85,6.66,11.75,10.01c3.36,2.89,6.51,6.04,9.65,9.18c2.77,2.79,5.44,5.74,8.28,8.39
		c3.43,3.22,6.56,6.78,10.39,9.66c3.1,2.34,6.16,4.87,9.01,7.6c1.6,1.54,3.39,2.85,5.19,4.17c4,2.93,7.53,6.42,11.16,9.79
		c0.44,0.41,0.78,0.96,1.27,1.3c5.69,3.94,10.48,8.85,14.85,14.13c3.29,3.98,7.14,7.43,10.44,11.33c3.73,4.41,7.86,8.39,11.78,12.58
		c0.35,0.37,0.67,0.8,1.09,1.04c4.74,2.72,8.32,7.07,13.25,9.51c6.25,3.1,12.56,3.29,18.99,0.53c2.83-1.21,4.23-3.53,4.64-6.29
		c0.69-4.72,0.48-9.45-0.98-14.08c-0.96-3.06-1.77-6.16-2.64-9.25c-2.14-7.61-5.13-14.87-9.47-21.48
		c-3.47-5.28-8.09-9.54-13.16-13.26c-1.58-1.16-2.61-2.84-4.1-4.01c-8.57-6.72-17.15-13.31-27.24-17.88
		c-7.61-3.45-15.3-6.82-22.7-10.79c-4.96-2.67-9.96-5.32-15.34-7.13c-3.35-1.12-6.79-1.92-10.1-3.18
		c-7.41-2.82-14.37-6.36-20.12-11.95c-3.62-3.52-7.58-6.67-10.97-10.42c-5.65-6.24-10.53-12.98-13.92-20.75
		c-0.68-1.57-1.62-3.03-2.52-4.49c-1.13-1.82-2.04-3.68-2.11-5.91c-0.05-1.52-0.79-2.92-1.44-4.29c-1.51-3.16-2.19-6.49-2.14-9.99
		c0.05-3.54,0-7.06-0.33-10.6c-0.31-3.33,0.18-6.67,0.97-9.92c1.26-5.19,2.61-10.35,2.94-15.74c0.14-2.24,1.69-4.1,3.64-5.31
		c1.03-0.64,2.09-1.24,3.02-2.01c1.88-1.57,4.15-2.06,6.24-1.23c3.41,1.36,6.96,1.07,10.43,1.49c6.54,0.79,12.84,2.66,19.28,3.86
		c5.95,1.11,11.29,3.59,16.73,5.94c0.46,0.2,1,0.32,1.37,0.64c4.42,3.74,9.64,6.25,14.43,9.42c5.45,3.62,10.98,7.19,16.09,11.25
		c3.76,2.99,7.59,6.01,10.68,9.81c2.35,2.89,4.99,5.55,7.27,8.49c2.13,2.75,4.62,5.27,5.59,8.84c0.47,1.71,1.64,3.23,2.51,4.83
		c1.29,2.37,2.98,4.48,3.7,7.21c0.43,1.59,1.52,3.13,2.67,4.36c1.51,1.61,2.39,3.51,3.25,5.43c1.92,4.26,4.79,7.37,9.48,8.52
		c0.88,0.22,1.46,1.65,2.64,0.7c1.15-0.92,1.9-2.04,1.86-3.62c-0.15-6.17-0.75-12.2-3.36-17.97c-4.54-10.03-10.67-18.95-17.95-27.14
		c-5.38-6.05-11.4-11.4-17.47-16.73c-3.18-2.79-6.5-5.43-9.51-8.42c-3.16-3.15-6.78-5.65-10.62-7.95
		c-3.68-2.21-7.05-4.93-10.46-7.58c-3.81-2.96-7.89-5.62-11.71-8.58c-6.46-5-13.26-9.6-19.25-15.16
		c-5.42-5.03-10.05-10.88-13.88-17.15c-2.58-4.23-6.18-7.76-8.16-12.34c-1.14-2.65-3.27-4.79-3.51-7.94
		c-0.1-1.37-1.49-2.55-1.79-4.08c-1.8-9.32-5.96-17.94-8.19-27.14c-1-4.13-1.99-8.25-1.95-12.54c0-0.4,0.03-0.82-0.06-1.21
		c-1.83-7.24-2.52-14.71-4.49-21.92c-0.93-3.4-1.92-6.79-2.84-10.2c-0.34-1.26-0.77-2.56-0.79-3.85c-0.04-3.59-0.8-7.03-1.8-10.43
		c-1.31-4.47-1.75-9.11-2.89-13.62c-0.91-3.58,0.53-5.79,4.02-7.06c1.7-0.62,3.42-1.14,5.31-0.9c1.39,0.18,2.78-0.18,4.18-0.5
		c4.68-1.07,9.21-2.94,14.21-2.39c2.49,0.27,4.98-0.57,7.54-0.48c4.83,0.17,8.93,1.98,12.83,4.65c6.86,4.69,11.65,11.07,15.46,18.32
		c3.84,7.33,7.86,14.58,11.61,21.96c2.97,5.84,6.25,11.52,8.83,17.56c1.34,3.13,3.36,5.98,5.06,8.96
		c4.25,7.45,8.5,14.91,12.11,22.69c1.52,3.28,2.83,6.69,4.16,10.07c1.8,4.59,4.04,9.03,6.29,13.43c2.57,5.02,5.28,9.98,7.95,14.95
		c2.62,4.88,5.87,9.42,8.75,14.16c2.88,4.73,6,9.3,8.63,14.22c2.01,3.76,4.23,7.55,7.09,10.86c1.37,1.59,2.56,3.4,3.56,5.25
		c2.56,4.73,6.19,8.7,9.25,13.08c2.33,3.33,6.03,5.29,9.31,7.63c0.65,0.47,1.35,0.87,2.01,1.34c1.79,1.29,3.34,1.5,5.02,0.32
		c3.84-2.7,6.96-5.85,8.52-10.59c2.12-6.46,3.82-13,5.09-19.64c0.87-4.56,0.85-9.26,0.17-13.88c-0.9-6.09-1.75-12.21-3.1-18.22
		c-1.43-6.4-3.4-12.68-5.16-19c-1.6-5.76-3.94-11.26-6.59-16.59c-2.92-5.86-6.13-11.57-9.53-17.19c-2.97-4.91-5.81-9.92-9.24-14.51
		c-2.01-2.69-3.14-5.81-5.12-8.52c-5.4-7.42-9.82-15.51-15.13-23c-2.97-4.19-5.97-8.37-8.71-12.72c-1.28-2.02-3.17-3.65-4.59-5.6
		c-1.92-2.61-3.5-5.43-5.05-8.27c-2.75-5.04-5.72-9.97-8.18-15.17c-2.64-5.56-5.42-11.04-8-16.63c-1.9-4.13-4.06-8.12-6.13-12.16
		c-1.71-3.34-2.9-6.87-4.26-10.35c-2.88-7.36-4.35-15.13-6.71-22.64c-1.11-3.54-2.44-7.07-3.17-10.71
		c-0.96-4.76-1.12-9.61-1.05-14.47c0.09-5.84,1.15-11.41,4.29-16.45c0.27-0.43,0.37-0.99,0.71-1.32c2.65-2.63,5.21-5.38,8.08-7.74
		c1.52-1.26,3.67-1.68,5.74-1.55c1.4,0.08,2.45-0.37,3.6-1.18c4.41-3.09,9.39-4.46,14.77-4.35c1.21,0.02,2.26-0.62,3.55-0.54
		c4.48,0.28,8.53,1.98,12.68,3.39c4.22,1.43,7.73,3.87,10.7,7.09c1.43,1.55,2.75,3.23,3.91,4.99c4.41,6.65,8.51,13.39,10.82,21.21
		c1.85,6.26,3.7,12.58,6.06,18.68c3.25,8.41,5.07,17.21,7.49,25.84c1.25,4.44,1.88,9.07,3.54,13.41c1.01,2.64,2.14,5.24,3.42,7.75
		c1.7,3.34,2.24,7.15,4.35,10.3c2.35,3.51,3.8,7.53,6.41,10.92c1.7,2.21,4.06,3.42,6.44,4.31c1.83,0.69,3.67-0.65,4.91-2.2
		c1.52-1.89,2.67-4,3.65-6.24c1.75-3.99,2.8-8.22,4.31-12.29c3.49-9.47,5.97-19.26,8.94-28.9c2.79-9.08,5.9-18.05,9.47-26.83
		c2.31-5.67,4.35-11.59,7.86-16.66c3.38-4.87,6.74-9.79,11.16-13.91c4.49-4.2,9.09-8.31,13.18-12.93c1.16-1.31,2.58-2.22,4.26-2.78
		c1.34-0.45,2.6-1.1,3.89-1.68c5.09-2.32,10.29-2.53,15.67-1.08c2.43,0.65,4.87,1.26,7.3,1.92c2.81,0.77,4.62,2.42,5.8,4.85
		c0.68,1.4,1.59,2.53,2.66,3.62c1.7,1.72,3.28,3.56,4.85,5.41c0.8,0.94,1.36,2.11,1.24,3.34c-0.29,3.18,0.93,5.94,2.16,8.72
		c0.81,1.85,1.67,3.69,2.39,5.57c0.47,1.22,1.02,2.51,1.07,3.78C432.16,99.04,433.89,103.62,433.39,108.37z"/>
</g>
</svg>
