<?xml version="1.0" encoding="utf-8"?>
<!-- Generator: Adobe Illustrator 26.0.3, SVG Export Plug-In . SVG Version: 6.00 Build 0)  -->
<svg version="1.1" id="Layer_1" xmlns="http://www.w3.org/2000/svg" xmlns:xlink="http://www.w3.org/1999/xlink" x="0px" y="0px"
	 viewBox="0 0 612 792" style="enable-background:new 0 0 612 792;" xml:space="preserve">
<g>
	<path d="M489.89,601.16c-6.32-0.27-11.52-0.18-16.71,0.67c-5.11,0.84-10.13-0.43-15.2-0.92c-4.73-0.46-9.08-1.86-12.83-4.53
		c-2.91-2.08-6.11-3.41-9.18-5.08c-2.69-1.46-5.08-3.63-7.27-5.81c-3.96-3.94-8.03-7.85-11.62-12.07
		c-3.59-4.22-7.69-8.19-10.09-13.35c-2.04-4.38-5.86-7.36-8.73-11.09c-5.77-7.48-12.07-14.52-17.24-22.49
		c-3.37-5.2-8.13-9.36-12.49-13.77c-4.83-4.87-9.37-10.07-13.28-15.59c-4.14-5.86-8.29-11.8-11.91-18.06
		c-3.67-6.34-8.2-12.06-12.84-17.76c-5.71-7.01-13.36-11.41-20.24-16.86c-1.12-0.89-2.2-0.78-3.49-0.44
		c-6.8,1.75-7.95,8.8-4.15,13.8c5.8,7.61,11.05,15.6,16.65,23.35c6.11,8.47,12.53,16.71,18.76,25.09c2.07,2.79,4.02,5.69,5.94,8.59
		c4.39,6.65,10.01,12.34,14.53,18.92c4.63,6.74,9.59,13.26,14.53,19.78c4.5,5.93,9.14,11.75,13.79,17.55
		c2.08,2.59,4.49,4.85,6.38,7.69c4.09,6.17,7.02,12.78,9.62,19.66c2.48,6.55,3.43,13.47,5.57,20.09c1.61,4.97,3.47,9.84,5.8,14.51
		c2.35,4.71,3.97,9.67,5.11,14.77c1,4.48,2.2,8.9,2.61,13.53c0.46,5.27,0.01,10.42-1.15,15.5c-0.88,3.87-1.75,7.83-3.33,11.44
		c-2.3,5.29-6.13,9.62-10.36,13.5c-1.39,1.27-2.82,2.45-3.82,4.03c-2.3,3.61-5.57,6.35-8.42,9.47c-1.84,2.01-4.46,2.13-6.92,2.31
		c-5.09,0.37-10.09,0.97-14.95,2.77c-3.96,1.47-8.06,1.22-12.07-0.22c-2.46-0.88-4.91-1.89-7.45-2.37c-2.63-0.5-4.66-1.83-6.38-3.61
		c-3.97-4.13-7.48-8.61-10.04-13.8c-2.64-5.36-4.88-10.81-6.08-16.72c-0.81-4-2.34-7.84-3.52-11.77
		c-1.87-6.25-3.74-12.49-4.92-18.92c-0.52-2.8-1.9-5.34-2.31-8.23c-0.61-4.29-1.3-8.65-2.72-12.71c-1.93-5.51-2.82-11.35-5.28-16.67
		c-4.12-8.91-8.15-17.86-12.5-26.65c-1.96-3.96-2.67-8.24-3.98-12.36c-0.94-2.97-1.86-5.92-3.2-8.74
		c-2.87-6.04-5.28-12.4-9.59-17.56c-4.79-5.74-9.22-11.93-15.89-15.87c-1.33-0.79-2.7-1.29-4.11-1.65
		c-2.72-0.68-4.29,0.61-3.84,3.29c0.88,5.27,1.78,10.54,3.36,15.66c0.37,1.19,0.82,2.35,1.15,3.55c0.87,3.19,2.17,6.07,5.02,8.04
		c0.8,0.55,1.54,1.33,2.04,2.16c3.74,6.22,8.91,11.34,13.12,17.2c1.56,2.17,2.37,4.66,3.33,7.06c0.71,1.77,1.58,3.36,2.7,4.86
		c2.47,3.28,5.05,6.48,7.35,9.88c2.96,4.39,4.39,9.45,5.81,14.48c2.14,7.58,1.78,15.28,1.09,22.99c-0.03,0.37-0.2,0.75-0.16,1.11
		c0.75,7.48-3.74,12.63-7.98,17.86c-2.87,3.53-6.45,6.15-10.63,8.02c-3.51,1.57-6.81,3.58-10.43,4.98
		c-5.28,2.03-10.57,2.71-16.07,1.17c-0.48-0.13-0.98-0.21-1.44-0.39c-3.54-1.44-7.76,0.32-11.07-2.51
		c-2.89-2.48-6.83-2.9-10.13-4.64c-4.21-2.22-7.82-5.2-11.24-8.44c-0.18-0.17-0.31-0.4-0.51-0.55c-7.01-5.11-9.89-13.22-14.61-20
		c-2.74-3.94-4.44-8.33-5.58-12.85c-1.84-7.28-5.38-14.2-4.83-22.03c0.11-1.58-0.32-3.21-0.6-4.8c-0.97-5.49-0.19-10.87,0.73-16.29
		c0.94-5.51,1.61-11.07,2.4-16.61c0.71-4.94,1.76-9.77,3.66-14.43c2.45-6,2.46-12.7,5.15-18.66c1.12-2.48,2.07-5.04,3.12-7.56
		c1.06-2.53,2.06-5.06,2.31-7.84c0.19-2.17,1.71-3.83,2.44-5.81c0.64-1.75,1.62-3.39,2.14-5.16c1.92-6.55,5.31-12.61,6.43-19.44
		c0.92-5.61,2.01-11.2,2.89-16.82c0.25-1.6,0.4-3.2,0.99-4.73c0.9-2.34,1.14-4.81,1.43-7.29c1.13-9.54-0.44-18.83-2.34-28.1
		c-0.51-2.48-1.85-4.67-3.59-6.42c-3.09-3.1-8.66-2.68-11.73,0.68c-5.87,6.42-9.79,13.89-12.52,22.14
		c-1.35,4.09-4.02,7.75-5.4,11.83c-1.78,5.28-5.41,9.45-7.65,14.42c-0.31,0.68-0.9,1.29-1.01,1.99c-0.91,6.19-5.56,10.75-7.16,16.64
		c-1.26,4.62-4.66,7.58-8.34,10.15c-4.08,2.85-8.56,5.02-13.29,6.66c-1.54,0.53-2.91,1.36-4.33,2.14c-3.17,1.74-6.46,3.27-10.24,1.8
		c-1.09-0.42-2.18-0.24-3.31-0.11c-3.09,0.35-6.18,0.72-9.28,0.82c-3.1,0.1-5.6-1.65-7.33-3.89c-2.28-2.94-5.15-5.38-7.02-8.65
		c-2.05-3.59-3.8-7.29-4.51-11.38c-0.28-1.63-0.89-3.14-1.56-4.58c-2.73-5.9-3.75-12.09-3.51-18.54c0.1-2.63-0.07-5.21-1.01-7.73
		c-0.34-0.91-0.57-1.98-0.44-2.92c0.9-6.28,1.36-12.6,1.56-18.93c0.04-1.44,0.91-2.56,1.32-3.86c1.32-4.15,2.08-8.61,4.13-12.35
		c3.95-7.19,5.4-15.22,8.55-22.64c0.92-2.17,1.89-4.39,2.32-6.68c1.5-8.13,3.88-16.15,3-24.58c-0.67-6.41-3.98-11.75-7.1-17.06
		c-1.71-2.91-4.37-5.52-7.16-7.49c-4.11-2.9-7.08-7.02-11.15-9.83c-6.8-4.7-10.74-11.71-14.79-18.42
		c-2.62-4.35-5.69-8.76-6.65-14.04c-0.13-0.69-0.65-1.33-1.06-1.95c-2.02-3.07-3.5-6.22-2.97-10.11c0.36-2.65-0.9-5.2-1.85-7.54
		c-1.15-2.85-1.32-5.78-1.91-8.68c-0.42-2.06-0.42-4.21-1.45-6.14c-0.28-0.52-0.49-1.22-0.39-1.77c0.79-4.56,0.04-9.22,0.97-13.77
		c0.2-0.96,0.18-1.99,0.13-2.97c-0.14-2.65,0.36-5,1.63-7.47c1.57-3.04,2.75-6.39,2.86-9.96c0.08-2.52,0.94-4.74,2.28-6.97
		c2.11-3.5,3.72-7.31,5.45-11.04c0.95-2.06,2.12-3.92,3.7-5.56c1.55-1.61,2.98-3.33,3.99-5.38c0.84-1.7,2.1-3.11,3.7-4.13
		c1.91-1.21,3.5-2.76,5.17-4.25c9.78-8.79,21.36-12.45,34.34-11.31c4.34,0.38,8.5,2.51,11.65,5.46c5.12,4.81,8.71,10.65,7.86,18.16
		c-1.17,10.3-0.34,20.65-0.89,30.95c-0.4,7.56-1.11,15.11-3.19,22.47c-1.15,4.07-1.47,8.34-1.74,12.53
		c-0.25,3.81,1.44,7.3,3.34,10.53c1.34,2.28,1.97,1.96,4.31,0.65c2.91-1.63,4.08-4.44,6-6.8c3.09-3.81,3.09-7.78,2.92-12.21
		c-0.12-3.08-0.58-6.16-0.24-9.28c0.22-1.98-0.41-3.95-1-5.85c-2.19-7.05-1.74-14.28-1.54-21.5c0.05-1.67,0.87-3.11,1.43-4.62
		c1.73-4.66,2.23-9.74,4.65-14.15c4.7-8.56,10.02-16.57,18.8-21.66c4.17-2.42,8.19-5.13,12.12-7.92c3.61-2.56,7.68-2.63,11.74-2.45
		c6.11,0.26,11.22,2.94,15.55,7.18c0.62,0.6,1.39,1.04,2.05,1.61c2.17,1.88,4.11,3.86,5.06,6.76c0.96,2.94,2.32,5.77,3.61,8.58
		c1.48,3.24,1.3,6.21,0.26,9.36c-0.39,1.18-0.7,2.38-1.04,3.58c-0.67,2.39-0.83,4.8-0.84,7.3c-0.02,4.41-1.92,8.4-3.68,12.34
		c-0.57,1.28-1.15,2.57-1.07,3.89c0.15,2.6-0.61,4.89-1.71,7.16c-1.51,3.13-2.98,6.28-4.41,9.45c-1.36,3.03-1.93,6.12-0.71,9.38
		c1.61,4.31,3.13,8.65,6.43,12.06c2.25,2.33,3.19,2.41,4.76-0.48c2.31-4.24,4.66-8.48,6.56-12.95c2.29-5.38,4.07-10.94,6.15-16.39
		c1.9-4.99,3.81-9.96,5.51-15.03c2-5.96,2.41-12.2,3.35-18.32c1.67-10.91,4.54-21.39,9.01-31.46c1.71-3.86,3.37-7.74,4.9-11.67
		c2.4-6.18,5.77-11.82,9.26-17.43c4.33-6.97,8.58-13.97,13.83-20.31c7.26-8.76,15.63-16.42,24.44-23.5
		c7.59-6.1,16.32-10.39,25.95-12.63c3.74-0.87,7.49-1.89,10.76-4.06c0.1-0.07,0.23-0.17,0.33-0.16c4.96,0.63,9.32-2.78,14.58-1.65
		c4.5,0.97,9.04,2.41,13.87,1.91c2.04-0.21,3.94,1.37,5.9,2.15c5.67,2.25,10.51,5.7,14.38,10.36c2.46,2.96,5.18,3.99,9.08,3.75
		c5.42-0.33,10.9,0.12,16.33,0.68c0.74,0.08,1.64,0.05,2.16,0.46c3.71,2.91,7.59,5.63,10.92,9.01c2.91,7.85,6.87,15.68,3.34,24.25
		c-2.38,5.79-4.16,12.17-9.29,16.29c-3.13,2.52-5.91,5.64-9.79,7.14c-1.25,0.49-1.97,1.46-2.77,2.41
		c-4.15,5.01-9.37,8.48-15.41,10.8c-5.35,2.05-10.43,4.52-15,8.14c-3.19,2.52-6.98,4.28-10.47,6.43c-1.91,1.17-3.87,2.29-5.6,3.68
		c-4.5,3.63-9.75,5.93-14.82,8.53c-3.25,1.67-6.16,3.75-8.76,6.29c-4.8,4.69-10.02,8.89-15.3,13.04c-3.51,2.76-6.47,6.19-9.86,9.12
		c-6.32,5.47-11.1,12.3-16.62,18.48c-1.49,1.66-3.09,3.2-4.45,5.01c-2.91,3.85-4.51,8.27-5.86,12.79c-0.9,2.99-0.38,3.47,2.63,3.44
		c2.4-0.02,4.71-0.48,6.91-1.37c4.27-1.73,8.64-3.12,13.11-4.2c2.06-0.5,3.82-1.59,5.54-2.94c6.8-5.34,13.17-11.15,19.53-16.98
		c2.14-1.96,3.93-4.16,5.65-6.43c2.19-2.87,4.46-5.65,7.25-7.97c7.61-6.36,14.56-13.46,22.68-19.3c5.28-3.8,10.03-8.45,15.15-12.54
		c5.17-4.13,10.93-7.41,17.47-8.86c5.75-1.27,11.63-1.03,17.47-0.91c0.6,0.01,1.27,0.15,1.78,0.44c6.53,3.8,11.81,8.61,13.75,16.34
		c0.91,3.63,2.05,7.17,1.82,10.98c-0.06,0.97,0.14,2,0.43,2.94c0.64,2.05,0.76,4.02,0.4,6.2c-0.68,4.11,1.35,6.65,5.46,7.24
		c3.26,0.48,6.23,1.56,8.95,3.45c1.93,1.35,4.33,1.82,6.26,3.29c1.48,1.13,3.15,2.1,4.25,3.59c4.37,5.87,10.14,10.56,13.91,16.95
		c6.17,10.47,7.32,21.67,4.4,33.14c-1.45,5.69-4.49,10.76-8.91,15.2c-5.12,5.14-11.48,7.73-17.59,10.97
		c-1.77,0.94-3.72,1.23-5.76,1.28c-4.84,0.14-9.71-0.57-14.54,0.4c-0.56,0.11-1.25-0.08-1.81-0.31c-4.26-1.8-8.76-1.72-13.24-1.73
		c-1.78,0-3.41-0.26-5.11-0.78c-4.16-1.29-8.37-2.38-12.82-1.88c-1.37,0.15-2.68-0.36-3.99-0.79c-4.38-1.47-8.8-2.64-13.5-2.53
		c-1.84,0.04-3.71-0.38-5.53-0.79c-2.96-0.67-5.91-0.88-8.88-0.25c-1.26,0.26-2.47,0.02-3.71,0c-7.13-0.12-14.12,0.67-20.68,3.65
		c-3.82,1.74-5.82,4.86-6.06,9.1c-0.19,3.33,0.95,5.22,4.13,6.17c2.37,0.71,4.81,1.53,7.24,1.64c5.31,0.24,10.26,1.89,15.27,3.31
		c5.65,1.6,11.52,1.68,17.25,2.82c9.89,1.96,19.99,2.64,30.04,2.23c10.27-0.42,20.73,0.16,30.72-2.83
		c7.03-2.1,14.33-2.71,21.42-4.68c7.37-2.05,15.21-2.65,22.54,1.45c1.68,0.94,3.9,1.07,5.48,2.28c2.89,2.21,6.16,4.02,8.34,7.08
		c1.02,1.43,1.85,2.87,1.71,4.79c-0.1,1.48,0.45,2.99,1.19,4.27c1.14,1.96,1.31,4.03,1.02,6.14c-0.45,3.32-0.51,6.66-1.39,9.96
		c-1.18,4.38-4,7.69-6.44,11.22c-2.18,3.16-2.36,6-0.48,9.33c2.4,4.25,4.02,8.94,4.06,13.79c0.06,6.96-1.7,13.47-6.3,19.08
		c-4.2,5.13-9.58,8.32-15.82,9.88c-3.17,0.8-6.61,1.22-9.94,0.65c-6.97-1.18-14.02-1.9-20.63-4.78c-2.68-1.16-5.81-1-8.71-1.76
		c-5.7-1.48-11.08-3.55-16.28-6.32c-4.49-2.39-9.26-4.26-13.87-6.44c-2.92-1.38-5.86-2.76-8.63-4.42
		c-6.35-3.81-13.45-5.73-20.34-8.13c-4.44-1.55-8.7-3.43-12.96-5.35c-2.94-1.32-5.92-2.68-9.01-3.54
		c-7.51-2.09-14.93-4.8-22.97-4.03c-2.47,0.23-4.99-0.02-7.47,0.14c-3.55,0.23-5,2.63-3.65,5.98c0.99,2.47,2.69,4.45,4.72,6.17
		c4.19,3.57,9.27,5.31,14.4,6.82c6.44,1.89,13.08,3.13,19.44,5.22c10.51,3.44,21.32,5.94,31.59,10.13c0.69,0.28,1.45,0.44,2.09,0.81
		c6.39,3.79,13.82,4.95,20.43,8c5.75,2.65,11.78,4.55,17.5,7.31c7.24,3.49,14.84,6.22,23.07,6.67c3.34,0.18,6.67,0.48,10.02,0.61
		c8.68,0.35,17.39,1.01,25.6,4.2c3.79,1.47,5.99,4.71,7.01,8.5c0.42,1.56,1.16,2.59,2.11,3.76c3.87,4.78,9.39,6.73,14.78,8.98
		c6.18,2.58,8.05,5.6,6.89,12.22c-1.39,7.96-5.52,14.4-12.55,18.58c-2.24,1.33-4.06,2.84-5.32,5c-0.94,1.61-2.21,2.59-3.91,3.25
		c-2.93,1.14-5.14,3.45-7.84,5c-2.05,1.18-1.88,2.89,0.18,4.48c2.15,1.67,4.74,2.65,6.85,4.46c1.97,1.68,4.24,3.02,6.43,4.44
		c3.55,2.31,6.25,5.29,7.74,9.31c1.38,3.73,2.91,7.42,4.18,11.18c1.23,3.62,0.88,7.42,0.44,11.11c-0.95,7.92-3.17,15.59-5.19,23.27
		c-1.23,4.67-5.09,7.65-9.3,9.71c-8.25,4.04-17.02,6.19-26.24,6.34C493.53,601.19,491.16,601.16,489.89,601.16z"/>
</g>
</svg>
