<?xml version="1.0" encoding="utf-8"?>
<!-- Generator: Adobe Illustrator 26.0.3, SVG Export Plug-In . SVG Version: 6.00 Build 0)  -->
<svg version="1.1" id="Layer_1" xmlns="http://www.w3.org/2000/svg" xmlns:xlink="http://www.w3.org/1999/xlink" x="0px" y="0px"
	 viewBox="0 0 612 792" style="enable-background:new 0 0 612 792;" xml:space="preserve">
<g>
	<path d="M335.79,145.4c4.73-3.02,8.66-5.94,11.62-10.07c2.09-2.91,4.64-5.37,8.28-6.37c5.13-1.4,10.17-3.35,15.52-3.54
		c3.44-0.12,7.11-0.36,9.91,2.62c0.95,1.01,2.33,1.76,3.65,2.28c5.31,2.09,9.04,5.81,11.79,10.72c1.35,2.4,3.1,4.58,4.4,7
		c2.65,4.9,3.24,10.34,3.46,15.77c0.14,3.54,0.51,7.08,0.09,10.64c-0.21,1.77-0.27,3.53-1.03,5.19c-0.27,0.58-0.43,1.31-0.36,1.94
		c0.56,5.18-0.45,10.37,0.37,15.58c0.69,4.38-0.53,8.81-0.69,13.23c-0.09,2.43-0.48,4.88-0.16,7.3c0.53,4.03-0.24,7.93-1,11.83
		c-1.28,6.53-2.03,13.13-2.64,19.75c-0.42,4.57-2.17,8.82-3.31,13.21c-1.17,4.51-2.26,9.02-2.9,13.64
		c-0.39,2.84-1.31,5.52-2.44,8.23c-2.47,5.93-5.87,11.54-7.52,17.73c-1.33,4.98-3.07,9.64-5.46,14.17c-1.22,2.31-1.7,4.98-2.85,7.4
		c-2.51,5.31-5.59,10.33-8.08,15.61c-2.4,5.1-5.9,9.66-7.43,15.18c-0.32,1.14-1.16,2.13-1.74,3.2c-3.21,5.98-4.95,12.59-7.91,18.69
		c-1.09,2.25-0.81,5.09-2.22,7.28c-1.82,2.83-2.89,5.98-4.19,9.03c-1.72,4.01-2.48,8.23-2.63,12.6c-0.07,1.94,0.84,3.47,1.78,4.91
		c1.17,1.8,3.69,1.98,5.75,0.89c3.53-1.85,6.62-4.24,9.34-7.14c1.08-1.16,1.95-2.39,2.34-3.96c0.18-0.74,0.53-1.47,0.96-2.1
		c4.22-6.17,7.28-12.87,9.88-19.88c1.99-5.37,4.95-10.38,7.46-15.57c0.96-1.99,1.77-4.06,2.82-5.99c1.9-3.48,3.63-7.02,6.76-9.77
		c2.38-2.1,3.73-5.2,5.68-7.76c5.2-6.81,11.7-12.1,18.69-16.86c3.27-2.23,6.52-4.53,10.61-5.16c1.01-0.16,1.96-0.34,2.92,0.04
		c2.79,1.11,5.8,1.4,8.65,2.26c5.17,1.56,9.62,4.2,12.5,9.05c1.29,2.17,2.88,4.19,4.41,6.19c2.58,3.38,3.31,7.26,3.83,11.18
		c0.79,5.91,0.64,11.9,1.07,17.85c0.36,5.03-1.21,9.89-2.86,14.6c-0.99,2.83-1.79,5.68-2.52,8.59c-0.88,3.53-1.96,7.05-3.37,10.41
		c-1.98,4.71-2.82,9.79-5.03,14.43c-1.72,3.63-3.81,7.03-6.03,10.31c-5.04,7.43-10.92,14.25-16.84,20.97
		c-4.64,5.26-9.78,10.17-16.14,13.59c-3.5,1.88-6.69,4.33-9.98,6.59c-7.95,5.46-15.87,10.97-23.82,16.43
		c-8.49,5.83-17.01,11.61-25.49,17.46c-0.93,0.64-1.96,1.03-2.9,1.6c-5.34,3.3-9.83,7.54-13.49,12.63c-1.1,1.54-2.18,3.08-3.51,4.44
		c-0.23,0.24-0.56,0.44-0.68,0.72c-0.63,1.47-2.08,2.97-0.96,4.59c1.04,1.49,2.82,0.96,4.32,0.55c2.98-0.82,6.07-1.43,8.36-3.8
		c0.37-0.39,0.9-0.7,1.41-0.87c5.46-1.73,10.02-5.12,14.87-7.97c5.45-3.2,10.9-6.39,16.31-9.64c4.46-2.68,9.07-5.19,13.26-8.25
		c6.65-4.86,13.91-8.49,21.38-11.78c1.62-0.71,3.28-1.44,4.71-2.46c3.14-2.23,6.69-3.42,10.33-4.46c2.56-0.73,5.06-1.59,7.35-3.05
		c1.09-0.7,2.44-1.17,3.73-1.37c8.35-1.29,16.73-2,25.14-0.49c3.21,0.57,6.13,1.82,8.72,3.86c3.98,3.15,8.06,6.14,11.29,10.18
		c1.18,1.47,1,3.1,1.64,4.6c1.04,2.43,1.96,4.91,2.8,7.41c1.57,4.68,1.08,9.37-0.13,14.06c-0.55,2.14-0.67,4.36-1.11,6.53
		c-1.01,5.07-3.88,9.41-5.17,14.34c-0.98,3.75-3.76,6.52-5.83,9.63c-3.26,4.89-6.25,9.94-9.36,14.91c-1.82,2.92-4.39,5.28-6.02,8.34
		c-0.41,0.78-1.27,1.23-2.1,1.58c-5.5,2.31-9.87,6.32-14.6,9.77c-1.45,1.06-2.84,1.93-4.67,2.33c-3.29,0.72-6.12,2.54-8.7,4.66
		c-0.99,0.82-2,1.45-3.26,1.45c-4.81,0-9.39,1.6-14.13,2.05c-3.63,0.34-7.27,0.76-10.91,0.78c-6.23,0.03-11.05,2.61-14.87,7.37
		c-0.55,0.68-1.24,1.27-1.95,1.79c-4.07,2.97-6.77,6.94-8.6,11.57c-3.16,8.01-4.57,16.35-5.48,24.9c-0.89,8.27,0.2,16.37,0.67,24.55
		c0.27,4.65,0.25,9.32,0.42,13.98c0.37,9.98,0.47,19.98,1.26,29.92c0.63,7.93,0.49,15.93,2.19,23.81c0.92,4.28,0.43,8.84,0.96,13.25
		c0.18,1.56,0.38,3.03,0.99,4.51c0.54,1.32,0.87,2.77,1.02,4.19c0.44,4.18-2.22,7.34-6.41,7.74c-2.87,0.27-5.82,0.12-8.59,0.78
		c-4.19,1.01-8.49,1.72-12.44,3.53c-2.11,0.97-4.02,2.36-6.34,2.85c-0.32,0.07-0.68,0.21-0.88,0.45c-3.03,3.47-7.61,4.35-11.28,6.74
		c-1.42,0.93-2.29,2.41-3.47,3.57c-2.05,2.02-2.76,1.94-4.31-0.37c-1.36-2.03-2.71-4.06-4.13-6.04c-0.9-1.26-1.32-2.6-0.85-4.08
		c2.16-6.78,1.42-13.62,0.32-20.43c-0.54-3.31-0.56-6.62-0.53-9.95c0.04-5,0.13-10-0.06-14.99c-0.13-3.43-1.03-6.79-1.52-10.19
		c-0.87-6.04-1.42-12.12-2.38-18.14c-0.93-5.81-2.59-11.39-4.98-16.84c-3.16-7.22-6.38-14.42-10.57-21.07
		c-4.26-6.76-9.62-12.53-17.24-15.96c-5.11-2.3-10.16-4.37-15.78-4.85c-1.66-0.14-3.31-0.36-4.96-0.57
		c-5.53-0.73-10.74-2.73-16.12-4.02c-7.22-1.73-14.3-3.94-21.62-5.31c-4.9-0.92-9.74-2.19-14.56-3.49
		c-4.39-1.19-8.87-1.93-13.22-3.35c-4.65-1.52-9.15-3.21-13.45-5.62c-4.44-2.49-9.08-4.67-13.78-6.65
		c-5.18-2.19-9.74-5.06-13.79-9.05c-4.9-4.82-10.03-9.42-14.9-14.28c-1.35-1.35-2.53-2.76-3.29-4.55c-0.43-1.01-1.11-1.92-1.75-2.83
		c-3.83-5.46-7.28-11.12-9.24-17.57c-0.39-1.27-0.8-2.53-0.78-3.9c0.12-6.08-1.38-11.88-3.5-17.49c-1.55-4.1-1.49-8.24-1.17-12.45
		c0.09-1.24,0.83-2.26,1.72-3.16c2.14-2.15,3.54-4.72,4.75-7.52c2.61-6.06,6.38-11.14,13.13-13.07c2.22-0.64,4.31-1.61,6.41-2.47
		c2.7-1.12,5.34-0.99,8.08-0.85c2.55,0.13,5.1,0.29,7.65,0.23c6.19-0.14,12.05,1.49,17.93,3.13c1.86,0.52,3.32,1.75,5.04,2.51
		c4.85,2.15,9.65,4.41,14.4,6.78c2.66,1.33,5.26,2.81,7.72,4.48c1.95,1.32,4.03,2.32,6.11,3.36c7.24,3.63,13.87,8.3,20.89,12.31
		c3.48,1.99,7.14,3.52,10.81,5.05c0.6,0.25,1.29,0.32,1.94,0.39c2.08,0.21,2.9-0.47,2.96-2.49c0.04-1.58-0.32-3.12-0.96-4.54
		c-2.11-4.66-4.74-8.97-8.2-12.81c-6.85-7.61-15.39-13.03-23.77-18.62c-2.82-1.88-5.98-3.35-8.94-5.1
		c-5.57-3.29-10.14-7.86-15.34-11.61c-2.52-1.82-5.28-3.22-7.73-5.14c-4.09-3.2-8.55-5.96-12.21-9.69
		c-2.86-2.92-5.07-6.44-8.09-9.25c-4.23-3.93-7.82-8.45-11.45-12.91c-0.69-0.85-1.19-1.87-1.78-2.8c-1.59-2.53-3.2-5.04-5.35-7.17
		c-2.78-2.74-3.94-6.41-5.15-9.95c-0.86-2.53-1.87-4.99-2.92-7.43c-1.59-3.7-2.9-7.52-3.1-11.49c-0.2-3.89-0.68-7.7-1.31-11.51
		c-0.91-5.45-1.54-10.97-2.82-16.33c-1.31-5.47-3.18-10.81-4.99-16.15c-0.62-1.83-0.27-3.13,0.8-4.6c2.3-3.13,5.5-4.54,9.17-5.16
		c7.46-1.26,14.99-1.16,22.51-1.2c0.79,0,1.54,0.07,2.23,0.52c1.45,0.97,2.96,1.5,4.67,0.58c0.51-0.27,1.11-0.11,1.61,0.15
		c3.4,1.77,7.13,2.21,10.83,2.81c0.54,0.09,1.11,0.2,1.6,0.43c6.55,3.19,13.24,6.11,19.02,10.73c1.77,1.42,2.65,3.24,3.67,5.03
		c2.61,4.56,6.74,7.91,9.54,12.32c2.48,3.91,5.4,7.51,7.42,11.74c1.46,3.07,3.67,5.77,5.39,8.72c1.9,3.26,4.46,6.03,6.58,9.13
		c1.59,2.33,3.9,4.2,5.48,6.62c0.42,0.65,1.06,1.18,1.37,1.87c2.65,6.06,6.97,11.05,10.53,16.53c1.56,2.41,3.39,4.67,4.79,7.17
		c1.12,1.99,3.02,3.16,4.35,4.96c2.83,3.83,4.91,8.18,8.01,11.79c3.16,3.69,6.11,7.64,10.1,10.51c1.58,1.14,3.48,2.02,5.36,2.47
		c1.77,0.43,2.88-1.15,3.42-2.6c0.92-2.48,1.75-5.05,1.65-7.74c-0.21-5.87,0.12-11.81-1.03-17.58c-0.96-4.84-1.41-9.8-3.98-14.31
		c-1.95-3.42-2.97-7.33-4.89-10.85c-3.35-6.16-7.25-11.93-11.33-17.61c-4.27-5.95-8.85-11.68-13.73-17.11
		c-5.17-5.76-10.31-11.55-15.89-16.95c-4.05-3.92-8.23-7.71-12.07-11.88c-5.16-5.61-10.6-10.97-16.53-15.84
		c-7.1-5.82-13.92-12.01-20.29-18.65c-3.64-3.79-6.37-8.27-9.02-12.75c-2.65-4.48-6.08-8.47-8.34-13.19
		c-2.08-4.33-5.26-7.92-7.88-11.88c-0.77-1.15-1.16-2.3-1.29-3.68c-0.3-3.09-0.93-6.14-1.83-9.11c-1.9-6.29-1.67-12.65-1.19-19.1
		c0.37-4.97,2-9.74,1.76-14.82c-0.11-2.33,1.04-4.71,0.98-7.15c-0.11-4.47,1.44-8.4,3.57-12.22c0.63-1.14,1.18-2.5,1.2-3.77
		c0.07-3.48,1.53-6.4,3.07-9.38c1.16-2.24,1.53-4.86,3.02-6.97c0.51-0.72,0.88-1.71,1.58-2.1c2.21-1.25,3.16-3.37,4.12-5.46
		c1.03-2.25,2.35-4.27,4.09-6.02c2.56-2.57,3.62-6.05,5.56-9.01c2.55-3.9,5.65-7.53,9.69-9.31c3.86-1.71,7.01-4.46,10.92-6.03
		c3.66-1.47,7.4-2.34,11.21-2.98c2.74-0.46,4.96,0.89,6.77,2.79c2.61,2.74,5.41,5.22,8.7,7.13c3.39,1.97,6.12,4.76,9.07,7.28
		c3.88,3.31,7.94,6.47,11.41,10.18c5.74,6.12,11.58,12.19,15.07,20.1c1.92,4.34,4.61,8.38,5.76,13.01
		c1.07,4.31,3.36,8.28,3.86,12.64c0.57,4.93,2.36,9.69,2.02,14.74c-0.04,0.65-0.05,1.42,0.26,1.96c2.55,4.47,2.33,9.39,2.3,14.24
		c-0.02,3.68,1.22,7.19,1.19,10.85c0,0.21,0.24,0.42,0.22,0.62c-0.62,6.66,3.1,12.36,4.13,18.68c0.75,4.6,3.32,8.64,5.83,12.58
		c1.31,2.05,3.4,3.15,5.33,4.39c2.31,1.49,4.8,2.69,7.22,4c2.44,1.33,4.82,0.82,6.86-0.69c1.25-0.92,2.81-1.56,3.78-2.63
		c2.66-2.96,5.98-5.55,6.43-10.02c0.43-4.27,0.02-8.58,1.27-12.83c0.85-2.9-0.26-5.95-1-8.84c-1.26-4.94-2.54-9.89-4.06-14.76
		c-1.19-3.8-2.79-7.45-4.69-10.97c-1.93-3.6-3.62-7.32-5.55-10.92c-2.66-4.95-5.57-9.78-8.16-14.77
		c-2.94-5.66-7.23-10.27-11.22-15.12c-0.8-0.97-1.24-2.1-1.81-3.16c-2.37-4.46-6.18-7.79-9.02-11.87c-2.08-2.99-4.77-5.53-6.15-9.03
		c-0.74-1.87-2.42-3.2-3.84-4.53c-1.36-1.28-2.44-2.64-2.91-4.34c-1.22-4.48-3.73-8.27-6.13-12.12
		c-6.93-11.13-11.19-23.31-14.78-35.85c-2.37-8.28-3.12-16.73-3.89-25.19c-0.55-6.17-0.73-12.4-0.63-18.62
		c0.11-6.88,0.11-13.77,0.04-20.65c-0.02-2.21-0.33-4.42-0.67-6.61c-0.45-2.96-0.21-5.96-0.62-8.94c-0.34-2.46-0.99-4.83-1.99-7
		c-1.27-2.77-1.11-4.78,0.85-7.25c3.13-3.95,7.18-5.4,11.9-5.51c2.18-0.05,4.01,1.11,5.69,2.47c4.23,3.44,9.02,6.02,13.68,8.79
		c0.47,0.28,1.02,0.49,1.55,0.58c6.5,1.07,11.74,4.97,17.48,7.75c4.26,2.06,8.28,4.58,12.52,6.71c3.27,1.64,6.07,4.05,8.45,6.91
		c0.77,0.93,1.76,1.68,2.67,2.5c7.8,7.01,14.77,14.7,19.9,23.93c1.46,2.63,2.32,5.49,3.27,8.33c2.95,8.85,5.17,17.91,7.25,26.98
		c1.28,5.59,2.51,11.29,2.25,17.13C335.51,137.21,336.43,140.93,335.79,145.4z"/>
</g>
</svg>
